<svg width="1200" height="200" xmlns="http://www.w3.org/2000/svg">
 <!-- Created with Method Draw - http://github.com/duopixel/Method-Draw/ -->
 <g>
  <title>background</title>
  <rect fill="#fff" id="canvas_background" height="202" width="1202" y="-1" x="-1"/>
  <g display="none" overflow="visible" y="0" x="0" height="100%" width="100%" id="canvasGrid">
   <rect fill="url(#gridpattern)" stroke-width="0" y="0" x="0" height="100%" width="100%"/>
  </g>
 </g>
 <g>
  <title>Layer 1</title>
  <rect id="svg_1" height="400" width="1200" y="0" x="0" stroke-width="1.5" fill="#999999"/>
  <path stroke="null" id="svg_5" d="m45.032486,312.430858l0,0c0,-24.300529 19.251765,-44.000004 43.000017,-44.000004l0,0c11.404309,0 22.341536,4.635699 30.405598,12.8873c8.06407,8.251604 12.594419,19.443174 12.594419,31.112704l0,0c0,24.300526 -19.251765,44.000004 -43.000017,44.000004l0,0c-23.748248,0 -43.000017,-19.699478 -43.000017,-44.000004zm21.500008,0l0,0c0,12.150262 9.625889,22.000002 21.500008,22.000002c11.874129,0 21.500008,-9.849741 21.500008,-22.000002c0,-12.150262 -9.625886,-22.000002 -21.500008,-22.000002l0,0c-11.87412,0 -21.500008,9.849744 -21.500008,22.000002z" stroke-width="1.5" fill="#bcbcbc"/>
  <path stroke="null" id="svg_6" d="m204.032494,76.035514l0,0c0,-14.693348 11.640602,-26.604665 26.000013,-26.604665l0,0c6.895631,0 13.508842,2.802982 18.384787,7.792323c4.875951,4.989347 7.615233,11.756345 7.615233,18.812342l0,0c0,14.693342 -11.640608,26.604659 -26.000019,26.604659l0,0c-14.359411,0 -26.000013,-11.911317 -26.000013,-26.604659zm13.000004,0l0,0c0,7.346671 5.820307,13.302329 13.00001,13.302329c7.179709,0 13.00001,-5.955658 13.00001,-13.302329c0,-7.346671 -5.820301,-13.302329 -13.00001,-13.302329l0,0c-7.179702,0 -13.00001,5.955658 -13.00001,13.302329z" stroke-width="1.5" fill="#bcbcbc"/>
  <path stroke="null" id="svg_7" d="m600.032481,141.942498l0,0c0,-12.432838 9.849745,-22.511649 22.000021,-22.511649l0,0c5.834767,0 11.430563,2.371755 15.556365,6.593507c4.125806,4.221757 6.443661,9.947681 6.443661,15.918142l0,0c0,12.432833 -9.84975,22.511644 -22.000026,22.511644l0,0c-12.150276,0 -22.000021,-10.078811 -22.000021,-22.511644zm11.000008,0l0,0c0,6.216417 4.924877,11.255822 11.000013,11.255822c6.075141,0 11.000013,-5.039405 11.000013,-11.255822c0,-6.216417 -4.924872,-11.255822 -11.000013,-11.255822l0,0c-6.075135,0 -11.000013,5.039405 -11.000013,11.255822z" stroke-width="1.5" fill="#bcbcbc"/>
  <path stroke="null" id="svg_8" d="m592.032476,279.198315l0,0c0,-6.498991 5.148736,-11.767467 11.500025,-11.767467l0,0c3.049996,0 5.975075,1.239783 8.131746,3.44661c2.156674,2.20683 3.368282,5.19993 3.368282,8.320857l0,0c0,6.498989 -5.148739,11.767465 -11.500027,11.767465l0,0c-6.351288,0 -11.500025,-5.268476 -11.500025,-11.767465zm5.750011,0l0,0c0,3.249494 2.574371,5.883732 5.750014,5.883732c3.175646,0 5.750014,-2.634238 5.750014,-5.883732c0,-3.249494 -2.574368,-5.883732 -5.750014,-5.883732l0,0c-3.175643,0 -5.750014,2.634238 -5.750014,5.883732z" stroke-width="1.5" fill="#bcbcbc"/>
  <path stroke="null" id="svg_9" d="m1005.032481,44.988995l0,0c0,-13.563087 10.745169,-24.558146 24.000007,-24.558146l0,0c6.365197,0 12.469697,2.587368 16.970568,7.192912c4.500877,4.60555 7.029444,10.852008 7.029444,17.365234l0,0c0,13.563082 -10.745174,24.558141 -24.000012,24.558141l0,0c-13.254838,0 -24.000007,-10.995059 -24.000007,-24.558141zm12.000001,0l0,0c0,6.781541 5.37259,12.27907 12.000006,12.27907c6.627422,0 12.000006,-5.49753 12.000006,-12.27907c0,-6.781541 -5.372584,-12.27907 -12.000006,-12.27907l0,0c-6.627416,0 -12.000006,5.49753 -12.000006,12.27907z" stroke-width="1.5" fill="#bcbcbc"/>
  <path stroke="null" id="svg_10" d="m39.567474,53.847135l18,-18.28125l18,18.28125l-18,18.28125l-18,-18.28125z" stroke-opacity="null" stroke-width="1.5" fill="#bcbcbc"/>
  <path id="svg_12" d="m689.56747,332.06588l32,-32.5l32,32.5l-32,32.5l-32,-32.5z" stroke-opacity="null" stroke-width="1.5" stroke="null" fill="#bcbcbc"/>
  <path stroke="null" id="svg_13" d="m840.567457,142.308087l15.500015,-15.742203l15.500015,15.742203l-15.500015,15.742203l-15.500015,-15.742203z" stroke-opacity="null" stroke-width="1.5" fill="#bcbcbc"/>
  <path id="svg_14" d="m345.56747,289.06588l32,-32.5l32,32.5l-32,32.5l-32,-32.5z" stroke-opacity="null" stroke-width="1.5" stroke="null" fill="#bcbcbc"/>
  <path id="svg_15" d="m982.077479,370.715874l0,-93.999977l79.000091,93.999977l-79.000091,0z" fill-opacity="null" stroke-opacity="null" stroke-width="1.5" stroke="null" fill="#bcbcbc"/>
  <path stroke="null" id="svg_16" d="m437.077466,90.715868l0,-49.974737l42.000106,49.974737l-42.000106,0z" fill-opacity="null" stroke-opacity="null" stroke-width="1.5" fill="#bcbcbc"/>
  <path id="svg_17" d="m1108.56747,202.06588l32,-32.5l32,32.5l-32,32.5l-32,-32.5z" stroke-opacity="null" stroke-width="1.5" stroke="null" fill="#bcbcbc"/>
 </g>
</svg>