<svg id="Layer_1" data-name="Layer 1" xmlns="http://www.w3.org/2000/svg" viewBox="0 0 100 100"><defs><style>.cls-1{fill:#fff;}.cls-2{fill:#828282;}.cls-3{fill:none;}</style></defs><title>img_not_found</title><rect class="cls-1" width="100" height="100"/><path class="cls-2" d="M50,17.67A32.33,32.33,0,1,0,82.33,50,32.36,32.36,0,0,0,50,17.67ZM22.29,50A27.56,27.56,0,0,1,28.6,32.42l39,39A27.69,27.69,0,0,1,22.29,50Zm48.6,18.18L31.82,29.11A27.69,27.69,0,0,1,70.89,68.18Z"/><path class="cls-3" d="M51.22,42.75H49.33a8.46,8.46,0,0,0-2.45.66l1.66,1.67a6.2,6.2,0,0,1,1.74-.25A6.31,6.31,0,0,1,56.34,53L58,54.64a8.38,8.38,0,0,0,.75-3.47A8.48,8.48,0,0,0,51.22,42.75Z"/><path class="cls-3" d="M50.28,57.5a6.34,6.34,0,0,1-5.9-8.63l-1.61-1.63A8.46,8.46,0,0,0,54.12,58.71l-1.61-1.62A6.35,6.35,0,0,1,50.28,57.5Z"/><path class="cls-3" d="M61.56,47.64a1.7,1.7,0,1,0-1.71-1.7A1.7,1.7,0,0,0,61.56,47.64Z"/><path class="cls-2" d="M51.22,42.75a8.48,8.48,0,0,1,7.53,8.42A8.38,8.38,0,0,1,58,54.64l6.12,6.18H65V42.69H58.45l0,.06Zm10.34,1.49a1.7,1.7,0,1,1-1.71,1.7A1.7,1.7,0,0,1,61.56,44.24Z"/><path class="cls-2" d="M50.28,59.64a8.48,8.48,0,0,1-7.51-12.4l-4.5-4.55H35V60.82H56.21l-2.09-2.11A8.44,8.44,0,0,1,50.28,59.64Z"/><path class="cls-2" d="M46.23,42.75l.65.66a8.46,8.46,0,0,1,2.45-.66Z"/><path class="cls-2" d="M44,51.17a6.32,6.32,0,0,0,8.56,5.92l-8.13-8.22A6.27,6.27,0,0,0,44,51.17Z"/><path class="cls-2" d="M56.61,51.17a6.34,6.34,0,0,0-6.33-6.34,6.2,6.2,0,0,0-1.74.25L56.34,53A6.32,6.32,0,0,0,56.61,51.17Z"/><polygon class="cls-2" points="50.28 42.7 58.45 42.7 56.62 39.18 56.61 39.18 43.39 39.18 43.38 39.18 43.14 39.63 46.17 42.7 50.28 42.7"/><path class="cls-2" d="M51.22,42.75c-.31,0-.62-.06-.94-.06s-.64,0-1,.06Z"/><path class="cls-2" d="M50.28,42.69H46.17l.06.06h3.1C49.64,42.72,50,42.69,50.28,42.69Z"/><path class="cls-2" d="M51.22,42.75h7.26l0-.06H50.28C50.6,42.69,50.91,42.72,51.22,42.75Z"/></svg>