<svg id="Capa_1" enable-background="new 0 0 512 512" height="512" viewBox="0 0 512 512" width="512" xmlns="http://www.w3.org/2000/svg"><path d="m239.968 247.984h32.065v216.435h-32.065z" fill="#ffd064"/><path d="m256 23.532c-98.266 120.343-200.403 184.371-200.403 184.371v16.032h352.71v-16.032c-.001 0-54.041-64.028-152.307-184.371z" fill="#ff8086"/><path d="m256 23.532c47.168 120.343 96.194 184.371 96.194 184.371v16.032h104.21v-16.032c-.001 0-102.138-64.028-200.404-184.371z" fill="#f9eac7"/><path d="m256 23.532c-47.168 120.343-96.194 184.371-96.194 184.371v16.032h96.194z" fill="#f9eac7"/><path d="m456.403 456.403h-400.806c-4.427 0-8.016 3.589-8.016 8.016v40.081h416.839v-40.081c-.001-4.427-3.59-8.016-8.017-8.016z" fill="#ffd064"/><path d="m135.758 464.419v-8.016h-80.161c-4.427 0-8.016 3.589-8.016 8.016v40.081h416.839v-24.048h-312.63c-8.854 0-16.032-7.178-16.032-16.033z" fill="#ffc250"/><circle cx="256" cy="23.532" fill="#ffd064" r="16.032"/><path d="m464.419 207.903h-416.838c-4.427 0-8.016 3.589-8.016 8.016v32.065c0 4.427 3.589 8.016 8.016 8.016h416.839c4.427 0 8.016-3.589 8.016-8.016v-32.065c-.001-4.427-3.589-8.016-8.017-8.016z" fill="#ffd064"/><path d="m151.79 231.952c-8.854 0-16.032-7.178-16.032-16.032v-8.016h-88.177c-4.427 0-8.016 3.589-8.016 8.016v32.065c0 4.427 3.589 8.016 8.016 8.016h416.839c4.427 0 8.016-3.589 8.016-8.016v-16.032h-320.646z" fill="#ffc250"/><path d="m95.677 384.258c15.28 0 29.115 6.126 39.235 16.032h.845v-32.065c0-4.427 3.589-8.016 8.016-8.016h24.048l-24.048-32.065c-22.044 0-29.058 24.048-48.097 24.048h-24.047c-8.854 0-16.032 7.178-16.032 16.032v32.065h.846c10.119-9.905 23.955-16.031 39.234-16.031z" fill="#ff8086"/><path d="m79.645 386.61v-34.416h-8.016c-8.854 0-16.032 7.178-16.032 16.032v32.065h.846c6.426-6.292 14.36-11.04 23.202-13.681z" fill="#e5646e"/><path d="m256 344.177c15.28 0 29.115 6.126 39.235 16.032h.845v-32.065c0-4.427 3.589-8.016 8.016-8.016h24.048l-24.048-32.065c-22.044 0-29.058 24.048-48.097 24.048h-24.048c-8.854 0-16.032 7.178-16.032 16.032v32.065h.846c10.12-9.905 23.955-16.031 39.235-16.031z" fill="#ff8086"/><path d="m239.968 346.529v-34.416h-8.016c-8.854 0-16.032 7.178-16.032 16.032v32.065h.846c6.426-6.292 14.36-11.04 23.202-13.681z" fill="#e5646e"/><path d="m416.323 384.258c15.28 0 29.115 6.126 39.235 16.032h.845v-32.065c0-4.427 3.589-8.016 8.016-8.016h24.048l-24.048-32.065c-22.044 0-29.058 24.048-48.097 24.048h-24.048c-8.854 0-16.032 7.178-16.032 16.032v32.065h.846c10.119-9.905 23.955-16.031 39.235-16.031z" fill="#ff8086"/><path d="m400.29 386.61v-34.416h-8.016c-8.854 0-16.032 7.178-16.032 16.032v32.065h.846c6.426-6.292 14.36-11.04 23.202-13.681z" fill="#e5646e"/><path d="m480.452 497h-8.532v-32.581c0-8.556-6.96-15.516-15.516-15.516h-176.873v-64.646c0-4.142-3.358-7.5-7.5-7.5s-7.5 3.358-7.5 7.5v64.646h-17.063v-64.646c0-4.142-3.358-7.5-7.5-7.5s-7.5 3.358-7.5 7.5v64.646h-128.777c-4.142 0-7.5 3.358-7.5 7.5s3.358 7.5 7.5 7.5h352.712c.285 0 .516.231.516.516v32.581h-401.838v-32.581c0-.285.231-.516.516-.516h16.035c4.142 0 7.5-3.358 7.5-7.5s-3.358-7.5-7.5-7.5h-16.035c-8.556 0-15.516 6.96-15.516 15.516v32.581h-8.532c-4.142 0-7.5 3.358-7.5 7.5s3.358 7.5 7.5 7.5h448.903c4.142 0 7.5-3.358 7.5-7.5s-3.358-7.5-7.5-7.5z"/><path d="m494.468 355.709-24.048-32.064c-1.417-1.889-3.639-3-6-3-14.243 0-23.461 8.062-30.869 14.539-3.726 3.258-6.749 5.815-9.728 7.454v-79.138h40.597c8.556 0 15.516-6.96 15.516-15.516v-32.064c0-8.556-6.96-15.516-15.516-15.516h-5.841c-13.235-8.492-99.268-65.539-182.631-164.408 2.268-3.617 3.585-7.888 3.585-12.463-.001-12.976-10.557-23.533-23.533-23.533s-23.532 10.557-23.532 23.532c0 4.575 1.317 8.847 3.585 12.464-83.28 98.767-169.395 155.906-182.633 164.407h-5.839c-8.556 0-15.516 6.96-15.516 15.516v32.064c0 8.556 6.96 15.516 15.516 15.516h40.597v81.193h-48.614c-12.976 0-23.532 10.557-23.532 23.532 0 4.142 3.358 7.5 7.5 7.5s7.5-3.358 7.5-7.5c0-4.705 3.828-8.532 8.532-8.532h10.14c-1.034 2.647-1.608 5.523-1.608 8.532v30.057c-6.035 6.783-10.677 14.887-13.366 23.915-1.182 3.97 1.077 8.146 5.047 9.329.714.213 1.435.314 2.144.314 3.231 0 6.215-2.105 7.185-5.361 6.089-20.443 25.239-34.721 46.57-34.721s40.481 14.278 46.571 34.722c1.183 3.97 5.356 6.229 9.329 5.047 3.97-1.183 6.229-5.359 5.047-9.329-2.689-9.028-7.331-17.132-13.366-23.915v-30.057c0-.285.231-.516.516-.516h24.048c2.841 0 5.438-1.605 6.708-4.146 1.271-2.541.997-5.582-.708-7.854l-24.048-32.064c-1.417-1.889-3.639-3-6-3-14.243 0-23.461 8.062-30.869 14.539-3.726 3.259-6.749 5.815-9.729 7.455v-79.139h145.325v41.113h-48.613c-12.976 0-23.532 10.557-23.532 23.532 0 4.142 3.358 7.5 7.5 7.5s7.5-3.358 7.5-7.5c0-4.705 3.828-8.532 8.532-8.532h10.14c-1.034 2.647-1.608 5.523-1.608 8.532v30.056c-6.035 6.783-10.677 14.887-13.366 23.916-1.183 3.97 1.077 8.146 5.047 9.329 3.968 1.183 8.146-1.077 9.329-5.047 6.089-20.444 25.24-34.722 46.571-34.722s40.481 14.278 46.571 34.722c.97 3.256 3.953 5.361 7.185 5.361.708 0 1.43-.102 2.144-.314 3.97-1.183 6.229-5.359 5.047-9.329-2.689-9.029-7.331-17.133-13.366-23.916v-30.056c0-.285.231-.516.516-.516h24.048c2.841 0 5.438-1.605 6.708-4.146 1.271-2.541.997-5.582-.708-7.854l-24.048-32.064c-1.417-1.889-3.639-3-6-3-14.243 0-23.461 8.062-30.869 14.539-3.726 3.258-6.749 5.815-9.728 7.454v-39.058h145.323v81.193h-48.613c-12.976 0-23.532 10.557-23.532 23.532 0 4.142 3.358 7.5 7.5 7.5s7.5-3.358 7.5-7.5c0-4.705 3.828-8.532 8.532-8.532h10.14c-1.034 2.647-1.608 5.523-1.608 8.532v30.057c-6.035 6.783-10.677 14.887-13.366 23.915-1.182 3.97 1.077 8.146 5.047 9.329 3.968 1.182 8.146-1.078 9.329-5.047 6.089-20.444 25.24-34.722 46.571-34.722s40.481 14.278 46.57 34.721c.97 3.256 3.953 5.361 7.185 5.361.708 0 1.43-.101 2.144-.314 3.97-1.183 6.229-5.359 5.047-9.329-2.689-9.028-7.331-17.133-13.366-23.915v-30.057c0-.285.231-.516.516-.516h24.048c2.841 0 5.438-1.605 6.708-4.146 1.271-2.539.997-5.58-.707-7.853zm-371.688-9.233c5.695-4.98 10.726-9.379 17.466-10.535l12.577 16.769h-9.048c-8.556 0-15.516 6.96-15.516 15.516v17.632c-9.658-5.798-20.865-9.099-32.581-9.099s-22.923 3.302-32.581 9.099v-17.632c0-4.705 3.828-8.532 8.532-8.532h24.048c11.988-.001 20.018-7.023 27.103-13.218zm160.322-40.081c5.695-4.98 10.726-9.379 17.466-10.535l12.577 16.769h-9.048c-8.556 0-15.516 6.96-15.516 15.516v17.631c-9.658-5.798-20.865-9.099-32.581-9.099s-22.923 3.301-32.581 9.099v-17.631c0-4.705 3.828-8.532 8.532-8.532h24.049c11.987 0 20.017-7.023 27.102-13.218zm-108.648-105.992c14.192-20.617 43.637-67.209 74.046-138.407v138.407zm89.046-138.403c30.408 71.196 59.853 117.787 74.044 138.403h-74.044zm-7.5-47c4.705 0 8.532 3.828 8.532 8.532s-3.828 8.532-8.532 8.532-8.532-3.828-8.532-8.532 3.827-8.532 8.532-8.532zm-25.05 49.753c-33.961 77.345-66.406 124-74.908 135.651h-75.962c30.338-21.505 90.1-67.611 150.87-135.651zm-183.886 183.231v-32.064c0-.285.231-.516.516-.516h328.66c4.142 0 7.5-3.358 7.5-7.5s-3.358-7.5-7.5-7.5h-20.284c-8.506-11.656-40.95-58.312-74.911-135.656 60.77 68.042 120.534 114.151 150.874 135.656h-23.61c-4.142 0-7.5 3.358-7.5 7.5s3.358 7.5 7.5 7.5h56.11c.285 0 .516.231.516.516v32.064c0 .285-.231.516-.516.516h-416.838c-.285 0-.517-.231-.517-.516zm417.355 104.725c-8.556 0-15.516 6.96-15.516 15.516v17.632c-9.658-5.798-20.865-9.099-32.581-9.099s-22.923 3.302-32.581 9.099v-17.632c0-4.705 3.828-8.532 8.533-8.532h24.048c11.987 0 20.017-7.022 27.102-13.218 5.695-4.98 10.726-9.379 17.466-10.535l12.577 16.769z"/></svg>