<?xml version="1.0" encoding="iso-8859-1"?>
<!-- Generator: Adobe Illustrator 19.0.0, SVG Export Plug-In . SVG Version: 6.00 Build 0)  -->
<svg version="1.1" id="Capa_1" xmlns="http://www.w3.org/2000/svg" xmlns:xlink="http://www.w3.org/1999/xlink" x="0px" y="0px"
	 viewBox="0 0 512 512" style="enable-background:new 0 0 512 512;" xml:space="preserve">
<circle style="fill:#FFA91F;" cx="256" cy="256" r="256"/>
<path style="fill:#FF8900;" d="M512,256c0-19.757-2.242-38.99-6.479-57.462l-34.304-34.304h-36.536
	C396.622,133.687,256,18.167,256,18.167S115.378,133.687,77.318,164.234H40.782v38.599L79.639,240.9v96.673H56.928V367.5
	l64.33,60.908v24.74l41.233,41.233C191.458,505.751,222.999,512,256,512C397.385,512,512,397.385,512,256z"/>
<rect x="168.81" y="197.68" style="fill:#FF6196;" width="14.547" height="148.1"/>
<rect x="146.1" y="337.57" style="fill:#FFF8FE;" width="59.969" height="29.927"/>
<rect x="79.64" y="197.68" style="fill:#FF6196;" width="14.547" height="148.1"/>
<rect x="56.928" y="337.57" style="fill:#FFF8FE;" width="59.969" height="29.927"/>
<rect x="417.81" y="197.68" style="fill:#FF156F;" width="14.547" height="148.1"/>
<rect x="395.1" y="337.57" style="fill:#D9D9DB;" width="59.969" height="29.927"/>
<rect x="328.64" y="197.68" style="fill:#FF156F;" width="14.547" height="148.1"/>
<rect x="305.93" y="337.57" style="fill:#D9D9DB;" width="59.969" height="29.927"/>
<rect x="230.88" y="193.43" style="fill:#FFF8FE;" width="50.25" height="231.87"/>
<rect x="256" y="193.43" style="fill:#D9D9DB;" width="25.12" height="231.87"/>
<path style="fill:#FF6196;" d="M256,18.167c0,0-183.5,150.744-188,153.369h376C439.5,168.911,256,18.167,256,18.167z"/>
<path style="fill:#FF156F;" d="M444,171.54H256V18.17C256,18.17,439.5,168.91,444,171.54z"/>
<polygon style="fill:#FFF8FE;" points="256,18.167 168.124,171.536 343.876,171.536 "/>
<polygon style="fill:#D9D9DB;" points="343.88,171.54 256,171.54 256,18.17 "/>
<rect x="40.782" y="164.23" style="fill:#3A4DE3;" width="430.44" height="38.599"/>
<rect x="256" y="164.23" style="fill:#1C2EDE;" width="215.22" height="38.6"/>
<rect x="121.26" y="418.33" style="fill:#3A4DE3;" width="269.48" height="34.814"/>
<rect x="256" y="418.33" style="fill:#1C2EDE;" width="134.74" height="34.82"/>
<g>
</g>
<g>
</g>
<g>
</g>
<g>
</g>
<g>
</g>
<g>
</g>
<g>
</g>
<g>
</g>
<g>
</g>
<g>
</g>
<g>
</g>
<g>
</g>
<g>
</g>
<g>
</g>
<g>
</g>
</svg>
