<svg id="Layer_1" enable-background="new 0 0 110 110" height="512" viewBox="0 0 110 110" width="512" xmlns="http://www.w3.org/2000/svg" xmlns:x="http://ns.adobe.com/Extensibility/1.0/" xmlns:i="http://ns.adobe.com/AdobeIllustrator/10.0/" xmlns:graph="http://ns.adobe.com/Graphs/1.0/"><path d="m49 38.396h12.001v47.717h-12.001z" fill="#dbd8dd"/><g fill="#ededed"><path d="m54.173 46.387h1.653v29.26h-1.653z"/><path d="m84.97 46.387h1.653v29.26h-1.653z"/><path d="m69.927 46.387h1.653v29.26h-1.653z"/><path d="m39.841 46.387h1.653v29.26h-1.653z"/><path d="m24.797 46.387h1.653v29.26h-1.653z"/></g><path d="m12.188652 44.516983v4.7705078c0 2.1494141 1.7424316 3.8916016 3.8919067 3.8916016s3.8919678-1.7421875 3.8919678-3.8916016c0 2.1494141 1.7424927 3.8916016 3.8919678 3.8916016s3.8919067-1.7421875 3.8919067-3.8916016c0 2.1494141 1.7424927 3.8916016 3.8919678 3.8916016s3.8919067-1.7421875 3.8919067-3.8916016c0 2.1494141 1.7424927 3.8916016 3.8919678 3.8916016s3.8919067-1.7421875 3.8919067-3.8916016c0 2.1494141 1.7424927 3.8916016 3.8919678 3.8916016h.000061c2.1494141 0 3.8919067-1.7421875 3.8919067-3.8916016 0 2.1494141 1.7424927 3.8916016 3.8919678 3.8916016 2.1494141 0 3.8919067-1.7421875 3.8919067-3.8916016 0 2.1494141 1.7424927 3.8916016 3.8919067 3.8916016 2.1494751 0 3.8919678-1.7421875 3.8919678-3.8916016 0 2.1494141 1.7424927 3.8916016 3.8919067 3.8916016 2.1494751 0 3.8919678-1.7421875 3.8919678-3.8916016 0 2.1494141 1.7424927 3.8916016 3.8919678 3.8916016s3.8919678-1.7421875 3.8919678-3.8916016c0 2.1494141 1.7424316 3.8916016 3.8919067 3.8916016s3.8919678-1.7421875 3.8919678-3.8916016c0 2.1494141 1.7424316 3.8916016 3.8919067 3.8916016s3.8919678-1.7421875 3.8919678-3.8916016v-4.7705078l-41.9848633-6.2956886z" fill="#fed35b"/><path d="m55.000042 17.2132359-42.8114357 27.3034114h85.6227569z" fill="#de594e"/><path d="m55.0000153 17.2132359-24.522089 27.3034114h49.044115z" fill="#ededed"/><path d="m54.9999962 17.2132359-9.0387955 27.3034114h18.0775643z" fill="#de594e"/><path d="m86.5314484 82.5007629h-63.2716408c-2.4182472 0-4.3786259 1.9602814-4.3786259 4.3785248v2.845787h72.0289459v-2.845787c-.0000019-2.4182434-1.9603824-4.3785248-4.3786792-4.3785248z" fill="#fed35b"/><path d="m93.6124191 87.6437607h-77.4335308c-1.4202185 0-2.571599 1.1512833-2.571599 2.571701 0 1.4200211 1.1513805 2.5713043 2.571599 2.5713043h77.4335327c1.4202194 0 2.5715485-1.1512833 2.5715485-2.5713043-.0000019-1.4204178-1.151331-2.571701-2.5715504-2.571701z" fill="#e7a14e"/><path d="m85.796608 66.9860077c-2.8184357 0-5.1032562 2.2847519-5.1032562 5.1031265 0 2.8183823 2.2848206 5.1036453 5.1032562 5.1036453 2.8184433 0 5.1032639-2.2852631 5.1032639-5.1036453-.0000001-2.8183746-2.2848206-5.1031265-5.1032639-5.1031265z" fill="#4abba4"/><path d="m70.7534409 66.9860077c-2.8184433 0-5.1032562 2.2847519-5.1032562 5.1031265 0 2.8183823 2.2848129 5.1036453 5.1032562 5.1036453s5.1032562-2.2852631 5.1032562-5.1036453c0-2.8183746-2.2848129-5.1031265-5.1032562-5.1031265z" fill="#de594e"/><path d="m54.9999847 66.9860077c-2.8184433 0-5.10326 2.2847519-5.10326 5.1031265 0 2.8183823 2.2848167 5.1036453 5.10326 5.1036453 2.8184395 0 5.1032562-2.2852631 5.1032562-5.1036453.0000001-2.8183746-2.2848167-5.1031265-5.1032562-5.1031265z" fill="#4da0dc"/><path d="m40.6671066 66.9860077c-2.8184433 0-5.10326 2.2847519-5.10326 5.1031265 0 2.8183823 2.2848167 5.1036453 5.10326 5.1036453s5.1032562-2.2852631 5.1032562-5.1036453c.0000001-2.8183746-2.2848129-5.1031265-5.1032562-5.1031265z" fill="#4abba4"/><path d="m25.6239376 66.9860077c-2.8184414 0-5.1032581 2.2847519-5.1032581 5.1031265 0 2.8183823 2.2848167 5.1036453 5.1032581 5.1036453s5.1032581-2.2852631 5.1032581-5.1036453c0-2.8183746-2.2848148-5.1031265-5.1032581-5.1031265z" fill="#feda6f"/></svg>