<svg enable-background="new 0 0 58 58" height="512" viewBox="0 0 58 58" width="512" xmlns="http://www.w3.org/2000/svg"><path d="m54.75 58h-51.5c-1.795 0-3.25-1.455-3.25-3.25v-43.75h58v43.75c0 1.795-1.455 3.25-3.25 3.25z" fill="#e7eced"/><path d="m6 25h46v14h-46z" fill="#ebba16"/><path d="m58 12h-58v-8.75c0-1.795 1.455-3.25 3.25-3.25h51.5c1.795 0 3.25 1.455 3.25 3.25z" fill="#556080"/><path d="m4 4h4v4h-4z" fill="#dd352e"/><path d="m12 4h4v4h-4z" fill="#ebba16"/><path d="m20 4h4v4h-4z" fill="#23a24d"/><path d="m12 55h-6c-.552 0-1-.447-1-1s.448-1 1-1h6c.552 0 1 .447 1 1s-.448 1-1 1z" fill="#dd352e"/><path d="m6 44h6v6h-6z" fill="#23a24d"/><path d="m52 55h-6c-.552 0-1-.447-1-1s.448-1 1-1h6c.552 0 1 .447 1 1s-.448 1-1 1z" fill="#cb465f"/><path d="m46 44h6v6h-6z" fill="#366db6"/><path d="m39 55h-6c-.552 0-1-.447-1-1s.448-1 1-1h6c.552 0 1 .447 1 1s-.448 1-1 1z" fill="#366db6"/><path d="m33 44h6v6h-6z" fill="#cb465f"/><path d="m25 55h-6c-.552 0-1-.447-1-1s.448-1 1-1h6c.552 0 1 .447 1 1s-.448 1-1 1z" fill="#ebba16"/><path d="m19 44h6v6h-6z" fill="#dc691d"/><path d="m22 29h14v6h-14z" fill="#fff"/><g fill="#dd352e"><path d="m13 36c-.256 0-.512-.098-.707-.293l-3-3c-.391-.391-.391-1.023 0-1.414l3-3c.39-.391 1.024-.391 1.414 0 .391.391.391 1.023 0 1.414l-2.293 2.293 2.293 2.293c.391.391.391 1.023 0 1.414-.195.195-.451.293-.707.293z"/><path d="m45 36c-.256 0-.512-.098-.707-.293-.391-.391-.391-1.023 0-1.414l2.293-2.293-2.293-2.293c-.391-.391-.391-1.023 0-1.414.39-.391 1.024-.391 1.414 0l3 3c.391.391.391 1.023 0 1.414l-3 3c-.195.195-.451.293-.707.293z"/><path d="m45 17h-39c-.552 0-1-.447-1-1s.448-1 1-1h39c.552 0 1 .447 1 1s-.448 1-1 1z"/></g><path d="m52 17h-3c-.552 0-1-.447-1-1s.448-1 1-1h3c.552 0 1 .447 1 1s-.448 1-1 1z" fill="#23a24d"/><path d="m52 21h-39c-.552 0-1-.447-1-1s.448-1 1-1h39c.552 0 1 .447 1 1s-.448 1-1 1z" fill="#dc691d"/><path d="m9 21h-3c-.552 0-1-.447-1-1s.448-1 1-1h3c.552 0 1 .447 1 1s-.448 1-1 1z" fill="#366db6"/></svg>