<svg id="Layer_1" enable-background="new 0 0 140 140" height="512" viewBox="0 0 140 140" width="512" xmlns="http://www.w3.org/2000/svg" xmlns:x="http://ns.adobe.com/Extensibility/1.0/" xmlns:i="http://ns.adobe.com/AdobeIllustrator/10.0/" xmlns:graph="http://ns.adobe.com/Graphs/1.0/"><path d="m134 70c0 .9003906-.0199585 1.7900391-.0599976 2.6801758-1.3999633 34.1098633-29.4899902 61.3198242-63.9400024 61.3198242-2.0199585 0-4.0100098-.0898438-5.9799805-.2797852-32.539978-3.0102539-58.0200195-30.3901367-58.0200195-63.7202148 0-35.3398438 28.6600342-64 64-64 35.3500366 0 64 28.6601562 64 64z" fill="#344d5b"/><path d="m133.9400024 72.6801758c-1.3999633 34.1098633-29.4899902 61.3198242-63.9400024 61.3198242-2.0199585 0-4.0100098-.0898438-5.9799805-.2797852l-34.5700073-34.5698242c-.5200195-.4702148-.8399658-1.1503906-.8399658-1.9003906 0-1.4199219 1.1499634-2.5698242 2.5699463-2.5698242h2.7000122v-.7700195c0-2.4199219 1.960022-4.3798828 4.3800049-4.3798828h5.5700073l-6.6500244-6.6499023c-1.0199585-.9301758-1.6599731-2.2700195-1.6599731-3.7602539 0-2.5297852 1.8599854-4.6201172 4.2799683-5.0200195v-3.5898438l-11.1899415-11.1899415-.5200195-.5200195c-.5599976-.6699219-.9000244-1.5400391-.9000244-2.4799805v-4.7700195l42.8099975-27.300293 42.8099976 27.300293z" opacity=".1"/><path d="m64.003 45.428h12.001v47.717h-12.001z" fill="#dbd8dd"/><g fill="#ededed"><path d="m69.177 53.419h1.653v29.26h-1.653z"/><path d="m99.973 53.419h1.653v29.26h-1.653z"/><path d="m84.93 53.419h1.653v29.26h-1.653z"/><path d="m54.844 53.419h1.653v29.26h-1.653z"/><path d="m39.801 53.419h1.653v29.26h-1.653z"/></g><path d="m27.1920166 51.5493164v4.7705078c0 2.1494141 1.7424316 3.8916016 3.8919067 3.8916016s3.8919678-1.7421875 3.8919678-3.8916016c0 2.1494141 1.7424927 3.8916016 3.8919678 3.8916016s3.8919067-1.7421875 3.8919067-3.8916016c0 2.1494141 1.7424927 3.8916016 3.8919678 3.8916016s3.8919067-1.7421875 3.8919067-3.8916016c0 2.1494141 1.7424927 3.8916016 3.8919678 3.8916016s3.8919067-1.7421875 3.8919067-3.8916016c0 2.1494141 1.7424927 3.8916016 3.8919678 3.8916016h.000061c2.1494141 0 3.8919067-1.7421875 3.8919067-3.8916016 0 2.1494141 1.7424927 3.8916016 3.8919678 3.8916016 2.1494141 0 3.8919067-1.7421875 3.8919067-3.8916016 0 2.1494141 1.7424927 3.8916016 3.8919067 3.8916016 2.1494751 0 3.8919678-1.7421875 3.8919678-3.8916016 0 2.1494141 1.7424927 3.8916016 3.8919067 3.8916016 2.1494751 0 3.8919678-1.7421875 3.8919678-3.8916016 0 2.1494141 1.7424927 3.8916016 3.8919678 3.8916016s3.8919678-1.7421875 3.8919678-3.8916016c0 2.1494141 1.7424316 3.8916016 3.8919067 3.8916016s3.8919678-1.7421875 3.8919678-3.8916016c0 2.1494141 1.7424316 3.8916016 3.8919067 3.8916016s3.8919678-1.7421875 3.8919678-3.8916016v-4.7705078l-41.9848632-6.2956886z" fill="#fed35b"/><path d="m70.0034103 24.2455692-42.8114395 27.3034115h85.622757z" fill="#de594e"/><path d="m70.0033798 24.2455692-24.5220909 27.3034115h49.044117z" fill="#ededed"/><path d="m70.0033646 24.2455692-9.0387993 27.3034115h18.0775642z" fill="#de594e"/><path d="m101.5348129 89.5330963h-63.2716408c-2.4182472 0-4.3786278 1.9602814-4.3786278 4.3785248v2.845787h72.0289459v-2.845787c.0000001-2.4182434-1.9603805-4.3785248-4.3786773-4.3785248z" fill="#fed35b"/><path d="m108.6157837 94.6760941h-77.4335289c-1.4202194 0-2.5716 1.1512833-2.5716 2.571701 0 1.4200211 1.1513805 2.5713043 2.5716 2.5713043h77.4335327c1.4202194 0 2.5715485-1.1512833 2.5715485-2.5713043-.0000038-1.4204178-1.1513329-2.571701-2.5715523-2.571701z" fill="#e7a14e"/><path d="m100.7999725 74.0183411c-2.8184357 0-5.1032562 2.2847519-5.1032562 5.1031265 0 2.8183823 2.2848206 5.1036453 5.1032562 5.1036453 2.8184433 0 5.1032639-2.2852631 5.1032639-5.1036453 0-2.8183746-2.2848206-5.1031265-5.1032639-5.1031265z" fill="#4abba4"/><path d="m85.7568054 74.0183411c-2.8184433 0-5.1032562 2.2847519-5.1032562 5.1031265 0 2.8183823 2.2848129 5.1036453 5.1032562 5.1036453s5.1032639-2.2852631 5.1032639-5.1036453c0-2.8183746-2.2848206-5.1031265-5.1032639-5.1031265z" fill="#de594e"/><path d="m70.0033493 74.0183411c-2.8184433 0-5.1032562 2.2847519-5.1032562 5.1031265 0 2.8183823 2.2848129 5.1036453 5.1032562 5.1036453s5.1032562-2.2852631 5.1032562-5.1036453c0-2.8183746-2.2848129-5.1031265-5.1032562-5.1031265z" fill="#4da0dc"/><path d="m55.6704712 74.0183411c-2.8184433 0-5.10326 2.2847519-5.10326 5.1031265 0 2.8183823 2.2848167 5.1036453 5.10326 5.1036453s5.1032562-2.2852631 5.1032562-5.1036453c0-2.8183746-2.2848129-5.1031265-5.1032562-5.1031265z" fill="#4abba4"/><path d="m40.6273041 74.0183411c-2.8184433 0-5.10326 2.2847519-5.10326 5.1031265 0 2.8183823 2.2848167 5.1036453 5.10326 5.1036453 2.8184395 0 5.1032562-2.2852631 5.1032562-5.1036453 0-2.8183746-2.2848167-5.1031265-5.1032562-5.1031265z" fill="#feda6f"/></svg>