<svg id="Capa_1" enable-background="new 0 0 512 512" height="512" viewBox="0 0 512 512" width="512" xmlns="http://www.w3.org/2000/svg"><path d="m81.27 243.81h16.254v113.778h-16.254z" fill="#fff0af"/><path d="m89.397 381.968c15.491 0 29.518 6.21 39.777 16.254h.858v-32.508c0-4.488 3.639-8.127 8.127-8.127h17.628c5.491 0 8.241-6.639 4.358-10.521l-15.94-15.94c-4.728-4.728-11.935-6.212-18.017-3.434-13.774 6.292-21.413 21.768-36.792 21.768h-24.38c-8.977 0-9.016 7.277-9.016 16.254v12.286l-6.38 20.222c10.259-10.043 24.286-16.254 39.777-16.254z" fill="#ff8086"/><path d="m151.683 420.286c-8.135-27.349-33.746-46.444-62.286-46.444h-8.127c-8.977 0-16.254-7.277-16.254-16.254v-8.127h-24.381c-13.444 0-24.381 10.936-24.381 24.381 0 4.492 3.635 8.127 8.127 8.127s8.127-3.635 8.127-8.127c0-4.484 3.643-8.127 8.127-8.127h8.127v22.703c-10.042 8.083-17.825 19.007-21.651 31.869-1.286 4.302 1.167 8.825 5.468 10.103 4.216 1.279 8.621-1.053 10.008-5.168 2.922-8.669 6.722-17.173 13.853-22.902 31.373-25.205 70.459-8.354 79.671 22.602 1.048 3.532 4.278 5.81 7.786 5.81.762 0 1.548-.111 2.317-.341 4.302-1.28 6.754-5.804 5.469-10.105z" fill="#e5646e"/><path d="m414.476 243.81h16.254v113.778h-16.254z" fill="#fff0af"/><path d="m422.603 381.968c15.491 0 29.518 6.21 39.777 16.254h.858v-32.508c0-4.488 3.639-8.127 8.127-8.127h17.629c5.491 0 8.241-6.639 4.358-10.521l-15.94-15.94c-4.728-4.728-11.935-6.212-18.017-3.434-13.774 6.292-21.413 21.768-36.792 21.768h-24.381c-8.977 0-8.222 7.277-8.222 16.254v20.286l-7.174 12.222c10.259-10.043 24.286-16.254 39.777-16.254z" fill="#ff8086"/><path d="m484.889 420.286c-8.135-27.349-33.746-46.444-62.286-46.444h-8.127c-8.977 0-16.254-7.277-16.254-16.254v-8.127h-24.381c-13.444 0-24.381 10.936-24.381 24.381 0 4.492 3.635 8.127 8.127 8.127s8.127-3.635 8.127-8.127c0-4.484 3.643-8.127 8.127-8.127h8.127v22.703c-10.042 8.083-17.825 19.007-21.651 31.869-1.286 4.302 1.167 8.825 5.468 10.103 4.216 1.279 8.621-1.053 10.008-5.168 2.922-8.669 6.722-17.173 13.853-22.902 31.373-25.205 70.459-8.354 79.671 22.602 1.048 3.532 4.278 5.81 7.786 5.81.762 0 1.548-.111 2.317-.341 4.302-1.28 6.755-5.804 5.469-10.105z" fill="#e5646e"/><path d="m251.937 333.206h16.254v130.032h-16.254z" fill="#ffc250"/><path d="m260.064 16.254c-99.626 122.007-203.175 186.921-203.175 186.921v16.254h357.587l-31.476-16.254z" fill="#ff8086"/><path d="m260.064 16.254c47.82 122.007 97.524 186.921 97.524 186.921v16.254h105.651v-16.254c-.001 0-103.55-64.914-203.175-186.921z" fill="#f9eac7"/><path d="m260.064 16.254c-47.82 122.007-97.524 186.921-97.524 186.921v16.254h97.524z" fill="#f9eac7"/><path d="m463.238 455.111h-325.079c-4.488 0-8.127 3.639-8.127 8.127v40.635l341.333-24.381v-16.254c0-4.488-3.638-8.127-8.127-8.127z" fill="#ffd064"/><path d="m138.159 463.238v-8.127h-81.27c-4.488 0-8.127 3.639-8.127 8.127v40.635h422.603v-24.381h-316.952c-8.977 0-16.254-7.277-16.254-16.254z" fill="#ffc250"/><circle cx="260.064" cy="16.254" fill="#ffd064" r="16.254"/><path d="m251.937 243.81h16.254v73.143h-16.254z" fill="#fff0af"/><path d="m260.064 341.333c15.491 0 29.518 6.21 39.777 16.254h.858v-32.508c0-4.488 3.639-8.127 8.127-8.127h17.628c5.491 0 8.241-6.639 4.358-10.521l-15.94-15.94c-4.728-4.728-11.935-6.212-18.017-3.434-13.774 6.292-21.413 21.768-36.792 21.768h-24.381c-8.977 0-8.016 10.531-8.016 19.508v14.333l-7.38 14.921c10.26-10.043 24.286-16.254 39.778-16.254z" fill="#ff8086"/><path d="m487.619 512h-455.111c-4.492 0-8.127-3.635-8.127-8.127s3.635-8.127 8.127-8.127h455.111c4.492 0 8.127 3.635 8.127 8.127s-3.635 8.127-8.127 8.127z" fill="#c8c5c9"/><path d="m471.365 203.175h-333.206c-4.489 0-8.127 3.638-8.127 8.127v24.381c0 4.488 3.638 8.127 8.127 8.127h333.206c4.489 0 8.127-3.639 8.127-8.127v-24.381c0-4.489-3.638-8.127-8.127-8.127z" fill="#ffd064"/><path d="m154.413 235.683c-8.977 0-16.254-7.277-16.254-16.254v-16.254h-89.397c-4.488 0-8.127 3.639-8.127 8.127v32.508c0 4.488 3.639 8.127 8.127 8.127h422.603c4.488 0 8.127-3.639 8.127-8.127v-8.127z" fill="#ffc250"/><path d="m322.349 379.651c-8.135-27.349-33.746-46.444-62.286-46.444h-8.127c-8.977 0-16.254-7.277-16.254-16.254v-8.127h-24.381c-13.444 0-24.381 10.936-24.381 24.381 0 4.492 3.635 8.127 8.127 8.127s8.127-3.635 8.127-8.127c0-4.484 3.643-8.127 8.127-8.127h8.127v22.703c-10.042 8.083-17.825 19.007-21.651 31.869-1.286 4.302 1.167 8.825 5.468 10.103 4.216 1.279 8.621-1.053 10.008-5.168 2.922-8.669 6.722-17.173 13.853-22.902 31.373-25.205 70.459-8.354 79.671 22.602 1.048 3.532 4.278 5.81 7.786 5.81.762 0 1.548-.111 2.317-.341 4.303-1.28 6.755-5.804 5.469-10.105z" fill="#e5646e"/></svg>