<svg height="512pt" viewBox="0 0 512 512.00025" width="512pt" xmlns="http://www.w3.org/2000/svg"><path d="m462 462c-8.03125 0-251.554688 0-360.449219 0-13.347656 6.480469-22.550781 20.167969-22.550781 36h422.800781c-2.007812-20.210938-19.0625-36-39.800781-36zm0 0" fill="#c3ea21"/><g fill="#ffda2d"><path d="m491 352c0 16.570312-13.429688 30-30 30s-30-13.429688-30-30c0-16.566406 13.429688-30 30-30s30 13.433594 30 30zm0 0"/><path d="m366 157v20c0 16.695312 10.808594 31 25.621094 36.992188 16.210937-5.257813 28.378906-20.277344 28.378906-37.992188v-19zm0 0"/><path d="m368 372c0 16.570312-13.429688 30-30 30s-30-13.429688-30-30c0-16.566406 13.429688-30 30-30s30 13.433594 30 30zm0 0"/></g><path d="m312.589844 462h-113.179688c8.238282-23.300781 30.46875-40 56.589844-40s48.351562 16.699219 56.589844 40zm0 0" fill="#7c8388"/><path d="m230 213.136719c15.007812-5.898438 26-20.296875 26-37.136719v-20h-52v20c0 16.839844 10.992188 31.238281 26 37.136719zm0 0" fill="#ffda2d"/><path d="m204 372c0 16.570312-13.429688 30-30 30s-30-13.429688-30-30c0-16.566406 13.429688-30 30-30s30 13.433594 30 30zm0 0" fill="#ffda2d"/><path d="m59.804688 156h32.195312v7h33v20c0 13.113281 6.664062 24.757812 16.703125 32.050781 18.132813-3.957031 32.296875-19.933593 32.296875-39.050781v-20h82v7h33v20c0 13.113281 6.664062 24.757812 16.703125 32.050781 18.132813-3.957031 32.296875-19.933593 32.296875-39.050781v-20h82v7h33v20c0 13.113281 6.664062 24.757812 16.703125 32.050781 18.132813-3.957031 32.296875-19.933593 32.296875-39.050781v-20c-5.5-2.648438-111.339844-32.871094-225.335938-128.09375-74.625 64.765625-132.84375 92.894531-216.859374 128.09375zm0 0" fill="#ff641a"/><path d="m92 158h-53v20c0 16.03125 9.964844 29.855469 23.871094 36.234375 16.585937-5.027344 29.128906-20.242187 29.128906-38.234375zm0 0" fill="#ffda2d"/><path d="m81 352c0 16.570312-13.429688 30-30 30s-30-13.429688-30-30c0-16.566406 13.429688-30 30-30s30 13.433594 30 30zm0 0" fill="#ffda2d"/><path d="m505.363281 146.582031c-6.710937-3.179687-122.703125-36.035156-242.671875-144.015625-3.804687-3.421875-9.578125-3.421875-13.382812 0-119.804688 107.832032-236.910156 141.253906-242.671875 144.015625-3.863281 1.378907-6.6289065 5.109375-6.63281275 9.394531-.00390625.007813-.00390625.015626-.00390625.023438v20c0 24.441406 18.207031 44.484375 41 49.015625v88.25c-17.234375 4.453125-30 20.128906-30 38.734375 0 22.054688 17.945312 40 40 40s40-17.945312 40-40c0-18.605469-12.765625-34.28125-30-38.734375v-88.25c12.527344-2.492187 23.484375-9.578125 31-19.480469 9.679688 12.75 24.699219 20.464844 41 20.464844 11.277344 0 22.074219-3.691406 31-10.480469v117.746094c-17.234375 4.453125-30 20.128906-30 38.734375 0 22.054688 17.945312 40 40 40s40-17.945312 40-40c0-18.605469-12.765625-34.28125-30-38.734375v-117.746094c8.925781 6.789063 19.722656 10.480469 31 10.480469s22.074219-3.691406 31-10.480469v197.210938c-23.097656 3.339843-43.195312 18.089843-53.25 39.269531h-142.75c-27.570312 0-50 22.429688-50 50 0 5.523438 4.476562 10 10 10h201c5.523438 0 10-4.476562 10-10s-4.476562-10-10-10h-189.285156c4.125-11.640625 15.246094-20 28.285156-20h412c13.039062 0 24.160156 8.359375 28.289062 20h-189.289062c-5.523438 0-10 4.476562-10 10s4.476562 10 10 10h201c5.523438 0 10-4.476562 10-10 0-27.570312-22.429688-50-50-50h-142.746094c-10.058594-21.179688-30.15625-35.929688-53.253906-39.269531v-197.210938c8.925781 6.789063 19.722656 10.480469 31 10.480469s22.074219-3.691406 31-10.480469v117.746094c-17.234375 4.453125-30 20.128906-30 38.734375 0 22.054688 17.945312 40 40 40s40-17.945312 40-40c0-18.605469-12.765625-34.28125-30-38.734375v-117.746094c8.925781 6.789063 19.722656 10.480469 31 10.480469 16.335938 0 31.347656-7.746094 41-20.464844 7.507812 9.890625 18.460938 16.988282 31 19.480469v88.25c-17.234375 4.453125-30 20.128906-30 38.734375 0 22.054688 17.945312 40 40 40s40-17.945312 40-40c0-18.605469-12.765625-34.28125-30-38.734375v-88.25c22.75-4.523437 41-24.535156 41-49.015625v-20c0-.007812 0-.015625 0-.023438-.007812-4.285156-2.761719-8.011718-6.636719-9.394531zm-249.363281-123.203125c57.96875 50.90625 124.855469 93.492188 192.207031 122.621094h-384.417969c66.683594-28.863281 134.28125-71.757812 192.210938-122.621094zm-185 328.621094c0 11.027344-8.972656 20-20 20s-20-8.972656-20-20 8.972656-20 20-20 20 8.972656 20 20zm-20-146c-16.804688 0-31-13.738281-31-30v-10h62v10c0 16.261719-14.195312 30-31 30zm82 0c-16.804688 0-31-13.738281-31-30v-10h62v10c0 16.261719-14.195312 30-31 30zm61 166c0 11.027344-8.972656 20-20 20s-20-8.972656-20-20 8.972656-20 20-20 20 8.972656 20 20zm21-166c-16.804688 0-31-13.738281-31-30v-10h62v10c0 16.261719-14.195312 30-31 30zm81.003906 246h-80.007812c9.285156-12.34375 24.011718-20 40.003906-20s30.71875 7.65625 40.003906 20zm.996094-246c-16.804688 0-31-13.738281-31-30v-10h62v10c0 16.261719-14.195312 30-31 30zm61 166c0 11.027344-8.972656 20-20 20s-20-8.972656-20-20 8.972656-20 20-20 20 8.972656 20 20zm21-166c-16.804688 0-31-13.738281-31-30v-10h62v10c0 16.261719-14.195312 30-31 30zm102 146c0 11.027344-8.972656 20-20 20s-20-8.972656-20-20 8.972656-20 20-20 20 8.972656 20 20zm-20-146c-16.804688 0-31-13.738281-31-30v-10h62v10c0 16.261719-14.195312 30-31 30zm0 0"/><path d="m266 502c0 5.523438-4.476562 10-10 10s-10-4.476562-10-10 4.476562-10 10-10 10 4.476562 10 10zm0 0"/></svg>