<?xml version="1.0" encoding="iso-8859-1"?>
<!-- Generator: Adobe Illustrator 19.0.0, SVG Export Plug-In . SVG Version: 6.00 Build 0)  -->
<svg version="1.1" id="Capa_1" xmlns="http://www.w3.org/2000/svg" xmlns:xlink="http://www.w3.org/1999/xlink" x="0px" y="0px"
	 viewBox="0 0 512 512" style="enable-background:new 0 0 512 512;" xml:space="preserve">
<path style="fill:#E0E0E0;" d="M487.767,342.467H384.731c-1.312,0-2.603,0.345-3.74,0.999L157.796,471.964
	c-2.324,1.338-3.756,3.815-3.756,6.497v8.806c0,5.095-4.144,9.239-9.238,9.24c-4.14,0-7.495,3.356-7.495,7.496
	c0,4.141,3.356,7.496,7.496,7.496h342.965c13.362,0,24.233-10.87,24.233-24.233V366.701C512,353.338,501.13,342.467,487.767,342.467
	z"/>
<path style="fill:#C6C5CA;" d="M487.767,479.945H154.04v7.32c0,5.095-4.144,9.239-9.238,9.24c-4.14,0-7.495,3.356-7.495,7.496
	c0,4.141,3.356,7.496,7.496,7.496h342.965c13.362,0,24.233-10.87,24.233-24.233v-31.553C512,469.075,501.13,479.945,487.767,479.945
	z"/>
<g>
	<path style="fill:#00B76C;" d="M475.865,376.547h-75.401c-4.141,0-7.496,3.355-7.496,7.496v88.407c0,4.141,3.355,7.496,7.496,7.496
		h75.401c4.141,0,7.496-3.355,7.496-7.496v-88.407C483.361,379.903,480.005,376.547,475.865,376.547z"/>
	<path style="fill:#00B76C;" d="M366.241,376.547h-40.704c-1.312,0-2.603,0.345-3.74,0.999l-34.698,19.976
		c-2.324,1.338-3.756,3.815-3.756,6.497v68.431c0,4.141,3.355,7.496,7.496,7.496h75.401c4.141,0,7.496-3.355,7.496-7.496v-88.407
		C373.737,379.903,370.381,376.547,366.241,376.547z"/>
	<path style="fill:#00B76C;" d="M260.368,417.232c-2.317-1.338-5.173-1.343-7.492-0.007l-75.401,43.411
		c-2.324,1.338-3.756,3.815-3.756,6.497v5.317c0,4.141,3.355,7.496,7.496,7.496h75.401c4.141,0,7.496-3.355,7.496-7.496v-48.728
		C264.112,421.046,262.685,418.572,260.368,417.232z"/>
</g>
<path style="fill:#E0E0E0;" d="M491.088,269.421l-60.155-104.488c-6.667-11.579-21.512-15.576-33.091-8.91l-103.464,59.566
	c-1.127,0.649-2.066,1.581-2.726,2.703L155.07,451.064c-0.675,1.15-1.03,2.461-1.03,3.794v23.602c0,2.677,1.427,5.149,3.744,6.49
	c1.16,0.671,2.456,1.006,3.752,1.006c1.291,0,2.583-0.333,3.74-0.999l316.9-182.445c5.609-3.23,9.626-8.451,11.308-14.7
	C495.169,281.561,494.317,275.03,491.088,269.421z"/>
<path style="fill:#C6C5CA;" d="M157.784,484.95c1.16,0.671,2.456,1.006,3.752,1.006c1.291,0,2.583-0.333,3.74-0.999l316.9-182.445
	c5.609-3.23,9.626-8.451,11.308-14.7c1.683-6.25,0.832-12.781-2.398-18.391l-3.49-6.063
	c-55.427,31.699-229.812,131.414-333.504,190.706c-0.028,0.264-0.053,0.529-0.053,0.796v23.602
	C154.04,481.137,155.467,483.61,157.784,484.95z"/>
<g>
	<path style="fill:#FF434D;" d="M452.782,274.327l-44.006-76.676c-2.062-3.592-6.644-4.832-10.233-2.77l-65.397,37.534
		c-1.724,0.989-2.984,2.624-3.504,4.543c-0.52,1.919-0.256,3.966,0.734,5.69l44.007,76.676c1.386,2.415,3.911,3.765,6.509,3.765
		c1.266,0,2.549-0.32,3.725-0.995l65.396-37.534C453.603,282.5,454.842,277.917,452.782,274.327z"/>
	<path style="fill:#FF434D;" d="M357.704,328.895l-44.006-76.676c-0.99-1.725-2.624-2.984-4.543-3.504
		c-1.919-0.521-3.966-0.255-5.69,0.734l-43.65,25.052c-1.131,0.649-2.073,1.583-2.734,2.708l-14.616,24.907
		c-1.361,2.32-1.375,5.192-0.036,7.525l36.876,64.249c1.386,2.415,3.911,3.766,6.509,3.766c1.266,0,2.549-0.32,3.725-0.995
		l65.396-37.534C358.525,337.068,359.764,332.486,357.704,328.895z"/>
	<path style="fill:#FF434D;" d="M262.626,383.464l-27.14-47.287c-1.33-2.317-3.794-3.752-6.466-3.765c-0.013,0-0.024,0-0.036,0
		c-2.659,0-5.119,1.408-6.466,3.702l-43.949,74.901c-1.361,2.32-1.375,5.192-0.036,7.525l5.693,9.92
		c1.386,2.415,3.911,3.766,6.509,3.766c1.266,0,2.549-0.32,3.725-0.995l65.396-37.534c1.725-0.989,2.984-2.624,3.504-4.543
		C263.879,387.236,263.616,385.189,262.626,383.464z"/>
</g>
<path style="fill:#E0E0E0;" d="M367.549,104.538c-1.631-6.264-5.604-11.516-11.186-14.792L252.375,28.73
	c-11.524-6.763-26.401-2.888-33.165,8.637L155.07,146.68c-0.675,1.15-1.03,2.461-1.03,3.794v304.385c0,3.383,2.266,6.347,5.53,7.233
	c0.653,0.178,1.313,0.264,1.966,0.264c2.611,0,5.096-1.369,6.466-3.703L365,122.909C368.276,117.326,369.18,110.801,367.549,104.538
	z"/>
<path style="fill:#C6C5CA;" d="M367.549,104.538c-1.631-6.264-5.604-11.516-11.186-14.792l-12.716-7.461
	c0.952,5.606-0.082,11.313-2.994,16.277L154.04,416.603v38.255c0,3.383,2.266,6.347,5.53,7.233c0.653,0.178,1.313,0.264,1.966,0.264
	c2.611,0,5.096-1.369,6.466-3.703L365,122.909C368.276,117.326,369.18,110.801,367.549,104.538z"/>
<g>
	<path style="fill:#FF6137;" d="M324.658,112.522l-76.143-44.921c-1.712-1.01-3.756-1.299-5.681-0.803
		c-1.925,0.497-3.574,1.737-4.585,3.45l-38.313,64.943c-2.104,3.565-0.919,8.161,2.648,10.266l76.143,44.922
		c1.163,0.686,2.481,1.039,3.809,1.039c0.627,0,1.255-0.078,1.872-0.237c1.925-0.497,3.574-1.737,4.585-3.45l38.313-64.944
		C329.41,119.222,328.225,114.627,324.658,112.522z"/>
	<path style="fill:#FF6137;" d="M268.956,206.941l-76.143-44.921c-3.561-2.101-8.16-0.919-10.265,2.648l-27.468,46.559
		c-0.681,1.153-1.039,2.469-1.039,3.809v24.781c0,2.653,1.402,5.108,3.687,6.457l65.297,38.523c1.163,0.687,2.48,1.039,3.809,1.039
		c0.627,0,1.255-0.078,1.872-0.237c1.925-0.497,3.574-1.737,4.585-3.45l38.313-64.943
		C273.707,213.64,272.522,209.045,268.956,206.941z"/>
	<path style="fill:#FF6137;" d="M216.703,305.943c-0.497-1.925-1.737-3.574-3.45-4.585l-47.908-28.263
		c-2.316-1.367-5.188-1.386-7.526-0.053c-2.337,1.334-3.778,3.818-3.778,6.51v87.546c0,2.653,1.402,5.108,3.687,6.457l9.595,5.66
		c1.195,0.706,2.507,1.04,3.802,1.04c2.565,0,5.064-1.318,6.464-3.688l38.313-64.943
		C216.912,309.912,217.199,307.868,216.703,305.943z"/>
</g>
<path style="fill:#E0E0E0;" d="M146.544,0.5H22.488C10.089,0.5,0,10.589,0,22.988v466.024c0,12.4,10.089,22.488,22.488,22.488
	h124.055c12.4,0,22.488-10.089,22.488-22.488V22.988C169.032,10.589,158.943,0.5,146.544,0.5z M106.276,433.93
	c0,12.018-9.742,21.76-21.76,21.76c-12.017,0-21.76-9.742-21.76-21.76c0-12.018,9.742-21.76,21.76-21.76
	C96.534,412.17,106.276,421.912,106.276,433.93z"/>
<path style="fill:#C6C5CA;" d="M146.544,0.5h-32.196c12.4,0,22.488,10.089,22.488,22.488v466.024
	c0,12.4-10.089,22.488-22.488,22.488h32.196c12.4,0,22.488-10.089,22.488-22.488V22.988C169.032,10.589,158.943,0.5,146.544,0.5z"/>
<g>
	<path style="fill:#FFD039;" d="M129.407,35.086H41c-4.141,0-7.496,3.355-7.496,7.496v75.401c0,4.141,3.355,7.496,7.496,7.496
		h88.407c4.141,0,7.496-3.355,7.496-7.496V42.582C136.903,38.441,133.546,35.086,129.407,35.086z"/>
	<path style="fill:#FFD039;" d="M129.407,144.71H41c-4.141,0-7.496,3.355-7.496,7.496v75.401c0,4.141,3.355,7.496,7.496,7.496
		h88.407c4.141,0,7.496-3.355,7.496-7.496v-75.401C136.903,148.066,133.546,144.71,129.407,144.71z"/>
	<path style="fill:#FFD039;" d="M129.407,254.335H41c-4.141,0-7.496,3.355-7.496,7.496v75.4c0,4.141,3.355,7.496,7.496,7.496h88.407
		c4.141,0,7.496-3.355,7.496-7.496v-75.4C136.903,257.691,133.546,254.335,129.407,254.335z"/>
</g>
<g>
</g>
<g>
</g>
<g>
</g>
<g>
</g>
<g>
</g>
<g>
</g>
<g>
</g>
<g>
</g>
<g>
</g>
<g>
</g>
<g>
</g>
<g>
</g>
<g>
</g>
<g>
</g>
<g>
</g>
</svg>
