<?xml version="1.0" encoding="iso-8859-1"?>
<!-- Generator: Adobe Illustrator 19.0.0, SVG Export Plug-In . SVG Version: 6.00 Build 0)  -->
<svg version="1.1" id="Capa_1" xmlns="http://www.w3.org/2000/svg" xmlns:xlink="http://www.w3.org/1999/xlink" x="0px" y="0px"
	 viewBox="0 0 512 512" style="enable-background:new 0 0 512 512;" xml:space="preserve">
<g>
	<path style="fill:#3A4D51;" d="M442.879,76.764c-1.922,0-3.845-0.734-5.31-2.203c-2.927-2.933-2.921-7.683,0.012-10.609
		L499.2,2.469c2.933-2.927,7.683-2.921,10.608,0.012c2.927,2.933,2.921,7.683-0.012,10.608l-61.62,61.482
		C446.713,76.033,444.796,76.764,442.879,76.764z"/>
	<path style="fill:#3A4D51;" d="M118.936,399.979c-1.922,0-3.845-0.734-5.31-2.203c-2.927-2.933-2.921-7.683,0.012-10.608
		L387.02,114.399c2.933-2.926,7.683-2.922,10.609,0.012c2.927,2.933,2.921,7.683-0.012,10.608L124.234,397.787
		C122.771,399.249,120.854,399.979,118.936,399.979z"/>
	<path style="fill:#3A4D51;" d="M7.502,511.163c-1.922,0-3.845-0.734-5.31-2.203c-2.927-2.933-2.922-7.683,0.012-10.609
		l60.874-60.737c2.933-2.926,7.683-2.921,10.608,0.012c2.927,2.933,2.922,7.683-0.012,10.609L12.8,508.972
		C11.336,510.433,9.418,511.163,7.502,511.163z"/>
</g>
<g>
	<path style="fill:#DD3646;" d="M68.458,61.829h-60.4c-4.143,0-7.502,3.359-7.502,7.502v50.505c0,4.143,3.359,7.502,7.502,7.502
		h60.4c4.143,0,7.502-3.359,7.502-7.502V69.331C75.959,65.188,72.6,61.829,68.458,61.829z"/>
	<path style="fill:#DD3646;" d="M442.948,61.829H118.961c-4.143,0-7.502,3.359-7.502,7.502v50.505c0,4.143,3.359,7.502,7.502,7.502
		h265.98v265.165c0,4.143,3.359,7.502,7.502,7.502h50.505c4.143,0,7.502-3.359,7.502-7.502V69.331
		C450.449,65.188,447.09,61.829,442.948,61.829z"/>
	<path style="fill:#DD3646;" d="M442.948,435.504h-50.505c-4.143,0-7.502,3.359-7.502,7.502v61.215c0,4.143,3.359,7.502,7.502,7.502
		h50.505c4.143,0,7.502-3.359,7.502-7.502v-61.215C450.449,438.863,447.09,435.504,442.948,435.504z"/>
</g>
<g>
	<path style="fill:#931F25;" d="M111.46,69.331v50.505c0,4.143,3.359,7.502,7.502,7.502h24.98V61.829h-24.98
		C114.818,61.829,111.46,65.188,111.46,69.331z"/>
	<path style="fill:#931F25;" d="M68.458,61.829h-24.98v65.508h24.98c4.143,0,7.502-3.359,7.502-7.502V69.331
		C75.959,65.188,72.6,61.829,68.458,61.829z"/>
	<path style="fill:#931F25;" d="M384.941,367.497v25.005c0,4.143,3.359,7.502,7.502,7.502h50.505c4.143,0,7.502-3.359,7.502-7.502
		v-25.005H384.941z"/>
	<path style="fill:#931F25;" d="M442.948,435.504h-50.505c-4.143,0-7.502,3.359-7.502,7.502v24.98h65.508v-24.98
		C450.449,438.863,447.09,435.504,442.948,435.504z"/>
</g>
<path style="fill:#FF434D;" d="M503.347,385.001H126.463V8.116c0-4.143-3.359-7.502-7.502-7.502H68.458
	c-4.143,0-7.502,3.359-7.502,7.502v434.89c0,4.143,3.359,7.502,7.502,7.502h434.89c4.143,0,7.502-3.359,7.502-7.502v-50.505
	C510.849,388.359,507.49,385.001,503.347,385.001z"/>
<g>
</g>
<g>
</g>
<g>
</g>
<g>
</g>
<g>
</g>
<g>
</g>
<g>
</g>
<g>
</g>
<g>
</g>
<g>
</g>
<g>
</g>
<g>
</g>
<g>
</g>
<g>
</g>
<g>
</g>
</svg>
