<?xml version="1.0" encoding="iso-8859-1"?>
<!-- Generator: Adobe Illustrator 21.0.0, SVG Export Plug-In . SVG Version: 6.00 Build 0)  -->
<svg version="1.1" id="Capa_1" xmlns="http://www.w3.org/2000/svg" xmlns:xlink="http://www.w3.org/1999/xlink" x="0px" y="0px"
	 viewBox="0 0 512 512" style="enable-background:new 0 0 512 512;" xml:space="preserve">
<path style="fill:#EBEBEB;" d="M238.123,191.446L54.359,375.223c-10.727,10.713-16.525,25.471-15.695,40.603
	c0.415,7.66-0.803,15.226-3.509,22.23c-2.665,6.95-6.776,13.352-12.16,18.735L6.82,472.968c-8.758,8.771-9.227,23.114-0.549,31.952
	c4.392,4.473,10.191,6.709,15.99,6.696c5.732,0,11.463-2.183,15.842-6.549l16.579-16.592c10.767-10.767,25.591-16.458,40.791-15.668
	c7.593,0.389,15.106-0.843,22.056-3.522c6.95-2.665,13.351-6.776,18.735-12.159l183.777-183.777L238.123,191.446z"/>
<path style="fill:#CCCCCC;" d="M23.597,487.795c-6.29,6.216-15.103,8.279-23.095,6.265c0.83,3.977,2.724,7.759,5.768,10.86
	c4.392,4.473,10.191,6.709,15.989,6.696c5.732,0,11.463-2.183,15.842-6.549l16.579-16.592
	c10.767-10.767,25.591-16.458,40.791-15.668c7.593,0.388,15.106-0.844,22.056-3.522c6.95-2.665,13.351-6.776,18.735-12.16
	l123.202-123.202l60.575-60.575l-39.571-39.564L23.597,487.795z"/>
<path style="fill:#A6E2E3;" d="M259.464,333.924L136.262,457.126c-5.383,5.383-11.785,9.495-18.735,12.16
	c-6.95,2.678-14.463,3.91-22.056,3.522c-15.199-0.79-30.024,4.901-40.791,15.668l-16.579,16.592
	c-4.379,4.366-10.111,6.548-15.842,6.548c-5.799,0.013-11.597-2.223-15.989-6.696c-8.678-8.838-8.209-23.181,0.549-31.952
	l16.177-16.177c5.383-5.383,9.495-11.785,12.16-18.735c2.705-7.004,3.924-14.57,3.509-22.23c-0.83-15.132,4.968-29.89,15.695-40.603
	l41.286-41.299h0.013H259.464z"/>
<path style="fill:#7CCBCC;" d="M259.464,333.924h-80.263L23.597,487.795c-6.29,6.216-15.103,8.28-23.095,6.265c0,0,0,0.001,0,0.002
	c0.292,1.398,0.723,2.771,1.282,4.1c0.082,0.193,0.166,0.385,0.254,0.576c0.154,0.338,0.31,0.675,0.482,1.006
	c0.258,0.494,0.531,0.983,0.829,1.46c0.119,0.191,0.253,0.375,0.378,0.563c0.258,0.385,0.525,0.765,0.81,1.136
	c0.129,0.169,0.26,0.338,0.395,0.504c0.421,0.516,0.858,1.023,1.334,1.508c0.001,0.001,0.002,0.003,0.004,0.004
	c0.549,0.559,1.12,1.083,1.71,1.573c3.148,2.609,6.846,4.2,10.671,4.815c1.195,0.192,2.401,0.311,3.609,0.308
	c5.732,0,11.463-2.183,15.842-6.549l11.605-11.614l4.974-4.978c6.056-6.057,13.396-10.507,21.365-13.102
	c2.656-0.864,5.382-1.523,8.154-1.966c3.695-0.591,7.472-0.799,11.272-0.601c6.644,0.34,13.226-0.561,19.424-2.585
	c0.885-0.29,1.763-0.602,2.632-0.937c6.95-2.665,13.351-6.776,18.735-12.16L259.464,333.924z"/>
<path style="fill:#FFA638;" d="M508.2,38.978c8.074,20.162,2.978,43.232-12.38,58.59L335.522,257.865l-81.902-81.902L412.235,17.348
	C440.602-11.02,491.065-3.81,508.2,38.978z"/>
<path style="fill:#ED8300;" d="M335.522,257.865L494.138,99.25c22.618-22.619,22.618-59.284,0-81.903
	c-7.165-7.165-15.741-12.052-24.833-14.678c5.663,19.608,0.775,41.617-14.678,57.07L296.011,218.354L335.522,257.865z"/>
<g>
	<polygon style="fill:#EB7100;" points="306.344,212.458 264.58,170.694 254.282,160.396 254.281,160.396 	"/>
	<path style="fill:#EB7100;" d="M351.076,257.19c9.588,9.588,9.588,25.149,0,34.738c-4.808,4.794-11.088,7.205-17.369,7.205
		c-6.294,0-12.588-2.41-17.382-7.205l-7.432-7.432l-81.916-81.903l-7.432-7.446c-9.602-9.588-9.602-25.149,0-34.751
		c4.794-4.794,11.075-7.191,17.369-7.191s12.575,2.397,17.369,7.191l10.298,10.298l76.211,76.211L351.076,257.19z"/>
</g>
<path style="fill:#D65D00;" d="M316.629,257.48c-4.808,4.794-11.088,7.204-17.369,7.204c-6.294,0-12.588-2.41-17.382-7.204
	l-7.432-7.432l-50.36-50.352l2.891,2.896l81.916,81.902l7.432,7.433c4.794,4.794,11.088,7.204,17.382,7.204
	c6.281,0,12.561-2.41,17.369-7.204c9.588-9.589,9.588-25.15,0-34.738l-10.285-10.285l-24.163-24.162
	C326.217,232.331,326.217,247.892,316.629,257.48z"/>
<g>
</g>
<g>
</g>
<g>
</g>
<g>
</g>
<g>
</g>
<g>
</g>
<g>
</g>
<g>
</g>
<g>
</g>
<g>
</g>
<g>
</g>
<g>
</g>
<g>
</g>
<g>
</g>
<g>
</g>
</svg>
