<?xml version="1.0" encoding="iso-8859-1"?>
<!-- Generator: Adobe Illustrator 19.0.0, SVG Export Plug-In . SVG Version: 6.00 Build 0)  -->
<svg version="1.1" id="Capa_1" xmlns="http://www.w3.org/2000/svg" xmlns:xlink="http://www.w3.org/1999/xlink" x="0px" y="0px"
	 viewBox="0 0 512 512" style="enable-background:new 0 0 512 512;" xml:space="preserve">
<g>
	<path style="fill:#3A4D51;" d="M427.77,130.753c-24.181-26.682-53.875-47.119-86.682-60.106h115.264
		c4.147,0,7.509-3.361,7.509-7.509s-3.362-7.509-7.509-7.509H279.368c-2.846-0.056-5.41,1.518-6.717,3.924
		c-0.015,0.027-0.026,0.056-0.041,0.083c-0.097,0.185-0.19,0.372-0.273,0.567c-0.031,0.074-0.055,0.152-0.084,0.227
		c-0.058,0.151-0.119,0.301-0.167,0.458c-0.042,0.134-0.072,0.272-0.107,0.409c-0.026,0.103-0.058,0.204-0.079,0.309
		c-0.037,0.18-0.062,0.365-0.086,0.55c-0.009,0.066-0.024,0.13-0.031,0.197c0,0.002,0,0.004,0,0.007
		c-0.01,0.099-0.01,0.201-0.016,0.3c-0.01,0.159-0.024,0.318-0.024,0.476v0.001c0,0.013,0.002,0.024,0.002,0.036
		c0.001,0.243,0.012,0.485,0.036,0.723c0.007,0.072,0.022,0.142,0.032,0.214c0.023,0.174,0.045,0.348,0.079,0.519
		c0.028,0.14,0.068,0.275,0.104,0.412c0.026,0.098,0.046,0.197,0.075,0.293c0.057,0.186,0.126,0.367,0.196,0.548
		c0.017,0.043,0.03,0.089,0.048,0.132c0.084,0.202,0.179,0.398,0.28,0.592c0.01,0.02,0.018,0.04,0.028,0.059
		c0.107,0.201,0.225,0.395,0.349,0.586c0.007,0.011,0.013,0.022,0.02,0.033c0.123,0.186,0.256,0.364,0.395,0.539
		c0.011,0.014,0.021,0.03,0.033,0.044c0.135,0.166,0.279,0.325,0.429,0.48c0.018,0.019,0.035,0.04,0.054,0.059
		c0.146,0.148,0.301,0.288,0.46,0.424c0.025,0.021,0.047,0.045,0.072,0.066c0.162,0.136,0.332,0.263,0.507,0.385
		c0.024,0.017,0.045,0.036,0.069,0.052c0.193,0.132,0.392,0.254,0.598,0.368c0.006,0.003,0.012,0.007,0.018,0.011
		c0.879,0.486,1.864,0.8,2.913,0.898c53.063,5.568,102.107,30.507,138.103,70.227c36.266,40.016,56.237,91.82,56.237,145.87
		c0,4.148,3.362,7.509,7.509,7.509c4.147,0,7.509-3.361,7.509-7.509C487.897,228.921,466.544,173.536,427.77,130.753z"/>
	<path style="fill:#3A4D51;" d="M237.81,67.787c0.128-0.161,0.251-0.326,0.365-0.498c0.018-0.027,0.032-0.055,0.05-0.082
		c0.113-0.174,0.221-0.352,0.32-0.537c0.021-0.039,0.037-0.079,0.057-0.118c0.089-0.174,0.176-0.35,0.251-0.533
		c0.028-0.068,0.05-0.139,0.076-0.208c0.059-0.155,0.12-0.31,0.169-0.471c0.039-0.127,0.068-0.259,0.1-0.389
		c0.026-0.106,0.058-0.209,0.08-0.317c0.043-0.211,0.073-0.426,0.098-0.643c0.003-0.03,0.01-0.059,0.013-0.09
		c0.046-0.454,0.046-0.919,0.007-1.39c-0.004-0.049-0.003-0.098-0.008-0.147c-0.001-0.004,0-0.008-0.001-0.012
		c-0.013-0.127-0.039-0.25-0.058-0.374c-0.019-0.122-0.032-0.245-0.057-0.365c-0.037-0.178-0.086-0.351-0.135-0.525
		c-0.018-0.063-0.03-0.129-0.05-0.191c-0.972-3.131-3.904-5.308-7.245-5.269H54.819c-4.147,0-7.509,3.361-7.509,7.509
		c0,4.147,3.362,7.509,7.509,7.509h115.264c-32.808,12.987-62.502,33.424-86.682,60.106c-38.773,42.783-60.127,98.17-60.127,155.955
		c0,4.148,3.362,7.509,7.509,7.509s7.509-3.361,7.509-7.509c0-54.051,19.972-105.855,56.237-145.871
		c35.996-39.72,85.041-64.657,138.104-70.226c1.048-0.099,2.032-0.412,2.91-0.897c0.017-0.009,0.033-0.021,0.05-0.03
		c0.193-0.109,0.382-0.223,0.565-0.348c0.035-0.024,0.066-0.051,0.101-0.075c0.162-0.115,0.322-0.233,0.475-0.361
		c0.036-0.03,0.068-0.063,0.103-0.094c0.147-0.128,0.291-0.257,0.428-0.396c0.029-0.03,0.055-0.062,0.084-0.092
		c0.137-0.144,0.272-0.291,0.398-0.446C237.769,67.843,237.788,67.814,237.81,67.787z"/>
</g>
<g>
	<path style="fill:#FF6137;" d="M31.164,31.273C13.98,31.273,0,45.253,0,62.437S13.98,93.6,31.164,93.6s31.164-13.98,31.164-31.164
		S48.347,31.273,31.164,31.273z"/>
	<path style="fill:#FF6137;" d="M480.007,31.273c-17.184,0-31.164,13.98-31.164,31.164S462.824,93.6,480.007,93.6
		s31.164-13.98,31.164-31.164S497.191,31.273,480.007,31.273z"/>
</g>
<g>
	<path style="fill:#FFD039;" d="M54.84,279.475H7.509c-4.147,0-7.509,3.361-7.509,7.509v47.331c0,4.147,3.362,7.509,7.509,7.509
		H54.84c4.147,0,7.509-3.362,7.509-7.509v-47.331C62.348,282.837,58.987,279.475,54.84,279.475z"/>
	<path style="fill:#FFD039;" d="M504.491,279.475H457.16c-4.147,0-7.509,3.361-7.509,7.509v47.331c0,4.147,3.362,7.509,7.509,7.509
		h47.331c4.147,0,7.509-3.362,7.509-7.509v-47.331C512,282.837,508.638,279.475,504.491,279.475z"/>
</g>
<path style="fill:#FF434D;" d="M439.835,471.838L309.707,82.731c-1.024-3.063-3.891-5.127-7.121-5.127h-93.173
	c-3.23,0-6.097,2.065-7.121,5.127L72.165,471.838c-0.766,2.291-0.383,4.81,1.027,6.77c1.411,1.959,3.678,3.121,6.093,3.121h76.122
	c3.273,0,6.168-2.119,7.157-5.239l39.024-123.085H310.41l39.024,123.085c0.989,3.12,3.884,5.239,7.157,5.239h76.121
	c2.415,0,4.682-1.161,6.093-3.121C440.219,476.648,440.601,474.129,439.835,471.838z M284.354,271.694h-56.708L256,183.617
	L284.354,271.694z"/>
<g>
	<polygon style="fill:#DD3646;" points="256,183.617 223.155,183.617 194.801,271.694 227.646,271.694 	"/>
	<path style="fill:#DD3646;" d="M439.835,471.838L309.707,82.731c-1.024-3.063-3.891-5.127-7.121-5.127h-32.845
		c3.23,0,6.097,2.065,7.121,5.127L406.99,471.838c0.766,2.291,0.383,4.81-1.027,6.77c-1.411,1.959-3.678,3.121-6.093,3.121h32.845
		c2.415,0,4.682-1.161,6.093-3.121C440.219,476.648,440.601,474.129,439.835,471.838z"/>
	<path style="fill:#DD3646;" d="M129.721,476.488c-0.989,3.12-3.884,5.239-7.157,5.239h32.845c3.273,0,6.168-2.119,7.157-5.239
		l39.024-123.085h-32.845L129.721,476.488z"/>
</g>
<path style="fill:#FFD039;" d="M279.251,30.272H231.92c-4.147,0-7.509,3.362-7.509,7.509v47.331c0,4.148,3.362,7.509,7.509,7.509
	h47.331c4.147,0,7.509-3.361,7.509-7.509V37.78C286.76,33.634,283.398,30.272,279.251,30.272z"/>
<g>
</g>
<g>
</g>
<g>
</g>
<g>
</g>
<g>
</g>
<g>
</g>
<g>
</g>
<g>
</g>
<g>
</g>
<g>
</g>
<g>
</g>
<g>
</g>
<g>
</g>
<g>
</g>
<g>
</g>
</svg>
