<svg id="Capa_1" enable-background="new 0 0 512 512" height="512" viewBox="0 0 512 512" width="512" xmlns="http://www.w3.org/2000/svg"><g><path d="m447.48 10.302v491.396c0 5.687-4.615 10.302-10.302 10.302h-362.356c-5.687 0-10.302-4.615-10.302-10.302v-491.396c0-2.071.608-3.997 1.669-5.614l189.811 28.618 189.811-28.619c1.061 1.618 1.669 3.544 1.669 5.615z" fill="#ffc250"/><path d="m447.48 10.302v491.396c0 5.687-4.615 10.302-10.302 10.302h-10.508v-380.909c0-2.122-2.967-2.637-3.678-.639v.01c-1.483 4.141-5.408 6.902-9.807 6.902h-314.37c-4.399 0-8.324-2.761-9.807-6.902l-24.488-68.579v-51.581c0-2.071.608-3.997 1.669-5.614l189.811 28.618 189.811-28.619c1.061 1.618 1.669 3.544 1.669 5.615z" fill="#ebb044"/><path d="m445.811 4.687-37.488 104.955c-1.483 4.141-5.408 6.913-9.807 6.913h-285.031c-4.399 0-8.324-2.771-9.807-6.913l-37.489-104.955c1.834-2.822 5.017-4.687 8.633-4.687h362.356c3.616 0 6.799 1.865 8.633 4.687z" fill="#ffe07d"/><path d="m445.811 4.687-37.488 104.955c-1.483 4.141-5.408 6.913-9.807 6.913h-22.839l41.629-116.555h19.872c3.616 0 6.799 1.865 8.633 4.687z" fill="#ffd064"/><path d="m150.557 467.905h-29.347c-5.69 0-10.302-4.612-10.302-10.302v-55.63c0-5.69 4.612-10.302 10.302-10.302h29.348c5.69 0 10.302 4.612 10.302 10.302v55.63c-.001 5.69-4.613 10.302-10.303 10.302z" fill="#aaddb4"/><path d="m248.274 196.714h15.453v315.286h-15.453z" fill="#ebb044"/><g><path d="m238.751 182.556c-4.267 0-7.726-3.459-7.726-7.726v-116.553c0-4.267 3.459-7.726 7.726-7.726s7.726 3.459 7.726 7.726v116.553c0 4.267-3.459 7.726-7.726 7.726z" fill="#544f57"/></g><g><path d="m273.249 182.556c-4.267 0-7.726-3.459-7.726-7.726v-116.553c0-4.267 3.459-7.726 7.726-7.726s7.726 3.459 7.726 7.726v116.553c.001 4.267-3.459 7.726-7.726 7.726z" fill="#544f57"/></g><g><g><path d="m118.634 367.791c-4.267 0-7.726-3.459-7.726-7.726v-78.049c0-4.267 3.459-7.726 7.726-7.726s7.726 3.459 7.726 7.726v78.049c.001 4.267-3.459 7.726-7.726 7.726z" fill="#e28086"/></g><g><path d="m118.634 256.442c-4.267 0-7.726-3.459-7.726-7.726v-19.772c0-4.267 3.459-7.726 7.726-7.726s7.726 3.459 7.726 7.726v19.772c.001 4.266-3.459 7.726-7.726 7.726z" fill="#e28086"/></g><g><path d="m151.935 313.678c-4.267 0-7.726-3.459-7.726-7.726v-77.008c0-4.267 3.459-7.726 7.726-7.726s7.726 3.459 7.726 7.726v77.008c0 4.266-3.459 7.726-7.726 7.726z" fill="#e28086"/></g><g><path d="m151.935 367.791c-4.267 0-7.726-3.459-7.726-7.726v-20.813c0-4.267 3.459-7.726 7.726-7.726s7.726 3.459 7.726 7.726v20.813c0 4.267-3.459 7.726-7.726 7.726z" fill="#e28086"/></g><g><path d="m185.236 367.791c-4.267 0-7.726-3.459-7.726-7.726v-88.455c0-4.267 3.459-7.726 7.726-7.726s7.726 3.459 7.726 7.726v88.455c0 4.267-3.459 7.726-7.726 7.726z" fill="#e28086"/></g></g><g fill="#665e66"><circle cx="256" cy="58.276" r="24.976"/><circle cx="256" cy="174.829" r="24.976"/></g></g></svg>