<svg id="Capa_1" enable-background="new 0 0 512 512" height="512" viewBox="0 0 512 512" width="512" xmlns="http://www.w3.org/2000/svg"><g><g><g><g><g><g><path d="m475.888 218.125-197.617-124.507c-13.653-8.602-30.888-8.602-44.541 0l-197.618 124.507c-9.041 5.696-15.001 15.527-15.417 26.368-.019.487-.028.982-.028 1.485v224.115c0 19.002 15.081 34.407 33.684 34.407h403.3c18.603 0 33.684-15.404 33.684-34.407v-224.115c0-.502-.01-.997-.028-1.485-.418-10.841-6.378-20.672-15.419-26.368z" fill="#fba615"/><g><path d="m460.181 7.5h-35.252v130.394h42.982c11.291 0 20.445-9.153 20.445-20.445v-81.775c-.001-15.56-12.615-28.174-28.175-28.174z" fill="#dae4ea"/><path d="m256 395.276 176.007-135.571v-140.279-83.752c0-15.56 12.614-28.174 28.174-28.174h-355.324c-15.581 0-28.212 12.631-28.212 28.212v221.413z" fill="#f9f6f6"/><path d="m419.51 7.5c-15.56 0-28.174 12.614-28.174 28.174v255.357l40.67-31.327v-140.278-83.752c0-15.56 12.614-28.174 28.174-28.174z" fill="#e7ecf1"/></g><path d="m491.334 470.093v-224.115c0-.502-.01-.997-.028-1.485-.333-8.67-4.218-16.687-10.382-22.467l-224.924 173.25-224.923-173.249c-6.164 5.779-10.049 13.796-10.382 22.467-.019.487-.028.982-.028 1.485v224.115c0 19.002 15.081 34.407 33.684 34.407h403.3c18.602-.001 33.683-15.406 33.683-34.408z" fill="#fbbe66"/><g><path d="m491.305 244.493c-.333-8.67-4.218-16.687-10.382-22.467l-30.253 23.302c.004.217.012.429.012.649v224.115c0 19.002-15.081 34.407-33.684 34.407h40.651c18.603 0 33.684-15.404 33.684-34.407v-224.114c.001-.503-.009-.998-.028-1.485z" fill="#fcb143"/></g><path d="m30.556 494.446c6.094 6.212 14.504 10.054 23.794 10.054h403.3c9.29 0 17.7-3.842 23.794-10.054l-207.895-157.522c-10.422-7.897-24.676-7.897-35.099 0z" fill="#fdd8a3"/></g></g></g><g><path d="m215.36 250.966h-71.514c-3.805 0-6.889-3.084-6.889-6.889v-33.135c0-3.805 3.084-6.889 6.889-6.889h71.514c3.805 0 6.889 3.084 6.889 6.889v33.135c.001 3.804-3.084 6.889-6.889 6.889z" fill="#fbe77b"/></g></g></g><g><g><path d="m375.043 70.813c4.143 0 7.501-3.358 7.501-7.501s-3.358-7.501-7.501-7.501h-195.44c-4.143 0-7.501 3.358-7.501 7.501s3.358 7.501 7.501 7.501z"/><path d="m129.456 110.225c0 4.143 3.358 7.501 7.501 7.501h238.087c4.143 0 7.501-3.358 7.501-7.501s-3.358-7.501-7.501-7.501h-238.087c-4.143 0-7.501 3.358-7.501 7.501z"/><path d="m136.957 164.639h238.087c4.143 0 7.501-3.358 7.501-7.501s-3.358-7.501-7.501-7.501h-238.087c-4.143 0-7.501 3.358-7.501 7.501 0 4.144 3.358 7.501 7.501 7.501z"/><path d="m375.043 196.552h-119.043c-4.143 0-7.501 3.358-7.501 7.501s3.358 7.501 7.501 7.501h119.043c4.143 0 7.501-3.358 7.501-7.501 0-4.144-3.358-7.501-7.501-7.501z"/><path d="m375.043 243.465h-119.043c-4.143 0-7.501 3.358-7.501 7.501s3.358 7.501 7.501 7.501h119.043c4.143 0 7.501-3.358 7.501-7.501s-3.358-7.501-7.501-7.501z"/><path d="m498.8 244.206c-.505-13.162-7.576-25.285-18.914-32.428l-40.379-25.44v-40.944h28.403c15.409 0 27.945-12.536 27.945-27.945v-81.775c0-19.671-16.003-35.674-35.674-35.674h-355.324c-19.692 0-35.713 16.02-35.713 35.712v52.258c0 4.143 3.358 7.501 7.501 7.501s7.501-3.358 7.501-7.501v-52.258c0-11.42 9.291-20.711 20.712-20.711h326.265c-4.164 5.836-6.616 12.973-6.616 20.673v220.341l-121.651 93.704-24.775-18.773c-12.999-9.851-31.159-9.851-44.158 0l-24.776 18.772-125-96.283v-130.399c0-4.143-3.358-7.501-7.501-7.501s-7.501 3.358-7.501 7.501v65.412l-37.03 23.331c-11.338 7.143-18.409 19.265-18.914 32.43-.022.581-.034 1.17-.034 1.77v224.116c-.001 23.106 18.474 41.905 41.183 41.905h403.3c22.709 0 41.185-18.799 41.185-41.906v-224.116c-.001-.6-.012-1.189-.035-1.772zm-38.619-229.205c11.4 0 20.673 9.273 20.673 20.673v81.775c0 7.137-5.806 12.944-12.944 12.944h-28.403v-94.719c0-11.398 9.275-20.673 20.674-20.673zm-20.674 189.068 28.844 18.173-28.844 22.218zm-407.569 279.92c-2.392-4.058-3.77-8.814-3.77-13.895v-224.116c0-.406.008-.806.022-1.197.172-4.469 1.578-8.749 3.968-12.453l164.595 126.781zm37.206-242.109-25.495-19.638 25.495-16.064zm-14.794 255.119c-4.036 0-7.86-.944-11.277-2.627l199.907-151.47c7.786-5.901 18.252-5.9 26.04 0l63.347 47.999c3.301 2.504 8.007 1.853 10.508-1.448 2.502-3.302 1.854-8.007-1.448-10.508l-26.179-19.836 164.595-126.782c2.391 3.704 3.796 7.984 3.968 12.451.015.394.022.793.022 1.199v224.116c0 5.081-1.379 9.837-3.77 13.895l-110.666-83.852c-3.301-2.504-8.008-1.854-10.508 1.448-2.502 3.302-1.854 8.007 1.448 10.508l108.59 82.278c-3.417 1.683-7.241 2.627-11.277 2.627h-403.3z"/><path d="m129.456 244.077c0 7.934 6.456 14.39 14.39 14.39h71.514c7.934 0 14.39-6.456 14.39-14.39v-33.135c0-7.934-6.456-14.39-14.39-14.39h-71.514c-7.934 0-14.39 6.456-14.39 14.39zm15.001-32.524h70.292v31.912h-70.292z"/></g></g></g></svg>