<?xml version="1.0" encoding="iso-8859-1"?>
<!-- Generator: Adobe Illustrator 19.0.0, SVG Export Plug-In . SVG Version: 6.00 Build 0)  -->
<svg version="1.1" id="Capa_1" xmlns="http://www.w3.org/2000/svg" xmlns:xlink="http://www.w3.org/1999/xlink" x="0px" y="0px"
	 viewBox="0 0 511.999 511.999" style="enable-background:new 0 0 511.999 511.999;" xml:space="preserve">
<path style="fill:#3C5156;" d="M378.567,483.406H85.598c-4.144,0-7.501-3.358-7.501-7.501c0-4.144,3.357-7.501,7.501-7.501h292.97
	c4.144,0,7.501,3.357,7.501,7.501C386.068,480.048,382.711,483.406,378.567,483.406z"/>
<path style="fill:#E0E0E0;" d="M271.063,409.071L131.52,269.528c-1.407-1.406-3.314-2.196-5.305-2.196
	c-1.989,0-3.897,0.79-5.305,2.196L5.252,385.188c-7.003,7.004-7.003,18.399,0,25.403l67.491,67.491
	c3.435,3.434,7.999,5.324,12.855,5.324h114.211c4.855,0,9.42-1.891,12.854-5.324l58.401-58.402
	C273.993,416.75,273.993,412.002,271.063,409.071z"/>
<path style="fill:#C6C5CA;" d="M271.063,409.071l-18.003-18.003l-92.337,92.337h39.085c4.855,0,9.42-1.891,12.854-5.324
	l58.401-58.402C273.993,416.75,273.993,412.002,271.063,409.071z"/>
<path style="fill:#39A4FA;" d="M509.352,198.174L342.418,31.24c-3.531-3.529-9.273-3.531-12.806,0L107.211,253.642
	c-3.522,3.527-3.522,9.267,0.004,12.8l166.935,166.934c1.766,1.765,4.084,2.646,6.402,2.646s4.637-0.882,6.402-2.646
	l222.397-222.397C512.882,207.449,512.882,201.706,509.352,198.174z"/>
<path style="fill:#0091E2;" d="M509.352,198.174l-15.904-15.904L258.246,417.472l15.904,15.904c1.766,1.765,4.084,2.646,6.402,2.646
	s4.637-0.882,6.402-2.646l222.397-222.397C512.882,207.449,512.882,201.706,509.352,198.174z"/>
<g>
</g>
<g>
</g>
<g>
</g>
<g>
</g>
<g>
</g>
<g>
</g>
<g>
</g>
<g>
</g>
<g>
</g>
<g>
</g>
<g>
</g>
<g>
</g>
<g>
</g>
<g>
</g>
<g>
</g>
</svg>
