<?xml version="1.0" encoding="iso-8859-1"?>
<!-- Generator: Adobe Illustrator 19.0.0, SVG Export Plug-In . SVG Version: 6.00 Build 0)  -->
<svg version="1.1" id="Capa_1" xmlns="http://www.w3.org/2000/svg" xmlns:xlink="http://www.w3.org/1999/xlink" x="0px" y="0px"
	 viewBox="0 0 512 512" style="enable-background:new 0 0 512 512;" xml:space="preserve">
<g>
	<path style="fill:#607D8B;" d="M282.24,314.24c-32.016,14.641-69.839,0.556-84.48-31.46c-7.699-16.835-7.699-36.185,0-53.02
		l-62.752-62.752c-29.919,20.896-53.874,49.23-69.504,82.208c-2.013,4.299-2.013,9.269,0,13.568
		C100.262,336.59,174.419,383.778,256,384c27.39-0.137,54.486-5.661,79.744-16.256L282.24,314.24z"/>
	<path style="fill:#607D8B;" d="M446.496,249.216c-46.537-101-164.182-147.661-267.296-106.016l53.28,53.408
		c7.475-3.021,15.458-4.585,23.52-4.608c35.346,0,64,28.654,64,64c-0.023,8.062-1.587,16.045-4.608,23.52l63.808,63.808
		c28.875-20.707,52.002-48.426,67.2-80.544C448.443,258.499,448.478,253.529,446.496,249.216z"/>
</g>
<path d="M380.8,338.56c-8.837-0.004-15.997-7.171-15.993-16.007c0.002-4.744,2.109-9.242,5.753-12.281
	c18.023-14.99,32.855-33.446,43.616-54.272C383.364,197.114,322.46,160.15,256,160c-14.677-0.089-29.301,1.773-43.488,5.536
	c-8.536,2.315-17.333-2.728-19.648-11.264c-2.315-8.536,2.728-17.333,11.264-19.648c16.926-4.471,34.366-6.698,51.872-6.624
	c81.602,0.181,155.784,47.397,190.496,121.248c1.983,4.272,1.983,9.2,0,13.472c-12.899,27.863-31.844,52.502-55.456,72.128
	C388.166,337.245,384.542,338.558,380.8,338.56z"/>
<path d="M256,384c-81.602-0.181-155.784-47.397-190.496-121.248c-1.993-4.281-1.993-9.223,0-13.504
	c15.885-34.029,40.674-63.13,71.744-84.224c7.436-4.774,17.334-2.617,22.108,4.819c4.59,7.148,2.793,16.637-4.092,21.613
	c-24.185,16.429-43.912,38.608-57.408,64.544c41.586,79.775,136.033,116.145,220.384,84.864c8.155-3.403,17.525,0.449,20.928,8.604
	c3.403,8.155-0.449,17.525-8.604,20.928c-0.369,0.154-0.744,0.294-1.123,0.42C305.951,379.586,281.073,384.052,256,384z"/>
<path d="M256,320c-35.346,0-64-28.654-64-64c-0.08-6.539,1.003-13.04,3.2-19.2c3.385-8.163,12.745-12.036,20.908-8.652
	c7.651,3.172,11.616,11.66,9.14,19.564c-0.895,2.669-1.317,5.474-1.248,8.288c0,17.673,14.327,32,32,32
	c2.85,0.061,5.689-0.383,8.384-1.312c8.365-2.849,17.455,1.623,20.304,9.987c2.782,8.169-1.415,17.073-9.488,20.125
	C269.037,318.985,262.538,320.068,256,320z"/>
<path d="M302.4,260.16c-7.362-0.009-13.768-5.041-15.52-12.192c-2.849-11.23-11.618-19.999-22.848-22.848
	c-8.533-2.298-13.587-11.078-11.289-19.61c2.224-8.26,10.553-13.309,18.905-11.462c22.76,5.772,40.532,23.544,46.304,46.304
	c2.009,8.537-3.229,17.1-11.744,19.2C304.965,259.895,303.688,260.099,302.4,260.16z"/>
<path d="M16,192c-8.837,0-16-7.163-16-16V16C0,7.163,7.163,0,16,0h160c8.837,0,16,7.163,16,16s-7.163,16-16,16H32v144
	C32,184.837,24.837,192,16,192z"/>
<path d="M496,192c-8.837,0-16-7.163-16-16V32H336c-8.837,0-16-7.163-16-16s7.163-16,16-16h160c8.837,0,16,7.163,16,16v160
	C512,184.837,504.837,192,496,192z"/>
<path d="M176,512H16c-8.837,0-16-7.163-16-16V336c0-8.837,7.163-16,16-16s16,7.163,16,16v144h144c8.837,0,16,7.163,16,16
	S184.837,512,176,512z"/>
<path d="M496,512H336c-8.837,0-16-7.163-16-16s7.163-16,16-16h144V336c0-8.837,7.163-16,16-16s16,7.163,16,16v160
	C512,504.837,504.837,512,496,512z"/>
<path d="M384,432c-4.246,0.008-8.322-1.673-11.328-4.672l-288-288c-6.256-6.256-6.256-16.4,0-22.656s16.4-6.256,22.656,0l288,288
	c6.256,6.24,6.269,16.371,0.029,22.627C392.348,430.316,388.26,432.008,384,432z"/>
<g>
</g>
<g>
</g>
<g>
</g>
<g>
</g>
<g>
</g>
<g>
</g>
<g>
</g>
<g>
</g>
<g>
</g>
<g>
</g>
<g>
</g>
<g>
</g>
<g>
</g>
<g>
</g>
<g>
</g>
</svg>
