<svg id="Layer_1" enable-background="new 0 0 512 512" height="512" viewBox="0 0 512 512" width="512" xmlns="http://www.w3.org/2000/svg"><g><path d="m192 91h-32l-50-40h-100v370c0 22.091 17.909 40 40 40h142z" fill="#b6bccf"/><path d="m50 131h412v290h-412z" fill="#fff"/><path d="m502 171h-412v250c0 22.091-17.909 40-40 40h412c22.091 0 40-17.909 40-40z" fill="#ffc144"/><path d="m50 91h382v40h-382z" fill="#fff7bf"/><path d="m136 216h140v80h-140z" fill="#fff" transform="matrix(-1 0 0 -1 412 512)"/><g><path d="m509.069 163.93c-1.859-1.86-4.439-2.93-7.069-2.93h-30v-30c0-5.523-4.478-10-10-10h-20v-30c0-5.523-4.478-10-10-10h-268.492l-47.261-37.809c-1.774-1.418-3.977-2.191-6.247-2.191h-100c-5.523 0-10 4.477-10 10v370c0 27.57 22.43 50 50 50h275.14c5.521 0 10-4.49 10-10s-4.479-10-10-10h-235.14c6.54-8.7 10-19.08 10-30v-240h392v240c-.03 16.51-13.49 29.97-30 30h-46.86c-5.51 0-10 4.49-10 10s4.49 10 10 10h46.86c26.922 0 50-22.822 50-50v-250c0-2.63-1.07-5.21-2.931-7.07zm-87.069-62.93v20h-362v-20zm-372 350c-16.542 0-30-13.458-30-30v-360h86.492l25 20h-81.492c-5.523 0-10 4.477-10 10v330c0 5.523 4.477 10 10 10h28.259c-4.147 11.617-15.254 19.976-28.259 20zm402-290h-362c-2.63 0-5.21 1.07-7.07 2.93s-2.93 4.44-2.93 7.07v240h-20v-270h392z"/><circle cx="370.14" cy="461" r="10"/><path d="m136 206c-5.523 0-10 4.477-10 10v80c0 5.523 4.477 10 10 10h140c5.522 0 10-4.477 10-10v-80c0-5.523-4.478-10-10-10zm130 80h-120v-60h120z"/><path d="m176 266h60c5.523 0 10-4.477 10-10s-4.477-10-10-10h-60c-5.523 0-10 4.477-10 10s4.477 10 10 10z"/></g></g></svg>