<svg height="512" viewBox="0 0 74 74" width="512" xmlns="http://www.w3.org/2000/svg"><g id="color_line" data-name="color line"><path d="m9.462 55.187h-2.17a4.3 4.3 0 0 1 -4.292-4.303v-35.731a4.3 4.3 0 0 1 4.292-4.3h50.883a4.3 4.3 0 0 1 4.3 4.3v1.6" fill="#eeefee"/><path d="m9.462 55.687h-2.17a4.8 4.8 0 0 1 -4.792-4.8v-35.734a4.8 4.8 0 0 1 4.792-4.8h50.883a4.808 4.808 0 0 1 4.8 4.8v1.6a.5.5 0 0 1 -1 0v-1.6a3.806 3.806 0 0 0 -3.8-3.8h-50.883a3.8 3.8 0 0 0 -3.792 3.8v35.731a3.8 3.8 0 0 0 3.792 3.8h2.17a.5.5 0 0 1 0 1z" fill="#323c6b"/><path d="m71 53.97v4.9a4.281 4.281 0 0 1 -4.286 4.276h-52.968a4.281 4.281 0 0 1 -4.286-4.272v-8.9l18.54-21.134 17.026 20.689 11.807-13.178z" fill="#eeefee"/><path d="m66.714 63.649h-52.968a4.786 4.786 0 0 1 -4.786-4.775v-8.9a.5.5 0 0 1 .124-.33l18.535-21.133a.5.5 0 0 1 .762.012l16.661 20.239 11.419-12.744a.482.482 0 0 1 .386-.167.5.5 0 0 1 .376.187l14.167 17.618a.5.5 0 0 1 .11.313v4.9a4.786 4.786 0 0 1 -4.786 4.78zm-56.754-13.489v8.714a3.785 3.785 0 0 0 3.786 3.775h52.968a3.785 3.785 0 0 0 3.786-3.775v-4.728l-13.687-17.022-11.413 12.738a.478.478 0 0 1 -.383.167.5.5 0 0 1 -.376-.182l-16.658-20.235z" fill="#323c6b"/><path d="m71 53.97v4.9a4.281 4.281 0 0 1 -4.286 4.276h-52.968a4.281 4.281 0 0 1 -4.286-4.272v-8.9l18.54-21.134 17.026 20.689 11.807-13.178z" fill="#9297ab"/><path d="m71 53.97v4.9a4.287 4.287 0 0 1 -4.29 4.28h-52.96a4.28 4.28 0 0 1 -4.12-3.1 4.224 4.224 0 0 0 2.03.52h52.97a4.287 4.287 0 0 0 4.29-4.28v-4.91z" fill="#84879c"/><path d="m71 21.041v32.929l-14.167-17.619-11.807 13.178-17.026-20.689-18.54 21.132v-28.931a4.283 4.283 0 0 1 4.286-4.286h52.968a4.283 4.283 0 0 1 4.286 4.286z" fill="#eeefee"/><path d="m71 21.04v32.93l-2.42-3.01v-27a4.281 4.281 0 0 0 -4.28-4.29h-52.97a4.074 4.074 0 0 0 -1.75.38 4.281 4.281 0 0 1 4.17-3.3h52.96a4.289 4.289 0 0 1 4.29 4.29z" fill="#e1e6e9"/><circle cx="47.559" cy="28.7" fill="#fcd462" r="5.695"/><path d="m51.72 32.58a5.509 5.509 0 0 0 .37-2 5.689 5.689 0 0 0 -9.86-3.88 5.691 5.691 0 1 1 9.49 5.88z" fill="#f7be56"/><g fill="#323c6b"><path d="m53.941 8.351h-.687a.5.5 0 0 1 0-1h.688a.5.5 0 0 1 0 1z"/><path d="m64.531 12.125a.5.5 0 0 1 -.437-.257 6.8 6.8 0 0 0 -5.918-3.518h-1.828a.5.5 0 0 1 0-1h1.828a7.8 7.8 0 0 1 6.792 4.031.5.5 0 0 1 -.437.743z"/><path d="m27.875 66.649h-.667a.5.5 0 1 1 0-1h.667a.5.5 0 0 1 0 1z"/><path d="m24.667 66.649h-9.25a.5.5 0 0 1 0-1h9.25a.5.5 0 1 1 0 1z"/><path d="m71 54.47a.5.5 0 0 1 -.39-.187l-13.8-17.159-11.41 12.738a.478.478 0 0 1 -.383.167.5.5 0 0 1 -.376-.182l-16.658-20.235-18.147 20.688a.5.5 0 0 1 -.876-.33v-28.929a4.791 4.791 0 0 1 4.786-4.786h52.968a4.791 4.791 0 0 1 4.786 4.786v32.929a.5.5 0 0 1 -.5.5zm-14.167-18.618h.013a.5.5 0 0 1 .376.187l13.278 16.511v-31.509a3.79 3.79 0 0 0 -3.786-3.786h-52.968a3.79 3.79 0 0 0 -3.786 3.786v27.6l17.659-20.13a.5.5 0 0 1 .762.012l16.661 20.239 11.419-12.744a.5.5 0 0 1 .372-.166z"/><path d="m66.714 63.649h-52.968a4.786 4.786 0 0 1 -4.786-4.775v-8.9a.5.5 0 0 1 .124-.33l18.535-21.133a.5.5 0 0 1 .762.012l16.661 20.239 11.419-12.744a.482.482 0 0 1 .386-.167.5.5 0 0 1 .376.187l14.167 17.618a.5.5 0 0 1 .11.313v4.9a4.786 4.786 0 0 1 -4.786 4.78zm-56.754-13.489v8.714a3.785 3.785 0 0 0 3.786 3.775h52.968a3.785 3.785 0 0 0 3.786-3.775v-4.728l-13.687-17.022-11.413 12.738a.478.478 0 0 1 -.383.167.5.5 0 0 1 -.376-.182l-16.658-20.235z"/><path d="m47.559 34.9a6.195 6.195 0 1 1 6.195-6.2 6.2 6.2 0 0 1 -6.195 6.2zm0-11.389a5.195 5.195 0 1 0 5.195 5.189 5.2 5.2 0 0 0 -5.195-5.194z"/></g><path d="m35.6 43.442a.712.712 0 0 1 -1-.115l-5.4-6.81a.712.712 0 0 1 1.115-.886l5.4 6.81a.712.712 0 0 1 -.115 1.001z" fill="#fff"/><path d="m37.371 45.667a.712.712 0 0 1 -1-.115l-.232-.292a.712.712 0 0 1 1.115-.886l.232.292a.712.712 0 0 1 -.115 1.001z" fill="#fff"/></g></svg>