<svg height="512pt" viewBox="-44 0 512 512" width="512pt" xmlns="http://www.w3.org/2000/svg"><path d="m319.460938 504.515625h-215.113282c-14.382812 0-26.25-11.242187-27.035156-25.601563l-19.632812-360.644531h309.480468l-20.671875 360.722657c-.820312 14.324218-12.675781 25.523437-27.027343 25.523437zm0 0" fill="#b9acac"/><path d="m277.433594 118.269531-9.242188 336.085938c-.402344 14.589843-12.34375 26.207031-26.9375 26.207031h-163.792968c1.5625 13.558594 13.0625 23.953125 26.886718 23.953125h215.117188c14.347656 0 26.207031-11.199219 27.027344-25.523437l20.671874-360.722657zm0 0" fill="#9e9797"/><path d="m303.472656 49.402344h-182.769531c-34.808594 0-63.023437 28.21875-63.023437 63.023437v.851563h308.8125v-.851563c0-34.808593-28.214844-63.023437-63.019532-63.023437zm0 0" fill="#e1d3ce"/><path d="m303.59375 49.402344h-65.976562c34.738281 0 62.898437 28.164062 62.898437 62.902344v.976562h65.976563v-.976562c0-34.742188-28.160157-62.902344-62.898438-62.902344zm0 0" fill="#cdbfba"/><path d="m394.398438 87.328125h-363.957032c-12.675781 0-22.953125 10.277344-22.953125 22.957031 0 12.679688 10.277344 22.953125 22.953125 22.953125h363.960938c12.675781 0 22.953125-10.273437 22.953125-22.953125 0-12.679687-10.277344-22.957031-22.957031-22.957031zm0 0" fill="#b9acac"/><path d="m394.402344 87.328125h-47.574219c0 12.679687-10.277344 22.957031-22.953125 22.957031h-316.390625c0 12.679688 10.277344 22.953125 22.957031 22.953125h363.960938c12.675781 0 22.953125-10.273437 22.953125-22.953125 0-12.679687-10.277344-22.957031-22.953125-22.957031zm0 0" fill="#9e9797"/><g fill="#766e6e"><path d="m212.421875 179.613281c7.808594 0 14.136719 6.328125 14.136719 14.136719v218.730469c0 7.808593-6.328125 14.136719-14.136719 14.136719s-14.140625-6.328126-14.140625-14.136719v-218.730469c0-7.808594 6.332031-14.136719 14.140625-14.136719zm0 0"/><path d="m299.183594 179.613281c7.960937 0 14.351562 6.574219 14.125 14.53125l-6.1875 218.742188c-.214844 7.644531-6.476563 13.730469-14.125 13.730469-7.964844 0-14.351563-6.570313-14.128906-14.53125l6.1875-218.738282c.21875-7.648437 6.476562-13.734375 14.128906-13.734375zm0 0"/><path d="m125.660156 179.613281c-7.960937 0-14.351562 6.574219-14.128906 14.53125l6.1875 218.742188c.21875 7.644531 6.476562 13.730469 14.128906 13.730469 7.960938 0 14.351563-6.570313 14.125-14.53125l-6.1875-218.738282c-.214844-7.648437-6.476562-13.734375-14.125-13.734375zm0 0"/></g><path d="m212.425781 179.613281h-.011719c-.171874 0-.339843.019531-.511718.027344.742187 1.714844 1.15625 3.605469 1.15625 5.59375v218.742187c0 7.632813-6.050782 13.832032-13.617188 14.105469 2.167969 5.019531 7.160156 8.535157 12.976563 8.535157h.011719c7.804687 0 14.128906-6.328126 14.128906-14.132813v-218.738281c0-7.804688-6.328125-14.132813-14.132813-14.132813zm0 0" fill="#5b5555"/><path d="m299.183594 179.613281c-.179688 0-.355469.019531-.535156.027344.792968 1.832031 1.21875 3.859375 1.160156 5.992187l-6.1875 218.742188c-.210938 7.46875-6.1875 13.429688-13.59375 13.707031 2.167968 5.007813 7.140625 8.535157 12.96875 8.535157 7.648437 0 13.910156-6.085938 14.125-13.730469l6.1875-218.742188c.226562-7.957031-6.164063-14.53125-14.125-14.53125zm0 0" fill="#5b5555"/><path d="m139.785156 193.347656c-.214844-7.648437-6.476562-13.734375-14.125-13.734375-.179687 0-.351562.019531-.527344.027344.691407 1.597656 1.101563 3.347656 1.152344 5.195313l6.1875 218.738281c.21875 7.78125-5.886718 14.222656-13.597656 14.507812 2.171875 5.027344 7.167969 8.535157 12.972656 8.535157 7.960938 0 14.351563-6.574219 14.125-14.53125zm0 0" fill="#5b5555"/><path d="m394.402344 79.84375h-28.34375c-12.046875-23.210938-35.992188-37.925781-62.464844-37.925781h-40.308594c-3.292968-23.648438-23.636718-41.917969-48.175781-41.917969h-5.375c-24.542969 0-44.886719 18.269531-48.179687 41.917969h-40.976563c-26.414063 0-50.414063 14.730469-62.464844 37.925781h-27.671875c-16.785156 0-30.441406 13.65625-30.441406 30.441406s13.65625 30.441406 30.441406 30.441406h20.964844l18.433594 338.59375c.996094 18.324219 16.152344 32.679688 34.507812 32.679688h124.207032c4.136718 0 7.484374-3.351562 7.484374-7.484375s-3.347656-7.484375-7.484374-7.484375h-124.207032c-10.402344 0-18.992187-8.136719-19.558594-18.523438l-18.390624-337.78125h40.230468c4.132813 0 7.484375-3.351562 7.484375-7.484374 0-4.136719-3.351562-7.484376-7.484375-7.484376h-76.1875c-8.53125 0-15.46875-6.941406-15.46875-15.472656 0-8.527344 6.9375-15.46875 15.46875-15.46875h363.960938c8.527344 0 15.46875 6.941406 15.46875 15.46875 0 8.53125-6.941406 15.46875-15.46875 15.46875l-252.839844-.046875h-.003906c-4.132813 0-7.484375 3.351563-7.484375 7.484375 0 4.132813 3.351562 7.484375 7.484375 7.488282l216.820312.039062-19.359375 337.84375c-.597656 10.355469-9.183593 18.46875-19.558593 18.46875h-55.824219c-4.132813 0-7.484375 3.351562-7.484375 7.484375s3.351562 7.484375 7.484375 7.484375h55.824219c18.300781 0 33.453124-14.3125 34.503906-32.578125l19.40625-338.699219 21.03125.003906c16.785156 0 30.441406-13.65625 30.441406-30.441406 0-16.789062-13.660156-30.441406-30.441406-30.441406zm-184.667969-64.871094h5.375c16.265625 0 29.875 11.589844 33.003906 26.945313h-71.386719c3.128907-15.355469 16.742188-26.945313 33.007813-26.945313zm-89.15625 41.917969h183.015625c18.082031 0 34.664062 8.714844 44.933594 22.953125h-272.875c10.28125-14.230469 26.890625-22.953125 44.925781-22.953125zm0 0"/><path d="m212.414062 172.128906c-11.917968 0-21.617187 9.695313-21.617187 21.617188v218.738281c0 11.921875 9.699219 21.617187 21.628906 21.617187 11.921875 0 21.617188-9.695312 21.617188-21.617187v-218.738281c0-11.921875-9.695313-21.617188-21.617188-21.617188zm6.660157 21.617188v218.738281c0 3.667969-2.980469 6.648437-6.660157 6.648437-3.664062 0-6.644531-2.980468-6.644531-6.648437v-218.738281c0-3.667969 2.980469-6.648438 6.644531-6.648438h.011719c3.667969 0 6.648438 2.980469 6.648438 6.648438zm0 0"/><path d="m308.871094 351.058594c4.113281.113281 7.578125-3.140625 7.691406-7.273438l4.226562-149.429687c.167969-5.886719-2-11.457031-6.105468-15.679688-4.105469-4.222656-9.613282-6.546875-15.5-6.546875-11.785156 0-21.277344 9.226563-21.609375 21.003906l-6.1875 218.742188c-.167969 5.886719 2.003906 11.457031 6.105469 15.679688 4.109374 4.222656 9.613281 6.546874 15.503906 6.546874 11.78125 0 21.273437-9.226562 21.609375-21.003906l.984375-34.863281c.117187-4.132813-3.136719-7.578125-7.269532-7.695313-4.109374-.105468-7.578124 3.136719-7.695312 7.269532l-.984375 34.863281c-.105469 3.625-3.023437 6.460937-6.644531 6.460937-1.8125 0-3.503906-.714843-4.765625-2.015624-1.261719-1.296876-1.929688-3.011719-1.878907-4.820313l6.1875-218.742187c.101563-3.621094 3.019532-6.457032 6.644532-6.457032 1.808594 0 3.503906.714844 4.765625 2.011719 1.261719 1.300781 1.929687 3.011719 1.875 4.824219l-4.226563 149.429687c-.117187 4.132813 3.140625 7.578125 7.273438 7.695313zm0 0"/><path d="m125.660156 172.128906c-5.890625 0-11.394531 2.324219-15.5 6.550782-4.105468 4.222656-6.277344 9.789062-6.109375 15.675781l6.1875 218.742187c.332031 11.78125 9.824219 21.007813 21.609375 21.007813 5.890625 0 11.394532-2.328125 15.5-6.550781 4.105469-4.222657 6.273438-9.792969 6.109375-15.679688l-6.1875-218.738281c-.332031-11.78125-9.828125-21.007813-21.609375-21.007813zm10.953125 244.988282c-1.261719 1.300781-2.957031 2.015624-4.765625 2.015624-3.625 0-6.542968-2.835937-6.644531-6.457031l-6.1875-218.742187c-.050781-1.8125.617187-3.523438 1.878906-4.820313 1.261719-1.300781 2.953125-2.015625 4.765625-2.015625 3.621094 0 6.542969 2.835938 6.644532 6.460938l6.1875 218.738281c.050781 1.8125-.617188 3.523437-1.878907 4.820313zm0 0"/></svg>