<svg height="512pt" viewBox="0 -56 512 512" width="512pt" xmlns="http://www.w3.org/2000/svg"><path d="m10 10.007812h492v66.019532h-492zm0 0" fill="#ccc"/><path d="m181 242.617188h150v100.03125h-150zm0 0" fill="#ff9779"/><path d="m231 287.078125h50v55.570313h-50zm0 0" fill="#ffd469"/><path d="m156 242.585938 100-80.023438 100 80.023438zm0 0" fill="#ffde9a"/><path d="m511.988281 9.492188c-.269531-5.292969-4.636719-9.492188-9.988281-9.492188h-492c-5.351562 0-9.71875 4.199219-9.9882812 9.492188-.0117188.171874-.0117188.339843-.0117188.511718v379.992188c0 5.523437 4.480469 10.003906 10 10.003906h492c5.519531 0 10-4.480469 10-10.003906v-379.992188c0-.171875 0-.339844-.011719-.511718zm-19.988281 370.5h-472v-293.964844h472zm0-313.972657h-472v-46.132812h472zm0 0"/><path d="m171 53.644531h-80c-5.523438 0-10-4.476562-10-10 0-5.527343 4.476562-10.003906 10-10.003906h80c5.523438 0 10 4.476563 10 10.003906 0 5.523438-4.476562 10-10 10zm0 0"/><path d="m51.019531 53.644531c-5.523437 0-10.003906-4.476562-10.003906-10 0-5.527343 4.472656-10.003906 9.996094-10.003906h.007812c5.523438 0 10 4.476563 10 10.003906 0 5.523438-4.476562 10-10 10zm0 0"/><path d="m454 112.585938h-396c-5.519531 0-10 4.46875-10 10v220.066406c0 5.523437 4.480469 10.003906 10 10.003906h396c5.519531 0 10-4.480469 10-10.003906v-220.066406c0-5.53125-4.480469-10-10-10zm-269.488281 119.992187 71.488281-57.207031 71.488281 57.207031zm86.488281 100.070313h-30v-35.570313h30zm50 0h-30v-45.574219c0-5.519531-4.480469-10-10-10h-50c-5.519531 0-10 4.480469-10 10v45.574219h-30v-80.023438h130zm123 0h-103v-80.0625h15c4.25 0 8.03125-2.679688 9.441406-6.691407 1.398438-4 .117188-8.460937-3.191406-11.125l-100-80.023437c-3.660156-2.921875-8.839844-2.921875-12.5 0l-100 80.023437c-3.308594 2.664063-4.589844 7.125-3.191406 11.125 1.410156 4.011719 5.191406 6.691407 9.441406 6.691407h15v80.0625h-103v-200.058594h376zm0 0"/></svg>