<svg height="511pt" viewBox="-26 0 511 511.99989" width="511pt" xmlns="http://www.w3.org/2000/svg"><path d="m456.746094 195.847656-95.792969-66.4375v-31.195312c4.550781-5.257813 6.875-10.863282 6.890625-16.304688h.015625v-53.003906h-.015625c-.046875-7.734375-4.742188-15.117188-14.304688-20.636719-21.214843-12.25-58.269531-10.710937-82.765624 3.429688-12.589844 7.269531-19.394532 16.453125-20.171876 25.324219l-.089843.007812v27.988281l-92.574219-53.097656c-14.621094-10.140625-34.8125-5.324219-43.28125 10.328125l-113.144531 209.117188c-2.367188 4.375-.300781 8.957031 3.265625 10.929687l-.003906.007813 28.585937 16.394531v125.542969c0 15.039062 8.027344 28.941406 21.054687 36.460937l139.078126 80.296875c21.164062 12.222656 47.242187 12.222656 68.410156 0l139.082031-80.296875c13.027344-7.519531 21.050781-21.421875 21.050781-36.460937v-154.386719l34.132813-20.078125c5.246093-3.027344 5.550781-10.480469.578125-13.929688zm0 0" fill="#d1d1d1"/><path d="m456.746094 195.847656-95.792969-66.4375v-31.195312c4.550781-5.257813 6.875-10.863282 6.890625-16.304688h.015625v-53.003906h-.015625c-.046875-7.734375-4.742188-15.117188-14.304688-20.636719-21.214843-12.25-58.269531-10.710937-82.765624 3.429688-12.589844 7.269531-19.394532 16.453125-20.171876 25.324219l-.089843.007812v27.988281l-92.574219-53.097656c-14.621094-10.140625-34.8125-5.324219-43.28125 10.328125l-113.144531 209.117188c-2.367188 4.375-.300781 8.957031 3.265625 10.929687l-.003906.007813 28.585937 16.394531v125.542969c0 15.039062 8.027344 28.941406 21.054687 36.460937l145.003907 83.71875c17.5 10.105469 39.058593 10.105469 56.558593 0l145.007813-83.71875c13.027344-7.519531 21.050781-21.421875 21.050781-36.460937v-154.386719l34.132813-20.078125c5.246093-3.027344 5.550781-10.480469.578125-13.929688zm0 0" fill="#d1d1d1"/><path d="m367.84375 28.90625c-.046875-7.734375-4.742188-15.117188-14.304688-20.636719-21.214843-12.25-58.269531-10.710937-82.765624 3.429688-12.589844 7.269531-19.394532 16.453125-20.171876 25.324219l-.089843.007812v54.167969h.015625c-.148438 7.910156 4.542968 15.484375 14.308594 21.117187 21.210937 12.25 58.265624 10.714844 82.761718-3.429687 13.371094-7.722657 20.222656-17.601563 20.246094-26.976563h.019531v-53.003906zm0 0" fill="#ebaf3c"/><path d="m227.695312 342.054688v142.347656c0 16.15625 17.488282 26.25 31.480469 18.171875l144.996094-83.710938c11.054687-6.382812 17.863281-18.175781 17.863281-30.941406v-158.070313zm0 0" fill="#e9e9e9"/><path d="m456.746094 195.847656-104.472656-72.460937c-1.433594-.992188-2.921876-1.839844-4.445313-2.546875l-189.890625-108.917969c-14.621094-10.140625-34.8125-5.324219-43.28125 10.328125l-113.144531 209.117188c-2.367188 4.375-.300781 8.957031 3.265625 10.929687l-.003906.007813 193.894531 111.1875c.273437.171874.546875.335937.835937.476562l.074219.042969.003906-.007813c2.183594 1.03125 4.839844 1.117188 7.386719-.351562l249.199219-143.875c5.246093-3.027344 5.550781-10.480469.578125-13.929688zm0 0" fill="#e9662c"/><path d="m308.996094 133.714844-113.144532 209.121094c-3.871093 7.148437 4.078126 14.882812 11.117188 10.816406l249.199219-143.875c5.246093-3.027344 5.550781-10.480469.578125-13.929688l-104.472656-72.457031c-14.621094-10.140625-34.8125-5.324219-43.277344 10.324219zm0 0" fill="#ebaf3c"/><path d="m292.273438 483.46875v-123.074219l78.507812-45.328125v123.074219zm0 0" fill="#33aeff"/><path d="m347.597656 56.054688c-24.496094 14.140624-61.550781 15.679687-82.765625 3.429687-21.214843-12.246094-18.550781-33.640625 5.941407-47.785156 24.496093-14.140625 61.550781-15.675781 82.765624-3.429688 21.214844 12.246094 18.554688 33.640625-5.941406 47.785157zm0 0" fill="#e9662c"/><path d="m330.683594 46.289062c-13.710938 7.914063-34.449219 8.773438-46.320313 1.917969-11.871093-6.851562-10.382812-18.828125 3.328125-26.742187 13.707032-7.914063 34.445313-8.773438 46.316406-1.917969 11.871094 6.851563 10.382813 18.824219-3.324218 26.742187zm0 0" fill="#af4d21"/></svg>