<?xml version="1.0" encoding="iso-8859-1"?>
<!-- Generator: Adobe Illustrator 19.0.0, SVG Export Plug-In . SVG Version: 6.00 Build 0)  -->
<svg version="1.1" id="Capa_1" xmlns="http://www.w3.org/2000/svg" xmlns:xlink="http://www.w3.org/1999/xlink" x="0px" y="0px"
	 viewBox="0 0 512 512" style="fill: #777" xml:space="preserve">
<circle style="fill:#EAE4D6;" cx="461.998" cy="118.957" r="41.923"/>
<path style="fill:#E2D9C7;" d="M451.678,124.917c-8.933-15.472-6.873-34.265,3.741-47.364c-4.928,0.782-9.8,2.453-14.379,5.097
	c-20.051,11.577-26.921,37.216-15.345,57.267s37.216,26.922,57.267,15.345c4.579-2.644,8.462-6.027,11.604-9.904
	C477.916,148.002,460.611,140.389,451.678,124.917z"/>
<path style="fill:#EAE4D6;" d="M352.541,84.507c-5.045,0-301.527,0-321.686,0c-13.161,0-23.929,10.769-23.929,23.929v24.55
	c0,13.162,10.769,23.929,23.929,23.929c5.045,0,301.527,0,321.686,0c13.161,0,23.929-10.769,23.929-23.929v-24.55
	C376.471,95.276,365.703,84.507,352.541,84.507z"/>
<path style="fill:#666666;" d="M69.481,84.507H30.855c-13.161,0-23.929,10.769-23.929,23.929v24.55
	c0,13.162,10.769,23.929,23.929,23.929h38.626C69.481,156.916,69.481,84.507,69.481,84.507z"/>
<path style="fill:#4F4D4D;" d="M36.927,133.59v-25.757c0-10.55,6.598-19.627,15.869-23.326H30.855
	c-13.161,0-23.929,10.769-23.929,23.929v24.55c0,13.161,10.769,23.929,23.929,23.929h21.941
	C43.526,153.217,36.927,144.14,36.927,133.59z"/>
<circle style="fill:#EAE4D6;" cx="461.998" cy="255.995" r="41.923"/>
<path style="fill:#E2D9C7;" d="M451.678,261.96c-8.933-15.472-6.873-34.265,3.741-47.363c-4.928,0.782-9.8,2.453-14.379,5.097
	c-20.051,11.577-26.921,37.216-15.345,57.267c11.576,20.051,37.216,26.922,57.267,15.345c4.579-2.644,8.462-6.027,11.604-9.904
	C477.916,285.045,460.611,277.432,451.678,261.96z"/>
<circle style="fill:#EAE4D6;" cx="461.998" cy="393.044" r="41.923"/>
<path style="fill:#E2D9C7;" d="M451.678,399.004c-8.933-15.472-6.873-34.265,3.741-47.364c-4.928,0.782-9.8,2.453-14.379,5.097
	c-20.051,11.577-26.921,37.216-15.345,57.267s37.216,26.922,57.267,15.345c4.579-2.644,8.462-6.027,11.604-9.904
	C477.916,422.089,460.611,414.476,451.678,399.004z"/>
<path style="fill:#EAE4D6;" d="M352.541,221.55c-5.045,0-301.527,0-321.686,0c-13.161,0-23.929,10.769-23.929,23.929v24.551
	c0,13.161,10.769,23.929,23.929,23.929c5.045,0,301.527,0,321.686,0c13.161,0,23.929-10.769,23.929-23.929v-24.55
	C376.471,232.319,365.703,221.55,352.541,221.55z"/>
<path style="fill:#666666;" d="M69.481,221.55H30.855c-13.161,0-23.929,10.769-23.929,23.929v24.551
	c0,13.161,10.769,23.929,23.929,23.929h38.626C69.481,293.96,69.481,221.55,69.481,221.55z"/>
<path style="fill:#4F4D4D;" d="M36.927,270.633v-25.757c0-10.55,6.598-19.627,15.869-23.326H30.855
	c-13.161,0-23.929,10.769-23.929,23.929v24.551c0,13.161,10.769,23.929,23.929,23.929h21.941
	C43.526,290.261,36.927,281.184,36.927,270.633z"/>
<path style="fill:#EAE4D6;" d="M352.541,358.595c-5.045,0-301.527,0-321.686,0c-13.161,0-23.929,10.769-23.929,23.929v24.55
	c0,13.161,10.769,23.929,23.929,23.929c5.045,0,301.527,0,321.686,0c13.161,0,23.929-10.769,23.929-23.929v-24.55
	C376.471,369.362,365.703,358.595,352.541,358.595z"/>
<path style="fill:#666666;" d="M69.481,358.595H30.855c-13.161,0-23.929,10.769-23.929,23.929v24.55
	c0,13.161,10.769,23.929,23.929,23.929h38.626C69.481,431.004,69.481,358.595,69.481,358.595z"/>
<path style="fill:#4F4D4D;" d="M36.927,407.678v-25.757c0-10.55,6.598-19.627,15.869-23.326H30.855
	c-13.161,0-23.929,10.769-23.929,23.929v24.55c0,13.161,10.769,23.929,23.929,23.929h21.941
	C43.526,427.305,36.927,418.227,36.927,407.678z"/>
<path d="M504.5,385.543c-4.143,0-7.5,3.357-7.5,7.5c0,18.98-15.442,34.422-34.422,34.422c-18.98,0-34.422-15.441-34.422-34.422
	c0-18.981,15.441-34.422,34.422-34.422c4.143,0,7.5-3.357,7.5-7.5c0-4.143-3.357-7.5-7.5-7.5c-27.252,0-49.423,22.171-49.423,49.423
	s22.171,49.423,49.423,49.423S512,420.295,512,393.044C512,388.901,508.642,385.543,504.5,385.543z"/>
<path d="M451.468,380.693c-2.709-3.132-7.445-3.477-10.58-0.767c-3.133,2.71-3.476,7.446-0.767,10.58l15.9,18.385
	c2.93,3.388,8.158,3.464,11.191,0.176l37.238-40.423c2.806-3.047,2.611-7.792-0.435-10.6c-3.046-2.804-7.791-2.61-10.599,0.435
	l-31.545,34.244L451.468,380.693z"/>
<path d="M288.641,402.299c4.143,0,7.5-3.358,7.5-7.5c0-4.143-3.357-7.5-7.5-7.5h-0.5c-4.142,0-7.5,3.357-7.5,7.5
	c0,4.142,3.358,7.5,7.5,7.5H288.641z"/>
<path d="M324.144,402.299c4.143,0,7.5-3.358,7.5-7.5c0-4.143-3.357-7.5-7.5-7.5h-0.5c-4.142,0-7.5,3.357-7.5,7.5
	c0,4.142,3.358,7.5,7.5,7.5H324.144z"/>
<path d="M182.135,402.299c4.143,0,7.5-3.358,7.5-7.5c0-4.143-3.357-7.5-7.5-7.5h-0.5c-4.142,0-7.5,3.357-7.5,7.5
	c0,4.142,3.358,7.5,7.5,7.5H182.135z"/>
<path d="M146.633,402.299c4.143,0,7.5-3.358,7.5-7.5c0-4.143-3.357-7.5-7.5-7.5h-0.5c-4.142,0-7.5,3.357-7.5,7.5
	c0,4.142,3.358,7.5,7.5,7.5H146.633z"/>
<path d="M111.131,387.298h-0.5c-4.143,0-7.5,3.357-7.5,7.5c0,4.142,3.357,7.5,7.5,7.5h0.5c4.143,0,7.5-3.358,7.5-7.5
	S115.274,387.298,111.131,387.298z"/>
<path d="M253.139,402.299c4.143,0,7.5-3.358,7.5-7.5c0-4.143-3.357-7.5-7.5-7.5h-0.5c-4.142,0-7.5,3.357-7.5,7.5
	c0,4.142,3.358,7.5,7.5,7.5H253.139z"/>
<path d="M225.138,394.799c0-4.143-3.357-7.5-7.5-7.5h-0.5c-4.142,0-7.5,3.357-7.5,7.5
	C209.637,404.797,225.138,404.813,225.138,394.799z"/>
<path d="M504.5,248.499c-4.143,0-7.5,3.357-7.5,7.5c0,18.98-15.442,34.422-34.422,34.422c-18.98,0-34.422-15.442-34.422-34.422
	s15.441-34.422,34.422-34.422c4.143,0,7.5-3.357,7.5-7.5c0-4.143-3.357-7.5-7.5-7.5c-27.252,0-49.423,22.171-49.423,49.423
	c0,27.252,22.171,49.423,49.423,49.423S512,283.251,512,255.999C512,251.857,508.642,248.499,504.5,248.499z"/>
<path d="M493.418,221.435l-31.545,34.244l-10.404-12.03c-2.709-3.132-7.445-3.477-10.58-0.767c-3.133,2.71-3.476,7.446-0.767,10.58
	l15.9,18.385c1.423,1.646,3.493,2.594,5.673,2.594c2.094,0,4.095-0.876,5.517-2.419l37.238-40.424
	c2.806-3.046,2.611-7.791-0.435-10.599C500.97,218.195,496.224,218.389,493.418,221.435z"/>
<path d="M146.133,250.255c-4.142,0-7.5,3.357-7.5,7.5c0,4.143,3.358,7.5,7.5,7.5h0.5c4.143,0,7.5-3.357,7.5-7.5s-3.357-7.5-7.5-7.5
	L146.133,250.255L146.133,250.255z"/>
<path d="M110.631,250.255c-4.143,0-7.5,3.357-7.5,7.5c0,4.143,3.357,7.5,7.5,7.5h0.5c4.143,0,7.5-3.357,7.5-7.5s-3.357-7.5-7.5-7.5
	L110.631,250.255L110.631,250.255z"/>
<path d="M181.635,250.255c-4.142,0-7.5,3.357-7.5,7.5c0,4.143,3.358,7.5,7.5,7.5h0.5c4.143,0,7.5-3.357,7.5-7.5s-3.357-7.5-7.5-7.5
	L181.635,250.255L181.635,250.255z"/>
<path d="M288.141,250.255c-4.142,0-7.5,3.357-7.5,7.5c0,4.143,3.358,7.5,7.5,7.5h0.5c4.143,0,7.5-3.357,7.5-7.5s-3.357-7.5-7.5-7.5
	L288.141,250.255L288.141,250.255z"/>
<path d="M217.137,250.255c-4.142,0-7.5,3.357-7.5,7.5c0,4.143,3.358,7.5,7.5,7.5h0.5c4.143,0,7.5-3.357,7.5-7.5s-3.357-7.5-7.5-7.5
	L217.137,250.255L217.137,250.255z"/>
<path d="M324.144,265.256c4.143,0,7.5-3.357,7.5-7.5s-3.357-7.5-7.5-7.5h-0.5c-4.142,0-7.5,3.357-7.5,7.5s3.358,7.5,7.5,7.5H324.144
	z"/>
<path d="M252.639,250.255c-4.142,0-7.5,3.357-7.5,7.5c0,4.143,3.358,7.5,7.5,7.5h0.5c4.143,0,7.5-3.357,7.5-7.5s-3.357-7.5-7.5-7.5
	L252.639,250.255L252.639,250.255z"/>
<path d="M462.577,168.379c27.252,0,49.423-22.171,49.423-49.423c0-4.143-3.358-7.5-7.5-7.5c-4.143,0-7.5,3.357-7.5,7.5
	c0,18.981-15.442,34.422-34.422,34.422c-18.98,0-34.422-15.441-34.422-34.422s15.441-34.422,34.422-34.422
	c4.143,0,7.5-3.357,7.5-7.5c0-4.143-3.357-7.5-7.5-7.5c-27.252,0-49.423,22.171-49.423,49.423S435.325,168.379,462.577,168.379z"/>
<path d="M451.468,106.605c-2.709-3.133-7.445-3.476-10.58-0.767c-3.133,2.71-3.476,7.446-0.767,10.58l15.9,18.385
	c2.909,3.364,8.133,3.49,11.191,0.176l37.238-40.423c2.806-3.047,2.611-7.792-0.435-10.6c-3.046-2.805-7.791-2.61-10.599,0.435
	l-31.545,34.244L451.468,106.605z"/>
<path d="M182.135,128.213c4.143,0,7.5-3.358,7.5-7.5c0-4.143-3.357-7.5-7.5-7.5h-0.5c-4.142,0-7.5,3.357-7.5,7.5s3.358,7.5,7.5,7.5
	H182.135z"/>
<path d="M110.631,128.213h0.5c4.143,0,7.5-3.358,7.5-7.5c0-4.143-3.357-7.5-7.5-7.5h-0.5c-4.143,0-7.5,3.357-7.5,7.5
	S106.487,128.213,110.631,128.213z"/>
<path d="M217.637,128.213c4.143,0,7.5-3.358,7.5-7.5c0-4.143-3.357-7.5-7.5-7.5h-0.5c-4.142,0-7.5,3.357-7.5,7.5s3.358,7.5,7.5,7.5
	H217.637z"/>
<path d="M146.633,128.213c4.143,0,7.5-3.358,7.5-7.5c0-4.143-3.357-7.5-7.5-7.5h-0.5c-4.142,0-7.5,3.357-7.5,7.5s3.358,7.5,7.5,7.5
	H146.633z"/>
<path d="M288.641,128.213c4.143,0,7.5-3.358,7.5-7.5c0-4.143-3.357-7.5-7.5-7.5h-0.5c-4.142,0-7.5,3.357-7.5,7.5s3.358,7.5,7.5,7.5
	H288.641z"/>
<path d="M324.144,128.213c4.143,0,7.5-3.358,7.5-7.5c0-4.143-3.357-7.5-7.5-7.5h-0.5c-4.142,0-7.5,3.357-7.5,7.5s3.358,7.5,7.5,7.5
	H324.144z"/>
<path d="M253.139,128.213c4.143,0,7.5-3.358,7.5-7.5c0-4.143-3.357-7.5-7.5-7.5h-0.5c-4.142,0-7.5,3.357-7.5,7.5s3.358,7.5,7.5,7.5
	H253.139z"/>
<path d="M353.116,77.007H128.132c-4.142,0-7.5,3.357-7.5,7.5s3.357,7.5,7.5,7.5h224.985c9.06,0,16.43,7.369,16.43,16.429v24.551
	c0,9.06-7.37,16.429-16.43,16.429H77.557V92.008H93.13c4.143,0,7.5-3.357,7.5-7.5s-3.357-7.5-7.5-7.5c-6.826,0-55.587,0-61.7,0
	C14.1,77.007,0,91.107,0,108.437v24.551c0,17.33,14.1,31.43,31.43,31.43h38.626h283.06c17.331,0,31.431-14.1,31.431-31.43v-24.551
	C384.546,91.107,370.447,77.007,353.116,77.007z M62.556,149.416H31.43c-9.06,0-16.429-7.369-16.429-16.429v-24.551
	c0-9.06,7.369-16.429,16.429-16.429h31.126C62.556,92.007,62.556,149.416,62.556,149.416z"/>
<path d="M353.116,214.05H70.056c-34.889,0.809-41.618-2.022-52.24,3.104C7.284,222.236,0,233.024,0,245.48
	c0,15.201,0,9.353,0,24.551c0,17.33,14.1,31.43,31.43,31.43c11.092,0,257.287,0,275.713,0c4.143,0,7.5-3.357,7.5-7.5
	s-3.357-7.5-7.5-7.5H77.557v-57.408h275.56c9.06,0,16.43,7.369,16.43,16.429v24.551c0,9.06-7.37,16.429-16.43,16.429h-10.972
	c-4.142,0-7.5,3.357-7.5,7.5s3.358,7.5,7.5,7.5h10.972c17.331,0,31.431-14.1,31.431-31.43v-24.551
	C384.546,228.15,370.447,214.05,353.116,214.05z M62.556,286.459H31.43c-9.06,0-16.429-7.369-16.429-16.429v-24.55
	c0-9.075,7.384-16.43,16.429-16.43h31.126C62.556,229.05,62.556,286.459,62.556,286.459z"/>
<path d="M353.116,351.093H31.43c-17.33,0-31.43,14.1-31.43,31.431v24.55c0,17.331,14.1,31.431,31.43,31.431c6.111,0,54.873,0,61.7,0
	c4.143,0,7.5-3.357,7.5-7.5s-3.357-7.5-7.5-7.5H77.557v-57.409h275.56c9.06,0,16.43,7.37,16.43,16.43v24.55
	c0,9.06-7.37,16.43-16.43,16.43H128.132c-4.142,0-7.5,3.357-7.5,7.5s3.357,7.5,7.5,7.5h224.985c17.331,0,31.431-14.1,31.431-31.431
	v-24.55C384.546,365.193,370.447,351.093,353.116,351.093z M62.556,423.505H31.43c-9.06,0-16.429-7.37-16.429-16.43
	c0.108-25.2-0.251-25.004,0.334-27.857c1.534-7.479,8.167-13.122,16.094-13.122h31.126L62.556,423.505L62.556,423.505z"/>
<g>
</g>
<g>
</g>
<g>
</g>
<g>
</g>
<g>
</g>
<g>
</g>
<g>
</g>
<g>
</g>
<g>
</g>
<g>
</g>
<g>
</g>
<g>
</g>
<g>
</g>
<g>
</g>
<g>
</g>
</svg>
