<?xml version="1.0" encoding="iso-8859-1"?>
<!-- Generator: Adobe Illustrator 19.0.0, SVG Export Plug-In . SVG Version: 6.00 Build 0)  -->
<svg version="1.1" id="Capa_1" xmlns="http://www.w3.org/2000/svg" xmlns:xlink="http://www.w3.org/1999/xlink" x="0px" y="0px"
	 viewBox="0 0 512 512" style="fill: #777" xml:space="preserve">
<circle style="fill:#EAE4D6;" cx="466.99" cy="115.365" r="43.02"/>
<path style="fill:#E2D9C7;" d="M456.399,121.479c-9.167-15.877-7.053-35.162,3.839-48.604c-5.057,0.803-10.056,2.518-14.755,5.231
	c-20.576,11.88-27.626,38.191-15.746,58.767s38.19,27.626,58.767,15.746c4.699-2.713,8.684-6.185,11.907-10.163
	C483.324,145.169,465.566,137.356,456.399,121.479z"/>
<path style="fill:#EAE4D6;" d="M354.667,80.012c-5.177,0-309.423,0-330.11,0C11.051,80.012,0,91.062,0,104.568v25.194
	c0,13.506,11.05,24.556,24.556,24.556c5.177,0,309.423,0,330.11,0c13.506,0,24.556-11.05,24.556-24.556v-25.194
	C379.223,91.062,368.172,80.012,354.667,80.012z"/>
<path style="fill:#92B620;" d="M460.268,131.625l-16.317-18.866c-2.781-3.215-2.428-8.076,0.787-10.857
	c3.216-2.78,8.076-2.428,10.857,0.787l10.676,12.345l32.371-35.141c2.88-3.126,7.75-3.324,10.876-0.446
	c3.126,2.88,3.326,7.75,0.446,10.877l-38.214,41.481C468.607,135.216,463.245,135.067,460.268,131.625z"/>
<path style="fill:#F9F6ED;" d="M324.935,124.862h-0.513c-4.251,0-7.697-3.446-7.697-7.697c0-10.259,15.907-10.275,15.907,0
	C332.632,121.416,329.186,124.862,324.935,124.862z M288.503,124.862h-0.513c-4.251,0-7.697-3.446-7.697-7.697
	s3.446-7.697,7.697-7.697h0.513c4.251,0,7.697,3.446,7.697,7.697C296.2,121.416,292.754,124.862,288.503,124.862z M252.072,124.862
	h-0.513c-4.251,0-7.697-3.446-7.697-7.697s3.446-7.697,7.697-7.697h0.513c4.251,0,7.697,3.446,7.697,7.697
	C259.768,121.416,256.322,124.862,252.072,124.862z M215.64,124.862h-0.513c-4.251,0-7.697-3.446-7.697-7.697
	s3.446-7.697,7.697-7.697h0.513c4.251,0,7.697,3.446,7.697,7.697S219.891,124.862,215.64,124.862z M179.208,124.862h-0.513
	c-4.251,0-7.697-3.446-7.697-7.697s3.446-7.697,7.697-7.697h0.513c4.251,0,7.697,3.446,7.697,7.697S183.459,124.862,179.208,124.862
	z M142.776,124.862h-0.513c-4.251,0-7.697-3.446-7.697-7.697s3.446-7.697,7.697-7.697h0.513c4.251,0,7.697,3.446,7.697,7.697
	S147.027,124.862,142.776,124.862z M106.344,124.862h-0.513c-4.251,0-7.697-3.446-7.697-7.697s3.446-7.697,7.697-7.697h0.513
	c4.251,0,7.697,3.446,7.697,7.697S110.595,124.862,106.344,124.862z"/>
<path style="fill:#666666;" d="M64.194,80.012H24.556C11.051,80.012,0,91.062,0,104.568v25.194c0,13.506,11.05,24.556,24.556,24.556
	h39.638V80.012z"/>
<path style="fill:#4F4D4D;" d="M30.787,130.38v-26.431c0-10.826,6.771-20.141,16.284-23.937H24.556C11.05,80.012,0,91.062,0,104.568
	v25.194c0,13.506,11.05,24.556,24.556,24.556h22.515C37.558,150.521,30.787,141.206,30.787,130.38z"/>
<circle style="fill:#EAE4D6;" cx="466.99" cy="255.995" r="43.02"/>
<path style="fill:#E2D9C7;" d="M456.399,262.111c-9.167-15.877-7.053-35.162,3.839-48.604c-5.057,0.803-10.056,2.518-14.755,5.231
	c-20.576,11.88-27.626,38.19-15.746,58.767s38.19,27.626,58.767,15.747c4.699-2.713,8.684-6.185,11.907-10.163
	C483.324,285.801,465.566,277.988,456.399,262.111z"/>
<circle style="fill:#EAE4D6;" cx="466.99" cy="396.625" r="43.02"/>
<path style="fill:#E2D9C7;" d="M456.399,402.744c-9.167-15.877-7.053-35.162,3.839-48.604c-5.057,0.803-10.056,2.518-14.755,5.231
	c-20.576,11.88-27.626,38.19-15.746,58.767s38.19,27.626,58.767,15.747c4.699-2.713,8.684-6.185,11.907-10.163
	C483.324,426.433,465.566,418.621,456.399,402.744z"/>
<g>
	<path style="fill:#92B620;" d="M460.268,272.257l-16.317-18.866c-2.781-3.215-2.428-8.076,0.787-10.857
		c3.216-2.78,8.076-2.428,10.857,0.787l10.676,12.345l32.371-35.141c2.88-3.126,7.75-3.324,10.876-0.446
		c3.126,2.88,3.326,7.75,0.446,10.877l-38.214,41.482C468.607,275.849,463.245,275.699,460.268,272.257z"/>
	<path style="fill:#92B620;" d="M460.268,412.889l-16.317-18.866c-2.781-3.215-2.428-8.076,0.787-10.857
		c3.216-2.78,8.076-2.428,10.857,0.787l10.676,12.345l32.371-35.141c2.88-3.126,7.75-3.324,10.876-0.446
		c3.126,2.88,3.326,7.75,0.446,10.877L471.75,413.07C468.607,416.481,463.245,416.332,460.268,412.889z"/>
</g>
<path style="fill:#EAE4D6;" d="M354.667,220.644c-5.177,0-309.423,0-330.11,0C11.051,220.644,0,231.694,0,245.2v25.194
	C0,283.9,11.05,294.95,24.556,294.95c5.177,0,309.423,0,330.11,0c13.506,0,24.556-11.05,24.556-24.556V245.2
	C379.223,231.694,368.172,220.644,354.667,220.644z"/>
<path style="fill:#F9F6ED;" d="M324.935,265.494h-0.513c-4.251,0-7.697-3.446-7.697-7.697c0-10.259,15.907-10.275,15.907,0
	C332.632,262.049,329.186,265.494,324.935,265.494z M288.503,265.494h-0.513c-4.251,0-7.697-3.446-7.697-7.697
	c0-4.251,3.446-7.697,7.697-7.697h0.513c4.251,0,7.697,3.446,7.697,7.697C296.2,262.049,292.754,265.494,288.503,265.494z
	 M252.072,265.494h-0.513c-4.251,0-7.697-3.446-7.697-7.697c0-4.251,3.446-7.697,7.697-7.697h0.513c4.251,0,7.697,3.446,7.697,7.697
	C259.768,262.049,256.322,265.494,252.072,265.494z M215.64,265.494h-0.513c-4.251,0-7.697-3.446-7.697-7.697
	c0-4.251,3.446-7.697,7.697-7.697h0.513c4.251,0,7.697,3.446,7.697,7.697C223.337,262.049,219.891,265.494,215.64,265.494z
	 M179.208,265.494h-0.513c-4.251,0-7.697-3.446-7.697-7.697c0-4.251,3.446-7.697,7.697-7.697h0.513c4.251,0,7.697,3.446,7.697,7.697
	C186.905,262.049,183.459,265.494,179.208,265.494z M142.776,265.494h-0.513c-4.251,0-7.697-3.446-7.697-7.697
	c0-4.251,3.446-7.697,7.697-7.697h0.513c4.251,0,7.697,3.446,7.697,7.697C150.473,262.049,147.027,265.494,142.776,265.494z
	 M106.344,265.494h-0.513c-4.251,0-7.697-3.446-7.697-7.697c0-4.251,3.446-7.697,7.697-7.697h0.513c4.251,0,7.697,3.446,7.697,7.697
	C114.041,262.049,110.595,265.494,106.344,265.494z"/>
<path style="fill:#666666;" d="M64.194,220.644H24.556C11.051,220.644,0,231.694,0,245.2v25.194C0,283.9,11.05,294.95,24.556,294.95
	h39.638V220.644z"/>
<path style="fill:#4F4D4D;" d="M30.787,271.012v-26.431c0-10.826,6.771-20.141,16.284-23.937H24.556
	C11.05,220.644,0,231.694,0,245.2v25.194C0,283.9,11.05,294.95,24.556,294.95h22.515C37.558,291.153,30.787,281.838,30.787,271.012z
	"/>
<path style="fill:#EAE4D6;" d="M354.667,361.276c-5.177,0-309.423,0-330.11,0C11.051,361.276,0,372.326,0,385.832v25.194
	c0,13.506,11.05,24.556,24.556,24.556c5.177,0,309.423,0,330.11,0c13.506,0,24.556-11.05,24.556-24.556v-25.194
	C379.223,372.326,368.172,361.276,354.667,361.276z"/>
<path style="fill:#F9F6ED;" d="M324.935,406.126h-0.513c-4.251,0-7.697-3.446-7.697-7.697c0-10.259,15.907-10.275,15.907,0
	C332.632,402.681,329.186,406.126,324.935,406.126z M288.503,406.126h-0.513c-4.251,0-7.697-3.446-7.697-7.697
	s3.446-7.697,7.697-7.697h0.513c4.251,0,7.697,3.446,7.697,7.697S292.754,406.126,288.503,406.126z M252.072,406.126h-0.513
	c-4.251,0-7.697-3.446-7.697-7.697s3.446-7.697,7.697-7.697h0.513c4.251,0,7.697,3.446,7.697,7.697S256.322,406.126,252.072,406.126
	z M215.64,406.126h-0.513c-4.251,0-7.697-3.446-7.697-7.697s3.446-7.697,7.697-7.697h0.513c4.251,0,7.697,3.446,7.697,7.697
	S219.891,406.126,215.64,406.126z M179.208,406.126h-0.513c-4.251,0-7.697-3.446-7.697-7.697s3.446-7.697,7.697-7.697h0.513
	c4.251,0,7.697,3.446,7.697,7.697S183.459,406.126,179.208,406.126z M142.776,406.126h-0.513c-4.251,0-7.697-3.446-7.697-7.697
	s3.446-7.697,7.697-7.697h0.513c4.251,0,7.697,3.446,7.697,7.697S147.027,406.126,142.776,406.126z M106.344,406.126h-0.513
	c-4.251,0-7.697-3.446-7.697-7.697s3.446-7.697,7.697-7.697h0.513c4.251,0,7.697,3.446,7.697,7.697S110.595,406.126,106.344,406.126
	z"/>
<path style="fill:#666666;" d="M64.194,361.276H24.556C11.051,361.276,0,372.326,0,385.832v25.194
	c0,13.506,11.05,24.556,24.556,24.556h39.638V361.276z"/>
<path style="fill:#4F4D4D;" d="M30.787,411.644v-26.431c0-10.826,6.771-20.141,16.284-23.937H24.556
	C11.05,361.276,0,372.326,0,385.832v25.194c0,13.506,11.05,24.556,24.556,24.556h22.515
	C37.558,431.785,30.787,422.47,30.787,411.644z"/>
<g>
</g>
<g>
</g>
<g>
</g>
<g>
</g>
<g>
</g>
<g>
</g>
<g>
</g>
<g>
</g>
<g>
</g>
<g>
</g>
<g>
</g>
<g>
</g>
<g>
</g>
<g>
</g>
<g>
</g>
</svg>
