<?xml version="1.0" encoding="iso-8859-1"?>
<!-- Generator: Adobe Illustrator 19.0.0, SVG Export Plug-In . SVG Version: 6.00 Build 0)  -->
<svg version="1.1" id="Capa_1" xmlns="http://www.w3.org/2000/svg" xmlns:xlink="http://www.w3.org/1999/xlink" x="0px" y="0px"
	 viewBox="0 0 512 512" style="enable-background:new 0 0 512 512;" xml:space="preserve">
<path style="fill:#546F7A;" d="M335.779,218.117l-41.693-41.693c-2.925-2.923-7.664-2.923-10.589,0L11.012,448.91
	c-14.412,14.412-14.413,37.866,0,52.281C18.218,508.398,27.685,512,37.151,512s18.933-3.602,26.14-10.809l272.487-272.487
	C338.702,225.78,338.702,221.04,335.779,218.117z"/>
<g>
	<path style="fill:#FFD039;" d="M507.372,44.001l-18.218-8.167c-5.874-2.632-10.56-7.318-13.194-13.193l-8.165-18.217
		C466.589,1.732,463.914,0,460.965,0c-2.95,0-5.626,1.732-6.831,4.425l-8.165,18.217c-2.634,5.875-7.32,10.561-13.195,13.194
		l-18.217,8.166c-2.692,1.207-4.425,3.882-4.425,6.831c0,2.95,1.732,5.626,4.425,6.831l18.217,8.165
		c5.875,2.634,10.561,7.32,13.195,13.195l8.165,18.217c1.206,2.692,3.882,4.425,6.831,4.425s5.626-1.732,6.831-4.425l8.165-18.217
		c2.634-5.875,7.32-10.561,13.195-13.195l18.217-8.165c2.692-1.206,4.425-3.882,4.425-6.831
		C511.798,47.884,510.064,45.208,507.372,44.001z"/>
	<path style="fill:#FFD039;" d="M482.727,251.194l-18.217-8.165c-5.875-2.634-10.561-7.32-13.195-13.195l-8.165-18.217
		c-1.206-2.692-3.882-4.425-6.831-4.425s-5.626,1.732-6.831,4.425l-8.165,18.217c-2.634,5.875-7.32,10.561-13.195,13.195
		l-18.217,8.165c-2.692,1.206-4.425,3.882-4.425,6.831s1.732,5.626,4.425,6.831l18.217,8.165c5.875,2.634,10.561,7.32,13.195,13.195
		l8.165,18.217c1.206,2.692,3.882,4.425,6.831,4.425s5.626-1.732,6.831-4.425l8.165-18.217c2.634-5.875,7.32-10.561,13.195-13.195
		l18.217-8.165c2.692-1.206,4.425-3.882,4.425-6.831C487.152,255.076,485.42,252.4,482.727,251.194z"/>
	<path style="fill:#FFD039;" d="M301.624,69.138l-23.865-10.696c-8.217-3.682-14.77-10.236-18.453-18.453L248.61,16.123
		c-1.207-2.692-3.882-4.425-6.831-4.425c-2.95,0-5.625,1.732-6.831,4.425l-10.696,23.865c-3.682,8.217-10.235,14.771-18.452,18.453
		l-23.865,10.696c-2.692,1.206-4.425,3.882-4.425,6.831c0,2.95,1.733,5.626,4.425,6.831l23.865,10.696
		c8.217,3.682,14.77,10.236,18.453,18.453l10.695,23.864c1.207,2.692,3.882,4.425,6.831,4.425c2.951,0,5.625-1.732,6.831-4.425
		l10.695-23.864c3.684-8.217,10.236-14.771,18.453-18.453l23.865-10.696c2.692-1.206,4.425-3.882,4.425-6.831
		C306.048,73.019,304.316,70.344,301.624,69.138z"/>
</g>
<path style="fill:#475D63;" d="M335.779,218.117l-17.508-17.507L40.5,478.4c-7.207,7.207-16.673,10.809-26.14,10.809
	c-4.103,0-8.206-0.68-12.125-2.033c1.77,5.123,4.693,9.932,8.776,14.015C18.218,508.398,27.685,512,37.151,512
	s18.933-3.602,26.14-10.809l272.487-272.487C338.702,225.78,338.702,221.04,335.779,218.117z"/>
<path style="fill:#E0E0E0;" d="M408.72,103.483c-14.414-14.412-37.866-14.412-52.281,0l-72.941,72.941
	c-2.924,2.925-2.924,7.664,0,10.588l41.693,41.693c1.462,1.461,3.379,2.192,5.294,2.192c1.915,0,3.832-0.731,5.294-2.192
	l72.941-72.941C423.132,141.349,423.132,117.896,408.72,103.483z"/>
<path style="fill:#C6C5CA;" d="M408.72,103.483c-4.083-4.082-8.893-7.006-14.015-8.776c4.478,12.961,1.554,27.935-8.777,38.266
	l-78.246,78.223l17.509,17.509c1.462,1.461,3.379,2.192,5.294,2.192c1.915,0,3.832-0.731,5.294-2.192l72.941-72.941
	C423.132,141.349,423.132,117.896,408.72,103.483z"/>
<g>
</g>
<g>
</g>
<g>
</g>
<g>
</g>
<g>
</g>
<g>
</g>
<g>
</g>
<g>
</g>
<g>
</g>
<g>
</g>
<g>
</g>
<g>
</g>
<g>
</g>
<g>
</g>
<g>
</g>
</svg>
