<?xml version="1.0" encoding="iso-8859-1"?>
<!-- Generator: Adobe Illustrator 19.0.0, SVG Export Plug-In . SVG Version: 6.00 Build 0)  -->
<svg version="1.1" id="Capa_1" xmlns="http://www.w3.org/2000/svg" xmlns:xlink="http://www.w3.org/1999/xlink" x="0px" y="0px"
	 viewBox="0 0 512.001 512.001" style="enable-background:new 0 0 512.001 512.001;" xml:space="preserve">
<path style="fill:#FF434D;" d="M188.742,282.836L12.691,115.58c-2.178-2.068-5.38-2.641-8.141-1.457
	c-2.76,1.184-4.55,3.9-4.55,6.904v334.514c0,3.005,1.789,5.72,4.551,6.905c0.955,0.41,1.963,0.609,2.963,0.609
	c1.891,0,3.753-0.713,5.177-2.067l176.051-167.258c1.493-1.419,2.339-3.389,2.339-5.449
	C191.08,286.225,190.235,284.255,188.742,282.836z"/>
<path style="fill:#DD3646;" d="M4.551,462.447c0.955,0.41,1.963,0.609,2.963,0.609c1.891,0,3.753-0.713,5.177-2.067l176.051-167.258
	c1.493-1.419,2.339-3.389,2.339-5.449s-0.846-4.029-2.339-5.449L12.691,115.58c-2.178-2.068-5.38-2.641-8.141-1.457
	c-2.76,1.184-4.55,3.9-4.55,6.904v19.514l155.511,147.743L0,436.028v19.515C0,458.547,1.789,461.262,4.551,462.447z"/>
<path style="fill:#FF434D;" d="M507.449,114.122c-2.76-1.185-5.963-0.612-8.14,1.457L323.258,282.836
	c-1.493,1.419-2.339,3.389-2.339,5.449s0.846,4.029,2.339,5.449L499.31,460.99c1.425,1.354,3.286,2.067,5.177,2.067
	c1,0,2.008-0.199,2.963-0.609c2.76-1.185,4.551-3.901,4.551-6.905V121.027C512,118.023,510.21,115.307,507.449,114.122z"/>
<path style="fill:#DD3646;" d="M507.449,114.122c-2.76-1.185-5.963-0.612-8.14,1.457l-19.873,18.881v153.824v153.824l19.874,18.881
	c1.425,1.354,3.286,2.067,5.177,2.067c1,0,2.008-0.199,2.963-0.609c2.76-1.185,4.551-3.901,4.551-6.905V121.027
	C512,118.023,510.21,115.307,507.449,114.122z"/>
<path style="fill:#FF6137;" d="M255.499,479.447c-4.15,0-7.515-3.364-7.515-7.515v-15.029c0-4.151,3.365-7.515,7.515-7.515
	c4.15,0,7.515,3.364,7.515,7.515v15.029C263.014,476.083,259.649,479.447,255.499,479.447z M255.499,436.363
	c-4.15,0-7.515-3.364-7.515-7.515v-15.029c0-4.151,3.365-7.515,7.515-7.515c4.15,0,7.515,3.364,7.515,7.515v15.029
	C263.014,432.999,259.649,436.363,255.499,436.363z M255.499,393.279c-4.15,0-7.515-3.364-7.515-7.515v-15.029
	c0-4.151,3.365-7.515,7.515-7.515c4.15,0,7.515,3.364,7.515,7.515v15.029C263.014,389.915,259.649,393.279,255.499,393.279z
	 M255.499,350.195c-4.15,0-7.515-3.364-7.515-7.515v-15.029c0-4.151,3.365-7.515,7.515-7.515c4.15,0,7.515,3.364,7.515,7.515v15.029
	C263.014,346.83,259.649,350.195,255.499,350.195z M255.499,307.111c-4.15,0-7.515-3.364-7.515-7.515v-15.029
	c0-4.151,3.365-7.515,7.515-7.515c4.15,0,7.515,3.364,7.515,7.515v15.029C263.014,303.746,259.649,307.111,255.499,307.111z
	 M255.499,264.027c-4.15,0-7.515-3.364-7.515-7.515v-15.029c0-4.151,3.365-7.515,7.515-7.515c4.15,0,7.515,3.364,7.515,7.515v15.029
	C263.014,260.662,259.649,264.027,255.499,264.027z M255.499,220.943c-4.15,0-7.515-3.364-7.515-7.515v-15.029
	c0-4.151,3.365-7.515,7.515-7.515c4.15,0,7.515,3.364,7.515,7.515v15.029C263.014,217.578,259.649,220.943,255.499,220.943z
	 M255.499,177.858c-4.15,0-7.515-3.364-7.515-7.515v-15.029c0-4.151,3.365-7.515,7.515-7.515c4.15,0,7.515,3.364,7.515,7.515v15.029
	C263.014,174.494,259.649,177.858,255.499,177.858z M255.499,134.774c-4.15,0-7.515-3.364-7.515-7.515v-14.786
	c0-4.151,3.365-7.515,7.515-7.515c4.15,0,7.515,3.364,7.515,7.515v14.786C263.014,131.41,259.649,134.774,255.499,134.774z"/>
<path style="fill:#FFA304;" d="M422.046,120.803c0.115-0.128,0.229-0.259,0.335-0.393c0.055-0.07,0.105-0.142,0.157-0.214
	c0.103-0.142,0.203-0.287,0.296-0.435c0.046-0.074,0.089-0.149,0.133-0.225c0.087-0.151,0.168-0.304,0.243-0.459
	c0.039-0.081,0.078-0.163,0.114-0.245c0.068-0.154,0.13-0.31,0.187-0.468c0.032-0.089,0.065-0.177,0.094-0.268
	c0.051-0.157,0.093-0.317,0.133-0.477c0.023-0.092,0.049-0.184,0.069-0.278c0.036-0.173,0.063-0.349,0.087-0.524
	c0.011-0.081,0.027-0.16,0.036-0.242c0.027-0.258,0.042-0.516,0.042-0.775c0-0.003,0.001-0.007,0.001-0.01V76.012
	c0-4.151-3.365-7.515-7.515-7.515c-4.15,0-7.515,3.364-7.515,7.515v20.211c-40.087-40.677-94.546-63.67-152.256-63.67
	c-64.386,0-124.739,28.603-165.583,78.475c-2.63,3.21-2.158,7.946,1.052,10.576c3.211,2.629,7.947,2.158,10.575-1.053
	c37.979-46.373,94.094-72.969,153.957-72.969c52.681,0,102.452,20.605,139.522,57.152l-19.419-3.293
	c-4.09-0.698-7.972,2.062-8.665,6.153c-0.693,4.092,2.061,7.972,6.153,8.665l40.924,6.941c0.047,0.008,0.094,0.005,0.142,0.012
	c0.367,0.055,0.735,0.092,1.106,0.093c0.003,0,0.005,0.001,0.008,0.001c0.001,0,0.002,0,0.002,0c0.001,0,0.002,0,0.002,0
	c0.002,0,0.004,0,0.006,0c0.397-0.001,0.791-0.036,1.179-0.099c0.032-0.005,0.064-0.007,0.096-0.013
	c0.374-0.065,0.741-0.162,1.1-0.284c0.049-0.016,0.098-0.029,0.146-0.046c0.358-0.128,0.704-0.288,1.041-0.47
	c0.044-0.024,0.089-0.044,0.132-0.069c0.348-0.197,0.679-0.426,0.995-0.678c0.02-0.016,0.042-0.026,0.062-0.042
	c0.014-0.012,0.026-0.025,0.04-0.036c0.016-0.013,0.032-0.024,0.048-0.037c0.063-0.053,0.118-0.114,0.18-0.169
	c0.125-0.113,0.25-0.226,0.367-0.347C421.922,120.946,421.983,120.874,422.046,120.803z"/>
<g>
</g>
<g>
</g>
<g>
</g>
<g>
</g>
<g>
</g>
<g>
</g>
<g>
</g>
<g>
</g>
<g>
</g>
<g>
</g>
<g>
</g>
<g>
</g>
<g>
</g>
<g>
</g>
<g>
</g>
</svg>
