<?xml version="1.0" encoding="iso-8859-1"?>
<!-- Generator: Adobe Illustrator 19.0.0, SVG Export Plug-In . SVG Version: 6.00 Build 0)  -->
<svg version="1.1" id="Capa_1" xmlns="http://www.w3.org/2000/svg" xmlns:xlink="http://www.w3.org/1999/xlink" x="0px" y="0px"
	 viewBox="0 0 512 512" style="enable-background:new 0 0 512 512;" xml:space="preserve">
<path style="fill:#FFC89F;" d="M399.407,392.73c0,1.102,0.228,2.207,0.718,3.232l31.473,65.815c1.245,2.604,3.874,4.261,6.761,4.261
	s5.515-1.657,6.761-4.261l31.472-65.815c0.491-1.026,0.718-2.131,0.718-3.232H399.407z"/>
<path style="fill:#FFA304;" d="M127.129,450.45H83.146c-4.138,0-7.493,3.355-7.493,7.493v46.564c0,2.793,1.555,5.355,4.031,6.646
	c2.478,1.291,5.468,1.096,7.757-0.506l17.696-12.379l17.696,12.379c1.283,0.897,2.786,1.353,4.295,1.353
	c1.184,0,2.372-0.28,3.461-0.847c2.478-1.29,4.031-3.851,4.031-6.646v-46.564C134.622,453.805,131.267,450.45,127.129,450.45z"/>
<path style="fill:#FF434D;" d="M334.312,0H42.131c-4.138,0-7.493,3.355-7.493,7.493v450.45c0,4.138,3.355,7.493,7.493,7.493h292.182
	c20.659,0,37.465-16.806,37.465-37.465V37.465C371.777,16.806,354.971,0,334.312,0z"/>
<g>
	<path style="fill:#DD3646;" d="M334.312,0h-33.952c20.659,0,37.465,16.806,37.465,37.465v390.506
		c0,20.659-16.806,37.465-37.465,37.465h33.952c20.659,0,37.465-16.806,37.465-37.465V37.465C371.777,16.806,354.971,0,334.312,0z"
		/>
	<rect x="241.442" style="fill:#DD3646;" width="17.484" height="465.437"/>
</g>
<rect x="258.926" style="fill:#FFD039;" width="45.821" height="465.437"/>
<path style="fill:#F7B081;" d="M431.598,461.778c1.245,2.604,3.874,4.261,6.761,4.261s5.515-1.657,6.761-4.261l31.472-65.815
	c0.491-1.026,0.718-2.131,0.718-3.232h-32.455l-23.137,48.384L431.598,461.778z"/>
<path style="fill:#FFD039;" d="M477.353,392.73c0-0.023,0.004-0.045,0.004-0.068V84.996c0-4.138-3.354-7.493-7.493-7.493h-63.01
	c-4.139,0-7.493,3.355-7.493,7.493v307.666c0,0.022,0.004,0.045,0.004,0.068L477.353,392.73L477.353,392.73z"/>
<path style="fill:#FFA304;" d="M477.357,84.996c0-4.138-3.354-7.493-7.493-7.493h-24.956v315.153l-0.054,0.074h32.499
	c0-0.023,0.004-0.045,0.004-0.068V84.996z"/>
<path style="fill:#3C5156;" d="M445.119,461.778l19.817-41.44h-53.154l19.817,41.44c1.245,2.604,3.874,4.261,6.761,4.261
	C441.245,466.038,443.874,464.381,445.119,461.778z"/>
<path style="fill:#304144;" d="M431.652,420.337l-9.936,20.777l9.882,20.664c1.245,2.604,3.874,4.261,6.761,4.261
	s5.515-1.657,6.761-4.261l19.817-41.44H431.652z"/>
<rect x="399.365" y="43.41" style="fill:#FF6137;" width="77.997" height="49.074"/>
<rect x="444.883" y="43.41" style="fill:#E04F32;" width="32.47" height="49.074"/>
<path style="fill:#546F7A;" d="M454.662,0h-32.606c-12.534,0-22.696,10.162-22.696,22.696v35.703h77.996V22.695
	C477.357,10.161,467.195,0,454.662,0z"/>
<path style="fill:#475D63;" d="M454.662,0h-32.503c12.534,0,22.695,10.161,22.695,22.695v35.704h32.503V22.695
	C477.357,10.161,467.195,0,454.662,0z"/>
<g>
</g>
<g>
</g>
<g>
</g>
<g>
</g>
<g>
</g>
<g>
</g>
<g>
</g>
<g>
</g>
<g>
</g>
<g>
</g>
<g>
</g>
<g>
</g>
<g>
</g>
<g>
</g>
<g>
</g>
</svg>
