<?xml version="1.0" encoding="iso-8859-1"?>
<!-- Generator: Adobe Illustrator 19.0.0, SVG Export Plug-In . SVG Version: 6.00 Build 0)  -->
<svg version="1.1" id="Capa_1" xmlns="http://www.w3.org/2000/svg" xmlns:xlink="http://www.w3.org/1999/xlink" x="0px" y="0px"
	 viewBox="0 0 511.999 511.999" style="enable-background:new 0 0 511.999 511.999;" xml:space="preserve">
<path style="fill:#FF434D;" d="M392.914,232.317H113.666c-4.132,0-7.483,3.35-7.483,7.483c0,50.655,41.211,91.865,91.866,91.865
	h6.695v131.789c0,26.769,21.777,48.546,48.546,48.546s48.546-21.777,48.546-48.546V331.666h6.695
	c50.655,0,91.866-41.211,91.866-91.865C400.397,235.667,397.047,232.317,392.914,232.317z"/>
<path style="fill:#DD3646;" d="M392.914,232.317h-23.368c-0.803,49.966-41.692,90.368-91.847,90.368h-6.695v131.789
	c0,25.879-20.355,47.088-45.894,48.47c7.952,5.691,17.678,9.054,28.18,9.054c26.769,0,48.546-21.777,48.546-48.546V331.666h6.695
	c50.655,0,91.866-41.211,91.866-91.865C400.397,235.667,397.047,232.317,392.914,232.317z"/>
<path style="fill:#FFD039;" d="M392.914,0H113.666c-4.132,0-7.483,3.35-7.483,7.483v181.12c0,4.132,3.35,7.483,7.483,7.483h279.248
	c4.132,0,7.483-3.35,7.483-7.483V7.483C400.397,3.35,397.047,0,392.914,0z"/>
<path style="fill:#FFAE47;" d="M392.914,0h-24.942v196.085h24.942c4.132,0,7.483-3.35,7.483-7.483V7.483
	C400.397,3.35,397.047,0,392.914,0z"/>
<path style="fill:#FF434D;" d="M313.327,0h-156.44v127.25c0,17.027,13.325,31.439,30.345,31.945
	c17.686,0.526,32.241-13.709,32.241-31.278V92.824c0-7.988,6.127-14.872,14.105-15.266c8.529-0.421,15.602,6.397,15.602,14.835
	v16.496c0,17.945,14.685,33.013,32.628,32.708c17.43-0.296,31.52-14.569,31.52-32.069V0z"/>
<g>
	<path style="fill:#DD3646;" d="M213.731,77.557c-7.978,0.393-14.105,7.277-14.105,15.265v35.093
		c0,13.771-8.943,25.491-21.325,29.662c2.813,0.959,5.809,1.523,8.931,1.616c17.686,0.526,32.241-13.709,32.241-31.278V92.824
		c0-4.46,1.912-8.572,4.986-11.405C221.649,78.86,217.865,77.354,213.731,77.557z"/>
	<path style="fill:#DD3646;" d="M281.23,0v109.527c0,11.789-6.398,22.104-15.899,27.678c4.844,2.869,10.476,4.493,16.476,4.391
		c17.43-0.297,31.52-14.569,31.52-32.069V0H281.23z"/>
</g>
<g>
	<path style="fill:#FFD039;" d="M97.68,152.776l-18.209-8.161c-5.872-2.632-10.556-7.315-13.187-13.187l-8.161-18.209
		c-1.206-2.691-3.88-4.423-6.828-4.423c-2.948,0-5.622,1.732-6.828,4.423l-8.161,18.209c-2.632,5.872-7.315,10.555-13.187,13.187
		L4.91,152.776c-2.691,1.206-4.423,3.88-4.423,6.828c0,2.949,1.732,5.622,4.423,6.828l18.209,8.161
		c5.872,2.632,10.555,7.315,13.187,13.187l8.161,18.209c1.206,2.691,3.88,4.423,6.828,4.423c2.949,0,5.622-1.732,6.828-4.423
		l8.161-18.209c2.632-5.872,7.316-10.556,13.187-13.187l18.209-8.161c2.691-1.206,4.423-3.88,4.423-6.828
		C102.102,156.656,100.37,153.982,97.68,152.776z"/>
	<path style="fill:#FFD039;" d="M507.089,96.718l-18.209-8.161c-5.872-2.632-10.556-7.316-13.187-13.187l-8.161-18.209
		c-1.206-2.691-3.88-4.423-6.828-4.423c-2.949,0-5.622,1.732-6.828,4.423l-8.161,18.209c-2.632,5.872-7.315,10.555-13.187,13.187
		l-18.209,8.161c-2.691,1.206-4.423,3.88-4.423,6.828c0,2.949,1.732,5.622,4.423,6.828l18.209,8.161
		c5.872,2.632,10.556,7.315,13.187,13.187l8.161,18.209c1.206,2.691,3.88,4.423,6.828,4.423c2.949,0,5.622-1.732,6.828-4.423
		l8.161-18.209c2.632-5.872,7.316-10.555,13.187-13.187l18.209-8.161c2.691-1.206,4.423-3.88,4.423-6.828
		C511.512,100.598,509.78,97.925,507.089,96.718z"/>
	<path style="fill:#FFD039;" d="M463.764,335.353l-18.209-8.161c-5.872-2.632-10.556-7.315-13.187-13.187l-8.161-18.209
		c-1.206-2.691-3.88-4.423-6.828-4.423c-2.949,0-5.622,1.732-6.828,4.423l-8.16,18.209c-2.632,5.872-7.316,10.555-13.188,13.187
		l-18.209,8.161c-2.691,1.206-4.423,3.88-4.423,6.828c0,2.948,1.732,5.622,4.423,6.828l18.209,8.161
		c5.872,2.632,10.556,7.315,13.187,13.187l8.161,18.209c1.206,2.691,3.88,4.423,6.828,4.423c2.949,0,5.622-1.732,6.828-4.423
		l8.161-18.209c2.632-5.872,7.315-10.556,13.187-13.187l18.209-8.161c2.691-1.206,4.423-3.88,4.423-6.828
		C468.187,339.233,466.455,336.559,463.764,335.353z"/>
</g>
<path style="fill:#FF434D;" d="M131.44,331.215c-1.422-1.638-3.484-2.579-5.652-2.579c-2.169,0-4.231,0.941-5.653,2.579
	c-4.375,5.044-42.743,49.988-42.743,74.665c0,26.686,21.71,48.396,48.396,48.396s48.396-21.71,48.396-48.396
	C174.183,381.203,135.815,336.259,131.44,331.215z"/>
<path style="fill:#DD3646;" d="M131.44,331.215c-1.422-1.638-3.484-2.579-5.652-2.579c-2.169,0-4.231,0.941-5.653,2.579
	c-1.266,1.46-5.382,6.265-10.588,12.951c12.784,16.415,32.156,44.18,32.156,61.714c0,20.99-13.436,38.894-32.156,45.585
	c5.079,1.815,10.545,2.811,16.241,2.811c26.686,0,48.396-21.71,48.396-48.396C174.183,381.203,135.815,336.259,131.44,331.215z"/>
<path style="fill:#546F7A;" d="M405.792,181.12H100.788c-4.132,0-7.483,3.35-7.483,7.483v51.199c0,4.132,3.35,7.483,7.483,7.483
	h305.004c4.132,0,7.483-3.35,7.483-7.483v-51.199C413.275,184.469,409.925,181.12,405.792,181.12z"/>
<path style="fill:#475D63;" d="M405.792,181.12H380.85v66.164h24.942c4.132,0,7.483-3.35,7.483-7.483v-51.199
	C413.275,184.469,409.925,181.12,405.792,181.12z"/>
<g>
</g>
<g>
</g>
<g>
</g>
<g>
</g>
<g>
</g>
<g>
</g>
<g>
</g>
<g>
</g>
<g>
</g>
<g>
</g>
<g>
</g>
<g>
</g>
<g>
</g>
<g>
</g>
<g>
</g>
</svg>
