<?xml version="1.0" encoding="iso-8859-1"?>
<!-- Generator: Adobe Illustrator 19.0.0, SVG Export Plug-In . SVG Version: 6.00 Build 0)  -->
<svg version="1.1" id="Capa_1" xmlns="http://www.w3.org/2000/svg" xmlns:xlink="http://www.w3.org/1999/xlink" x="0px" y="0px"
	 viewBox="0 0 512 512" style="enable-background:new 0 0 512 512;" xml:space="preserve">
<path style="fill:#3A4D51;" d="M256.013,320.663c-4.136,0-7.487-3.352-7.487-7.487v-82.75c0-11.397,8.537-20.988,19.857-22.31
	l222.024-25.927c3.773-0.44,6.619-3.638,6.619-7.436V88.999c0-4.128-3.358-7.487-7.487-7.487H464.54
	c-4.136,0-7.487-3.352-7.487-7.487c0-4.135,3.351-7.487,7.487-7.487h24.998c12.385,0,22.462,10.076,22.462,22.462v85.752
	c0,11.397-8.537,20.988-19.857,22.31L270.12,222.989c-3.773,0.44-6.619,3.638-6.619,7.436v82.75
	C263.501,317.31,260.15,320.663,256.013,320.663z"/>
<path style="fill:#FF434D;" d="M209.682,132.762H68.115c-4.136,0-7.487,3.352-7.487,7.487v120.512
	c0,17.266,14.047,31.313,31.313,31.313s31.312-14.047,31.312-31.313v-35.546c0-8.195,6.668-14.863,14.864-14.863
	c8.195,0,14.863,6.668,14.863,14.863v17.145c0,17.696,14.398,32.094,32.094,32.094c17.697,0,32.094-14.398,32.094-32.094V140.25
	C217.169,136.115,213.818,132.762,209.682,132.762z"/>
<path style="fill:#DD3646;" d="M209.682,132.762H68.115c-4.136,0-7.487,3.352-7.487,7.487v23.96h156.541v-23.96
	C217.169,136.115,213.818,132.762,209.682,132.762z"/>
<path style="fill:#FF6137;" d="M32.755,33.571H7.487C3.351,33.571,0,36.924,0,41.059v65.93c0,4.135,3.351,7.487,7.487,7.487h25.267
	c4.136,0,7.487-3.352,7.487-7.487v-65.93C40.242,36.924,36.89,33.571,32.755,33.571z"/>
<path style="fill:#FFD039;" d="M449.565,0.672H47.73c-12.385,0-22.462,10.076-22.462,22.462v101.779
	c0,12.386,10.077,22.462,22.462,22.462h401.837c12.385,0,22.462-10.076,22.462-22.462V23.134
	C472.027,10.748,461.95,0.672,449.565,0.672z"/>
<path style="fill:#FFAE47;" d="M449.565,115.055H47.73c-12.385,0-22.462-10.076-22.462-22.462v32.321
	c0,12.386,10.077,22.462,22.462,22.462h401.837c12.385,0,22.462-10.076,22.462-22.462V92.593
	C472.027,104.979,461.95,115.055,449.565,115.055z"/>
<path style="fill:#546F7A;" d="M288.227,305.688h-62.912c-4.136,0-7.487,3.352-7.487,7.487v159.211
	c0,21.473,17.47,38.942,38.943,38.942s38.943-17.47,38.943-38.942V313.175C295.715,309.04,292.362,305.688,288.227,305.688z"/>
<path style="fill:#475D63;" d="M288.227,305.688h-31.798c4.136,0,7.487,3.352,7.487,7.487v159.211
	c0,15.811-9.477,29.441-23.044,35.535c4.859,2.182,10.237,3.407,15.899,3.407c21.474,0,38.943-17.47,38.943-38.942V313.175
	C295.715,309.04,292.362,305.688,288.227,305.688z"/>
<g>
	<path style="fill:#FFD039;" d="M409.082,379.917l-18.22-8.166c-5.876-2.634-10.562-7.321-13.197-13.196l-8.166-18.22
		c-1.206-2.692-3.882-4.426-6.832-4.426s-5.626,1.733-6.832,4.425l-8.168,18.221c-2.633,5.876-7.319,10.562-13.195,13.196
		l-18.22,8.166c-2.692,1.207-4.426,3.882-4.426,6.832c0,2.95,1.732,5.626,4.426,6.832l18.22,8.166
		c5.876,2.634,10.562,7.32,13.196,13.197l8.167,18.22c1.207,2.692,3.882,4.425,6.832,4.425s5.626-1.733,6.832-4.426l8.166-18.22
		c2.635-5.876,7.321-10.563,13.197-13.196l18.22-8.166c2.692-1.207,4.426-3.882,4.426-6.832
		C413.507,383.799,411.774,381.124,409.082,379.917z"/>
	<path style="fill:#FFD039;" d="M506.962,259.117l-18.22-8.166c-5.876-2.634-10.562-7.32-13.197-13.196l-8.166-18.22
		c-1.206-2.692-3.882-4.426-6.832-4.426s-5.626,1.733-6.832,4.426l-8.166,18.22c-2.635,5.876-7.321,10.562-13.197,13.196
		l-18.22,8.166c-2.692,1.207-4.426,3.882-4.426,6.832s1.732,5.626,4.426,6.832l18.22,8.166c5.876,2.634,10.562,7.32,13.197,13.196
		l8.166,18.22c1.206,2.692,3.882,4.426,6.832,4.426s5.626-1.733,6.832-4.426l8.166-18.22c2.635-5.876,7.321-10.563,13.197-13.196
		l18.22-8.166c2.692-1.207,4.426-3.882,4.426-6.832C511.387,263,509.655,260.324,506.962,259.117z"/>
</g>
<path style="fill:#FF434D;" d="M97.345,304.875c-1.422-1.639-3.485-2.581-5.655-2.581c-2.17,0-4.234,0.941-5.655,2.581
	c-4.379,5.048-42.772,50.021-42.772,74.713c0,26.703,21.724,48.427,48.427,48.427s48.428-21.724,48.428-48.427
	C140.118,354.896,101.724,309.922,97.345,304.875z"/>
<path style="fill:#DD3646;" d="M97.345,304.875c-1.422-1.639-3.485-2.581-5.655-2.581c-2.17,0-4.234,0.941-5.655,2.581
	c-1.249,1.44-5.269,6.133-10.375,12.675c12.788,16.386,32.398,44.39,32.398,62.038c0,21.085-13.551,39.057-32.398,45.689
	c5.021,1.767,10.412,2.738,16.03,2.738c26.703,0,48.428-21.724,48.428-48.427C140.118,354.896,101.724,309.922,97.345,304.875z"/>
<g>
</g>
<g>
</g>
<g>
</g>
<g>
</g>
<g>
</g>
<g>
</g>
<g>
</g>
<g>
</g>
<g>
</g>
<g>
</g>
<g>
</g>
<g>
</g>
<g>
</g>
<g>
</g>
<g>
</g>
</svg>
