<?xml version="1.0" encoding="iso-8859-1"?>
<!-- Generator: Adobe Illustrator 19.0.0, SVG Export Plug-In . SVG Version: 6.00 Build 0)  -->
<svg version="1.1" id="Capa_1" xmlns="http://www.w3.org/2000/svg" xmlns:xlink="http://www.w3.org/1999/xlink" x="0px" y="0px"
	 viewBox="0 0 512 512" style="enable-background:new 0 0 512 512;" xml:space="preserve">
<polygon style="fill:#3B4145;" points="474.5,226 444.5,256 474.5,286 504.5,286 504.5,226 "/>
<polygon style="fill:#525A61;" points="474.5,226 286,226 286,7.5 256,7.5 226,7.5 226,226 7.5,226 7.5,286 226,286 226,504.5 
	256,504.5 286,504.5 286,286 474.5,286 "/>
<path d="M504.5,218.5h-211V7.5c0-4.143-3.357-7.5-7.5-7.5h-60c-4.143,0-7.5,3.357-7.5,7.5v211H7.5c-4.143,0-7.5,3.357-7.5,7.5v60
	c0,4.143,3.357,7.5,7.5,7.5h45c4.143,0,7.5-3.357,7.5-7.5s-3.357-7.5-7.5-7.5H15v-45h211c4.143,0,7.5-3.357,7.5-7.5V15h45v211
	c0,4.143,3.357,7.5,7.5,7.5h211v45H286c-4.143,0-7.5,3.357-7.5,7.5v211h-45V286c0-4.143-3.357-7.5-7.5-7.5H82.5
	c-4.143,0-7.5,3.357-7.5,7.5s3.357,7.5,7.5,7.5h136v211c0,4.143,3.357,7.5,7.5,7.5h60c4.143,0,7.5-3.357,7.5-7.5v-211h211
	c4.143,0,7.5-3.357,7.5-7.5v-60C512,221.857,508.643,218.5,504.5,218.5z"/>
<g>
</g>
<g>
</g>
<g>
</g>
<g>
</g>
<g>
</g>
<g>
</g>
<g>
</g>
<g>
</g>
<g>
</g>
<g>
</g>
<g>
</g>
<g>
</g>
<g>
</g>
<g>
</g>
<g>
</g>
</svg>
