<?xml version="1.0" encoding="iso-8859-1"?>
<!-- Generator: Adobe Illustrator 19.0.0, SVG Export Plug-In . SVG Version: 6.00 Build 0)  -->
<svg version="1.1" id="Capa_1" xmlns="http://www.w3.org/2000/svg" xmlns:xlink="http://www.w3.org/1999/xlink" x="0px" y="0px"
	 viewBox="0 0 512 512" style="enable-background:new 0 0 512 512;" xml:space="preserve">
<path style="fill:#E0E0E0;" d="M459.521,77.332H84.22c-4.143,0-7.502,3.359-7.502,7.502v375.301c0,4.143,3.359,7.502,7.502,7.502
	h291c1.989,0,3.897-0.79,5.304-2.197l84.301-84.298c1.407-1.406,2.197-3.315,2.197-5.304V84.833
	C467.022,80.69,463.664,77.332,459.521,77.332z"/>
<path style="fill:#C6C5CA;" d="M467.022,109.839V84.833c0-4.143-3.359-7.502-7.502-7.502H84.22c-4.143,0-7.502,3.359-7.502,7.502
	v375.301c0,4.143,3.359,7.502,7.502,7.502h26.006V109.839H467.022z"/>
<rect x="84.218" y="84.828" style="fill:#FFFFFF;" width="233.47" height="233.47"/>
<polygon style="fill:#E0E0E0;" points="84.22,318.3 110.226,318.3 110.226,109.839 317.687,109.839 317.687,84.833 84.22,84.833 "/>
<path style="fill:#919191;" d="M466.452,372.962c-1.161-2.804-3.897-4.631-6.93-4.631h-84.301c-4.143,0-7.502,3.359-7.502,7.502
	v84.301c0,3.035,1.827,5.769,4.631,6.93c0.928,0.384,1.902,0.571,2.87,0.571c1.952,0,3.871-0.762,5.306-2.197l84.301-84.301
	C466.971,378.991,467.612,375.766,466.452,372.962z"/>
<path style="fill:#39A4FA;" d="M293.099,325.802h-15.003c-4.143,0-7.502-3.359-7.502-7.502s3.359-7.502,7.502-7.502h15.003
	c4.143,0,7.502,3.359,7.502,7.502S297.242,325.802,293.099,325.802z M250.09,325.802h-15.003c-4.143,0-7.502-3.359-7.502-7.502
	s3.359-7.502,7.502-7.502h15.003c4.143,0,7.502,3.359,7.502,7.502S254.233,325.802,250.09,325.802z M207.08,325.802h-15.003
	c-4.143,0-7.502-3.359-7.502-7.502s3.359-7.502,7.502-7.502h15.003c4.143,0,7.502,3.359,7.502,7.502S211.223,325.802,207.08,325.802
	z M164.071,325.802h-15.003c-4.143,0-7.502-3.359-7.502-7.502s3.359-7.502,7.502-7.502h15.003c4.143,0,7.502,3.359,7.502,7.502
	S168.214,325.802,164.071,325.802z M121.062,325.802h-15.003c-4.143,0-7.502-3.359-7.502-7.502s3.359-7.502,7.502-7.502h15.003
	c4.143,0,7.502,3.359,7.502,7.502C128.564,322.443,125.205,325.802,121.062,325.802z M317.687,322.384
	c-4.143,0-7.502-3.359-7.502-7.502v-15.003c0-4.143,3.359-7.502,7.502-7.502s7.502,3.359,7.502,7.502v15.003
	C325.189,319.026,321.83,322.384,317.687,322.384z M317.687,279.375c-4.143,0-7.502-3.359-7.502-7.502V256.87
	c0-4.143,3.359-7.502,7.502-7.502s7.502,3.359,7.502,7.502v15.003C325.189,276.016,321.83,279.375,317.687,279.375z
	 M317.687,236.366c-4.143,0-7.502-3.359-7.502-7.502v-15.003c0-4.143,3.359-7.502,7.502-7.502s7.502,3.359,7.502,7.502v15.003
	C325.189,233.007,321.83,236.366,317.687,236.366z M317.687,193.357c-4.143,0-7.502-3.359-7.502-7.502v-15.003
	c0-4.143,3.359-7.502,7.502-7.502s7.502,3.359,7.502,7.502v15.003C325.189,189.998,321.83,193.357,317.687,193.357z
	 M317.687,150.347c-4.143,0-7.502-3.359-7.502-7.502v-15.003c0-4.143,3.359-7.502,7.502-7.502s7.502,3.359,7.502,7.502v15.003
	C325.189,146.989,321.83,150.347,317.687,150.347z M317.687,107.338c-4.143,0-7.502-3.359-7.502-7.502V84.833
	c0-4.143,3.359-7.502,7.502-7.502s7.502,3.359,7.502,7.502v15.003C325.189,103.979,321.83,107.338,317.687,107.338z"/>
<path style="fill:#FFD039;" d="M0,84.833v419.052c0,4.143,3.359,7.502,7.502,7.502H84.22c4.143,0,7.502-3.359,7.502-7.502V92.335
	H7.502C3.359,92.335,0,88.976,0,84.833z"/>
<path style="fill:#FFA304;" d="M59.215,511.387H84.22c4.143,0,7.502-3.359,7.502-7.502V92.335H59.215
	C59.215,92.335,59.215,511.387,59.215,511.387z"/>
<path style="fill:#FFD039;" d="M504.498,0.613H84.22c4.143,0,7.502,3.359,7.502,7.502v84.22h412.777
	c4.143,0,7.502-3.359,7.502-7.502V8.115C512,3.972,508.641,0.613,504.498,0.613z"/>
<path style="fill:#FF6137;" d="M84.22,0.613H7.502C3.359,0.613,0,3.972,0,8.115v76.718c0,4.143,3.359,7.502,7.502,7.502h84.22V8.115
	C91.722,3.972,88.363,0.613,84.22,0.613z"/>
<path style="fill:#FFA304;" d="M91.722,59.828v32.507h412.777c4.143,0,7.502-3.359,7.502-7.502V59.828
	C512,59.828,91.722,59.828,91.722,59.828z"/>
<g>
	<path style="fill:#C96E14;" d="M91.722,121.686H55.514c-4.143,0-7.502,3.359-7.502,7.502c0,4.143,3.359,7.502,7.502,7.502h36.208
		V121.686z"/>
	<path style="fill:#C96E14;" d="M91.722,168.964H55.514c-4.143,0-7.502,3.359-7.502,7.502s3.359,7.502,7.502,7.502h36.208V168.964z"
		/>
	<path style="fill:#C96E14;" d="M91.722,216.242H55.514c-4.143,0-7.502,3.359-7.502,7.502c0,4.143,3.359,7.502,7.502,7.502h36.208
		V216.242z"/>
	<path style="fill:#C96E14;" d="M91.722,263.521H55.514c-4.143,0-7.502,3.359-7.502,7.502c0,4.143,3.359,7.502,7.502,7.502h36.208
		V263.521z"/>
	<path style="fill:#C96E14;" d="M91.722,310.799H55.514c-4.143,0-7.502,3.359-7.502,7.502s3.359,7.502,7.502,7.502h36.208V310.799z"
		/>
	<path style="fill:#C96E14;" d="M91.722,358.076H55.514c-4.143,0-7.502,3.359-7.502,7.502s3.359,7.502,7.502,7.502h36.208V358.076z"
		/>
	<path style="fill:#C96E14;" d="M91.722,405.355H55.514c-4.143,0-7.502,3.359-7.502,7.502c0,4.143,3.359,7.502,7.502,7.502h36.208
		V405.355z"/>
	<path style="fill:#C96E14;" d="M91.722,452.632H55.514c-4.143,0-7.502,3.359-7.502,7.502s3.359,7.502,7.502,7.502h36.208V452.632z"
		/>
	<path style="fill:#C96E14;" d="M128.575,48.625c-4.143,0-7.502,3.359-7.502,7.502v36.208h15.003V56.127
		C136.076,51.984,132.717,48.625,128.575,48.625z"/>
	<path style="fill:#C96E14;" d="M175.853,48.625c-4.143,0-7.502,3.359-7.502,7.502v36.208h15.003V56.127
		C183.354,51.984,179.996,48.625,175.853,48.625z"/>
	<path style="fill:#C96E14;" d="M223.131,48.625c-4.143,0-7.502,3.359-7.502,7.502v36.208h15.003V56.127
		C230.633,51.984,227.274,48.625,223.131,48.625z"/>
	<path style="fill:#C96E14;" d="M270.409,48.625c-4.143,0-7.502,3.359-7.502,7.502v36.208h15.003V56.127
		C277.911,51.984,274.552,48.625,270.409,48.625z"/>
	<path style="fill:#C96E14;" d="M317.687,48.625c-4.143,0-7.502,3.359-7.502,7.502v36.208h15.003V56.127
		C325.189,51.984,321.83,48.625,317.687,48.625z"/>
	<path style="fill:#C96E14;" d="M364.965,48.625c-4.143,0-7.502,3.359-7.502,7.502v36.208h15.003V56.127
		C372.467,51.984,369.108,48.625,364.965,48.625z"/>
	<path style="fill:#C96E14;" d="M412.244,48.625c-4.143,0-7.502,3.359-7.502,7.502v36.208h15.003V56.127
		C419.745,51.984,416.386,48.625,412.244,48.625z"/>
	<path style="fill:#C96E14;" d="M459.521,48.625c-4.143,0-7.502,3.359-7.502,7.502v36.208h15.003V56.127
		C467.022,51.984,463.664,48.625,459.521,48.625z"/>
</g>
<g>
</g>
<g>
</g>
<g>
</g>
<g>
</g>
<g>
</g>
<g>
</g>
<g>
</g>
<g>
</g>
<g>
</g>
<g>
</g>
<g>
</g>
<g>
</g>
<g>
</g>
<g>
</g>
<g>
</g>
</svg>
