<?xml version="1.0" encoding="iso-8859-1"?>
<!-- Generator: Adobe Illustrator 19.0.0, SVG Export Plug-In . SVG Version: 6.00 Build 0)  -->
<svg version="1.1" id="Capa_1" xmlns="http://www.w3.org/2000/svg" xmlns:xlink="http://www.w3.org/1999/xlink" x="0px" y="0px"
	 viewBox="0 0 512 512" style="enable-background:new 0 0 512 512;" xml:space="preserve">
<polygon style="fill:#E0E0E0;" points="457.539,481.202 457.539,457.486 481.969,457.486 481.969,279.717 457.539,279.717 
	457.539,232.745 481.969,232.745 481.969,54.515 457.539,54.515 457.539,31.259 278.487,31.259 278.487,54.515 231.515,54.515 
	231.515,31.259 54.461,31.259 54.461,54.515 30.03,54.515 30.03,232.745 54.461,232.745 54.461,279.717 30.03,279.717 
	30.03,457.486 54.461,457.486 54.461,481.202 231.515,481.202 231.515,457.486 278.487,457.486 278.487,481.202 "/>
<path style="fill:#3A4D51;" d="M457.539,488.691H278.487c-4.136,0-7.489-3.353-7.489-7.489v-16.227h-31.994v16.227
	c0,4.136-3.353,7.489-7.489,7.489H54.461c-4.136,0-7.489-3.353-7.489-7.489v-16.227H30.03c-4.136,0-7.489-3.353-7.489-7.489v-177.77
	c0-4.136,3.353-7.489,7.489-7.489h16.942v-31.994H30.03c-4.136,0-7.489-3.353-7.489-7.489V54.515c0-4.136,3.353-7.489,7.489-7.489
	h16.942V31.259c0-4.136,3.353-7.489,7.489-7.489h177.055c4.136,0,7.489,3.353,7.489,7.489v15.766h31.994V31.259
	c0-4.136,3.353-7.489,7.489-7.489H457.54c4.136,0,7.489,3.353,7.489,7.489v15.766h16.941c4.136,0,7.489,3.353,7.489,7.489v178.23
	c0,4.136-3.353,7.489-7.489,7.489h-16.941v31.994h16.941c4.136,0,7.489,3.353,7.489,7.489v177.77c0,4.136-3.353,7.489-7.489,7.489
	h-16.941v16.227C465.028,485.338,461.675,488.691,457.539,488.691z M285.976,473.713H450.05v-16.227
	c0-4.136,3.353-7.489,7.489-7.489h16.941V287.206h-16.941c-4.136,0-7.489-3.353-7.489-7.489v-46.972
	c0-4.136,3.353-7.489,7.489-7.489h16.941V62.004h-16.941c-4.136,0-7.489-3.353-7.489-7.489V38.747H285.976v15.767
	c0,4.136-3.353,7.489-7.489,7.489h-46.972c-4.136,0-7.489-3.353-7.489-7.489V38.747H61.95v15.767c0,4.136-3.353,7.489-7.489,7.489
	H37.519v163.252h16.942c4.136,0,7.489,3.353,7.489,7.489v46.972c0,4.136-3.353,7.489-7.489,7.489H37.519v162.791h16.942
	c4.136,0,7.489,3.353,7.489,7.489v16.227h162.076v-16.227c0-4.136,3.353-7.489,7.489-7.489h46.972c4.136,0,7.489,3.353,7.489,7.489
	v16.227H285.976z"/>
<g>
	<path style="fill:#FFD039;" d="M54.461,0.053H7.489C3.353,0.053,0,3.407,0,7.543v46.972c0,4.136,3.353,7.489,7.489,7.489h46.972
		c4.136,0,7.489-3.353,7.489-7.489V7.543C61.95,3.407,58.597,0.053,54.461,0.053z"/>
	<path style="fill:#FFD039;" d="M278.487,449.996h-46.972c-4.136,0-7.489,3.353-7.489,7.489v46.972c0,4.136,3.353,7.489,7.489,7.489
		h46.972c4.136,0,7.489-3.353,7.489-7.489v-46.972C285.976,453.349,282.623,449.996,278.487,449.996z"/>
	<path style="fill:#FFD039;" d="M54.461,449.996H7.489c-4.136,0-7.489,3.353-7.489,7.489v46.972c0,4.136,3.353,7.489,7.489,7.489
		h46.972c4.136,0,7.489-3.353,7.489-7.489v-46.972C61.95,453.349,58.597,449.996,54.461,449.996z"/>
	<path style="fill:#FFD039;" d="M504.511,449.996H457.54c-4.136,0-7.489,3.353-7.489,7.489v46.972c0,4.136,3.353,7.489,7.489,7.489
		h46.971c4.136,0,7.489-3.353,7.489-7.489v-46.972C512,453.349,508.647,449.996,504.511,449.996z"/>
	<path style="fill:#FFD039;" d="M278.487,0.053h-46.972c-4.136,0-7.489,3.353-7.489,7.489v46.972c0,4.136,3.353,7.489,7.489,7.489
		h46.972c4.136,0,7.489-3.353,7.489-7.489V7.543C285.976,3.407,282.623,0.053,278.487,0.053z"/>
	<path style="fill:#FFD039;" d="M504.511,0.053H457.54c-4.136,0-7.489,3.353-7.489,7.489v46.972c0,4.136,3.353,7.489,7.489,7.489
		h46.971c4.136,0,7.489-3.353,7.489-7.489V7.543C512,3.407,508.647,0.053,504.511,0.053z"/>
	<path style="fill:#FFD039;" d="M54.461,225.255H7.489c-4.136,0-7.489,3.353-7.489,7.489v46.972c0,4.136,3.353,7.489,7.489,7.489
		h46.972c4.136,0,7.489-3.353,7.489-7.489v-46.972C61.95,228.609,58.597,225.255,54.461,225.255z"/>
	<path style="fill:#FFD039;" d="M504.511,225.255H457.54c-4.136,0-7.489,3.353-7.489,7.489v46.972c0,4.136,3.353,7.489,7.489,7.489
		h46.971c4.136,0,7.489-3.353,7.489-7.489v-46.972C512,228.609,508.647,225.255,504.511,225.255z"/>
</g>
<path style="fill:#FF434D;" d="M400.189,299.975L184.258,99.096c-2.183-2.03-5.36-2.574-8.091-1.383
	c-2.732,1.189-4.498,3.886-4.498,6.866v294.766c0,3,1.789,5.71,4.548,6.887c0.948,0.404,1.947,0.602,2.94,0.602
	c1.893,0,3.759-0.718,5.18-2.079l88.649-84.867l122.527-6.952c2.996-0.17,5.602-2.112,6.62-4.935
	C403.151,305.178,402.387,302.019,400.189,299.975z"/>
<path style="fill:#DD3646;" d="M402.132,308.001c1.018-2.823,0.254-5.981-1.943-8.025l-20.171-18.765l-121.548,6.897l-86.801,83.099
	v28.139c0,3,1.789,5.71,4.548,6.887c0.948,0.404,1.947,0.602,2.94,0.602c1.893,0,3.759-0.718,5.18-2.079l88.649-84.867
	l122.527-6.952C398.508,312.766,401.113,310.823,402.132,308.001z"/>
<g>
</g>
<g>
</g>
<g>
</g>
<g>
</g>
<g>
</g>
<g>
</g>
<g>
</g>
<g>
</g>
<g>
</g>
<g>
</g>
<g>
</g>
<g>
</g>
<g>
</g>
<g>
</g>
<g>
</g>
</svg>
