<svg xmlns="http://www.w3.org/2000/svg" id="Layer_1" enable-background="new 0 0 512 512" height="512" viewBox="0 0 512 512" width="512"><g><path d="m400 496h-288c-17.673 0-32-14.327-32-32v-320h352v320c0 17.673-14.327 32-32 32z" fill="#f3d4b7"/><path d="m432 144v320c0 17.67-14.33 32-32 32h-48c17.67 0 32-14.33 32-32v-320z" fill="#e1c3a7"/><path d="m432 128h-64v-16c0-61.757-50.243-112-112-112s-112 50.243-112 112v16h-64c-8.837 0-16 7.164-16 16v320c0 26.467 21.533 48 48 48h288c26.467 0 48-21.533 48-48v-320c0-8.836-7.163-16-16-16zm-256-16c0-44.112 35.888-80 80-80s80 35.888 80 80v16h-160zm240 352c0 8.822-7.178 16-16 16h-288c-8.822 0-16-7.178-16-16v-304h48v32c0 8.836 7.163 16 16 16s16-7.164 16-16v-32h160v32c0 8.836 7.163 16 16 16s16-7.164 16-16v-32h48z" style="&#10;    fill: #777;&#10;"/><path d="m321.823 251.37c-6.974-5.424-17.026-4.167-22.453 2.807l-112 144c-8.228 10.58-.519 25.824 12.619 25.824 4.768 0 9.486-2.123 12.641-6.178l112-144c5.425-6.975 4.168-17.028-2.807-22.453z" style="&#10;    fill: #777;&#10;"/><circle cx="312" cy="392" r="32" style="&#10;    fill: #777;&#10;"/><circle cx="200" cy="280" r="32" style="&#10;    fill: #777;&#10;"/></g></svg>