<?xml version="1.0" encoding="iso-8859-1"?>
<!-- Generator: Adobe Illustrator 19.0.0, SVG Export Plug-In . SVG Version: 6.00 Build 0)  -->
<svg version="1.1" id="Layer_1" xmlns="http://www.w3.org/2000/svg" xmlns:xlink="http://www.w3.org/1999/xlink" x="0px" y="0px"
	 viewBox="0 0 508 508" style="enable-background:new 0 0 508 508;" xml:space="preserve">
<circle style="fill:#FD8469;" cx="254" cy="254" r="254"/>
<path style="fill:#F1543F;" d="M34,380.4C78,456.4,160,508,254,508s176.4-51.2,220-127.6H34z"/>
<path style="fill:#FFFFFF;" d="M406.4,263.6H101.6c-8.8,0-16.4,7.2-16.4,16.4v68.8c0,8.8,7.2,16.4,16.4,16.4H406
	c8.8,0,16.4-7.2,16.4-16.4V280C422.4,271.2,415.2,263.6,406.4,263.6z"/>
<g>
	<rect x="345.6" y="364.8" style="fill:#324A5E;" width="48" height="14.8"/>
	<rect x="114.8" y="364.8" style="fill:#324A5E;" width="48" height="14.8"/>
</g>
<circle style="fill:#4CDBC4;" cx="376.4" cy="314.4" r="20"/>
<circle style="fill:#324A5E;" cx="331.6" cy="314.4" r="10"/>
<circle style="fill:#FFD05B;" cx="295.6" cy="314.4" r="10"/>
<path style="fill:#324A5E;" d="M151.6,127.6c0-3.6-3.2-6.4-6.8-6.4s-6.4,2.8-6.8,6.4L132.8,264h24L151.6,127.6z"/>
<g>
	<path style="fill:#FFD05B;" d="M236.8,204.8l-11.2-11.2c28-28,28-73.2,0-101.2l11.2-11.2C270.8,115.6,270.8,170.8,236.8,204.8z"/>
	<path style="fill:#FFD05B;" d="M262.4,229.2L251.2,218c41.2-41.2,41.2-108.8,0-150l11.2-11.2C310,104.4,310,181.6,262.4,229.2z"/>
	<path style="fill:#FFD05B;" d="M212,178.8l-11.2-11.2c13.6-13.6,13.6-35.6,0-48.8l11.2-11.2C231.6,127.2,231.6,159.2,212,178.8z"/>
</g>
<g>
</g>
<g>
</g>
<g>
</g>
<g>
</g>
<g>
</g>
<g>
</g>
<g>
</g>
<g>
</g>
<g>
</g>
<g>
</g>
<g>
</g>
<g>
</g>
<g>
</g>
<g>
</g>
<g>
</g>
</svg>
