<svg height="512pt" viewBox="0 -76 512 512" width="512pt" xmlns="http://www.w3.org/2000/svg"><g fill="#1b5c91"><path d="m0 44.59375h512v30h-512zm0 0"/><path d="m0 165.09375h512v30h-512zm0 0"/><path d="m0 290.574219h512v30h-512zm0 0"/></g><path d="m264.410156 290.574219h247.589844v30h-247.589844zm0 0" fill="#0e2e4b"/><path d="m96.152344 125.484375c-30.109375 0-54.605469 24.496094-54.605469 54.609375 0 30.109375 24.496094 54.605469 54.605469 54.605469 30.113281 0 54.609375-24.496094 54.609375-54.605469 0-30.113281-24.496094-54.609375-54.609375-54.609375zm0 0" fill="#fb4c2e"/><path d="m264.410156 250.964844c-30.113281 0-54.609375 24.5-54.609375 54.609375s24.496094 54.609375 54.609375 54.609375c30.109375 0 54.609375-24.5 54.609375-54.609375s-24.5-54.609375-54.609375-54.609375zm0 0" fill="#fdbf00"/><path d="m264.410156 250.964844v109.21875c30.109375 0 54.609375-24.496094 54.609375-54.609375 0-30.109375-24.5-54.609375-54.609375-54.609375zm0 0" fill="#ff9100"/><path d="m264.410156 44.59375h247.589844v30h-247.589844zm0 0" fill="#0e2e4b"/><path d="m264.410156 165.09375h247.589844v30h-247.589844zm0 0" fill="#0e2e4b"/><path d="m373.828125 0c-30.109375 0-54.609375 24.496094-54.609375 54.609375 0 30.109375 24.5 54.609375 54.609375 54.609375 30.113281 0 54.609375-24.5 54.609375-54.609375 0-30.113281-24.496094-54.609375-54.609375-54.609375zm0 0" fill="#00d7df"/></svg>