<?xml version="1.0" encoding="iso-8859-1"?>
<!-- Generator: Adobe Illustrator 19.0.0, SVG Export Plug-In . SVG Version: 6.00 Build 0)  -->
<svg version="1.1" id="Capa_1" xmlns="http://www.w3.org/2000/svg" xmlns:xlink="http://www.w3.org/1999/xlink" x="0px" y="0px"
	 viewBox="0 0 512 512" style="enable-background:new 0 0 512 512;" xml:space="preserve">
<path style="fill:#FFC89F;" d="M41.709,388.162c-0.251,0.421-0.475,0.862-0.642,1.334L1.3,502.004
	c-0.963,2.723-0.275,5.757,1.767,7.801C4.498,511.235,6.415,512,8.37,512c0.837,0,1.681-0.14,2.498-0.429l112.509-39.766
	c1.112-0.393,2.086-1.044,2.881-1.865L41.709,388.162z"/>
<path style="fill:#FF434D;" d="M422.561,239.287l-39.935-5.669c-3.183-11.317-7.687-22.191-13.438-32.441l24.229-32.249
	c2.242-2.984,1.947-7.165-0.692-9.806l-38.782-38.782c-2.642-2.64-6.823-2.937-9.806-0.692l-32.249,24.23
	c-10.249-5.752-21.123-10.257-32.442-13.44l-5.668-39.934c-0.525-3.697-3.689-6.444-7.424-6.444h-54.847
	c-3.734,0-6.899,2.747-7.424,6.444l-5.668,39.935c-11.317,3.183-22.192,7.687-32.442,13.438l-32.248-24.229
	c-2.984-2.243-7.165-1.947-9.806,0.692l-38.783,38.782c-2.64,2.641-2.935,6.821-0.693,9.806l24.23,32.249
	c-5.751,10.248-10.256,21.122-13.439,32.441l-39.936,5.669c-3.697,0.525-6.444,3.69-6.444,7.424v54.847
	c0,3.734,2.747,6.898,6.444,7.424l39.939,5.668c1.388,4.912,3.047,9.795,4.959,14.6l69.071-69.072
	c5.6-27.999,27.705-50.104,55.705-55.705c4.515-0.903,9.179-1.384,13.955-1.384c39.175,0,71.044,31.87,71.044,71.044
	c0,4.611-0.457,9.115-1.3,13.483c-5.476,28.378-27.883,50.785-56.262,56.262l-68.876,68.876c4.892,1.959,9.868,3.656,14.876,5.07
	l5.669,39.939c0.525,3.697,3.69,6.444,7.424,6.444h54.847c3.734,0,6.898-2.747,7.424-6.444l5.668-39.935
	c11.318-3.183,22.192-7.687,32.442-13.438l32.249,24.229c2.983,2.242,7.164,1.946,9.806-0.692l38.782-38.784
	c2.64-2.64,2.935-6.82,0.692-9.805l-24.23-32.248c5.752-10.251,10.257-21.125,13.439-32.442l39.935-5.668
	c3.697-0.525,6.444-3.689,6.444-7.424V246.71C429.005,242.978,426.258,239.813,422.561,239.287z"/>
<g>
	<path style="fill:#DD3646;" d="M393.417,168.928c2.242-2.984,1.947-7.165-0.692-9.806l-38.782-38.782
		c-2.642-2.64-6.823-2.937-9.806-0.692l-15.121,11.361l33.415,33.415l-27.223,36.23c7.379,12.151,12.972,25.502,16.441,39.688
		l30.976-6.724c-3.183-11.317-7.687-22.191-13.438-32.441L393.417,168.928z"/>
	<path style="fill:#DD3646;" d="M349.497,314.649c-3.469,14.186-6.91,20.814-14.288,32.964l27.223,36.23l-33.415,33.415
		l15.121,11.361c2.983,2.242,7.164,1.946,9.806-0.692l38.782-38.784c2.64-2.64,2.935-6.82,0.692-9.805l-24.23-32.248
		c5.752-10.251,10.257-21.125,13.439-32.442h-33.13V314.649z"/>
	<path style="fill:#DD3646;" d="M422.561,239.287l-26.046-3.698v77.088l26.046-3.697c3.697-0.525,6.444-3.689,6.444-7.424v-54.847
		C429.005,242.978,426.258,239.813,422.561,239.287z"/>
</g>
<g>
	<path style="fill:#FFD039;" d="M98.575,94.555L80.33,86.377c-5.884-2.638-10.578-7.331-13.214-13.215l-8.177-18.245
		c-1.209-2.696-3.888-4.432-6.842-4.432c-2.955,0-5.633,1.734-6.842,4.432l-8.177,18.245c-2.637,5.884-7.331,10.577-13.214,13.215
		L5.618,94.555c-2.696,1.208-4.432,3.888-4.432,6.842s1.735,5.634,4.432,6.842l18.245,8.177c5.884,2.638,10.578,7.331,13.214,13.215
		l8.177,18.245c1.209,2.696,3.888,4.432,6.842,4.432c2.955,0,5.633-1.734,6.842-4.432l8.177-18.245
		c2.637-5.884,7.33-10.577,13.214-13.215l18.245-8.177c2.696-1.208,4.432-3.888,4.432-6.842
		C103.007,98.442,101.271,95.762,98.575,94.555z"/>
	<path style="fill:#FFD039;" d="M493.776,423.213l-18.245-8.177c-5.884-2.638-10.577-7.331-13.215-13.215l-8.177-18.245
		c-1.208-2.696-3.888-4.432-6.842-4.432s-5.634,1.734-6.842,4.432l-8.177,18.245c-2.638,5.884-7.33,10.577-13.214,13.215
		l-18.246,8.177c-2.696,1.208-4.432,3.888-4.432,6.842s1.734,5.634,4.432,6.842l18.246,8.177
		c5.884,2.638,10.576,7.331,13.214,13.215l8.177,18.245c1.208,2.696,3.888,4.432,6.842,4.432s5.634-1.734,6.842-4.432l8.177-18.245
		c2.638-5.884,7.331-10.577,13.215-13.215l18.245-8.177c2.696-1.208,4.432-3.888,4.432-6.842S496.472,424.42,493.776,423.213z"/>
	<path style="fill:#FFD039;" d="M335.576,39.231l-16.212-7.266c-5.041-2.26-9.062-6.281-11.322-11.321l-7.266-16.212
		C299.568,1.734,296.888,0,293.934,0s-5.634,1.734-6.842,4.432l-7.266,16.213c-2.259,5.04-6.28,9.061-11.32,11.32l-16.213,7.266
		c-2.696,1.209-4.432,3.888-4.432,6.843c0,2.954,1.735,5.634,4.432,6.842l16.212,7.267c5.041,2.26,9.062,6.281,11.321,11.321
		l7.266,16.213c1.208,2.696,3.888,4.432,6.842,4.432s5.634-1.734,6.842-4.432l7.267-16.212c2.26-5.041,6.281-9.062,11.322-11.322
		l16.213-7.267c2.696-1.208,4.432-3.888,4.432-6.842C340.008,43.118,338.272,40.438,335.576,39.231z"/>
	<path style="fill:#FFD039;" d="M238.931,203.089c-4.776,0-9.441,0.481-13.955,1.384l-55.705,55.705l-69.071,69.072l-57.405,57.405
		c-0.442,0.443-0.816,0.939-1.131,1.467l84.64,81.866l57.233-57.233l68.876-68.876l56.262-56.262c0.843-4.369,1.3-8.872,1.3-13.483
		C309.976,234.959,278.106,203.089,238.931,203.089z"/>
</g>
<path style="fill:#FFA304;" d="M309.876,270.395c-0.015-0.286-0.047-0.568-0.065-0.853c-0.062-0.958-0.129-1.914-0.229-2.862
	c-0.027-0.259-0.069-0.515-0.099-0.773c-0.114-0.976-0.235-1.948-0.388-2.912c-0.031-0.192-0.071-0.381-0.103-0.573
	c-0.173-1.03-0.358-2.055-0.575-3.069c-0.026-0.123-0.058-0.243-0.085-0.365c-0.237-1.083-0.493-2.158-0.78-3.223
	c-0.016-0.059-0.034-0.118-0.051-0.178c-0.306-1.124-0.635-2.238-0.994-3.34c-0.004-0.013-0.009-0.026-0.013-0.04
	c-0.747-2.289-1.605-4.53-2.571-6.712l-4.675,4.952L102.622,447.079l23.685,22.908l57.233-57.233l68.876-68.876l56.262-56.262
	c0.843-4.369,1.3-8.872,1.3-13.483C309.976,272.879,309.941,271.634,309.876,270.395z"/>
<g>
	<path style="fill:#DD3646;" d="M240.299,464.208h26.057c3.734,0,6.898-2.747,7.424-6.444l5.668-39.935l-33.246,4.798
		L240.299,464.208z"/>
	<path style="fill:#DD3646;" d="M266.356,84.061h-26.057l5.954,41.943l33.195,4.436l-5.668-39.934
		C273.254,86.808,270.09,84.061,266.356,84.061z"/>
</g>
<path style="fill:#FFD039;" d="M429.674,156.016l-72.817-72.817c-2.928-2.926-7.675-2.928-10.605,0l-52.199,52.198
	c6.119,2.43,12.079,5.252,17.835,8.483l32.249-24.23c2.982-2.244,7.164-1.947,9.806,0.692l38.782,38.782
	c2.64,2.641,2.935,6.821,0.692,9.806l-24.229,32.249c3.181,5.669,5.966,11.535,8.371,17.557l52.115-52.115
	C432.602,163.69,432.602,158.944,429.674,156.016z"/>
<path style="fill:#FFA304;" d="M369.188,201.177c3.181,5.669,5.966,11.535,8.371,17.557l52.115-52.115
	c2.928-2.929,2.928-7.676,0-10.604l-17.303-17.351l-19.931,20.175l0.284,0.284c2.64,2.641,2.935,6.821,0.692,9.806L369.188,201.177z
	"/>
<path style="fill:#F7B081;" d="M8.37,512c0.837,0,1.681-0.14,2.498-0.429l112.509-39.766c1.112-0.393,2.086-1.044,2.881-1.865
	L102.541,447L9.064,480.04L1.3,502.004c-0.963,2.723-0.275,5.757,1.767,7.801C4.497,511.235,6.415,512,8.37,512z"/>
<path style="fill:#3C5156;" d="M74.715,489.005l-50.89-50.731L1.3,502.004c-0.963,2.723-0.275,5.757,1.767,7.801
	C4.498,511.235,6.415,512,8.37,512c0.837,0,1.681-0.14,2.498-0.429L74.715,489.005z"/>
<path style="fill:#304144;" d="M50.891,465.256L9.064,480.039L1.3,502.004c-0.963,2.723-0.275,5.757,1.767,7.801
	C4.498,511.235,6.415,512,8.37,512c0.837,0,1.681-0.14,2.498-0.429l63.847-22.567L50.891,465.256z"/>
<path style="fill:#FF6137;" d="M469.069,116.62l-72.817-72.818c-1.407-1.406-3.313-2.195-5.302-2.195
	c-1.988,0-3.895,0.79-5.302,2.195L341.074,88.39l83.308,83.326l44.686-44.491C471.997,124.295,471.997,119.549,469.069,116.62z"/>
<path style="fill:#E04F32;" d="M401.938,149.271l22.445,22.445l44.686-44.491c2.928-2.929,2.928-7.676,0-10.604l-17.655-17.655
	L401.938,149.271z"/>
<path style="fill:#546F7A;" d="M380.119,49.283l83.674,83.232c-0.01-0.008,37.879-37.892,37.879-37.892
	c12.609-12.61,12.609-33.13,0-45.74l-0.001-0.001l-37.68-37.68c-12.611-12.609-33.129-12.609-45.74,0L380.119,49.283z"/>
<path style="fill:#475D63;" d="M501.671,48.882L501.671,48.882L478.789,26c12.608,12.61,12.608,33.129-0.001,45.739
	c0,0-37.889,37.884-37.879,37.892l-60.73-60.409l-0.061,0.061l83.674,83.232c-0.01-0.008,37.879-37.892,37.879-37.892
	C514.281,82.012,514.281,61.493,501.671,48.882z"/>
<g>
</g>
<g>
</g>
<g>
</g>
<g>
</g>
<g>
</g>
<g>
</g>
<g>
</g>
<g>
</g>
<g>
</g>
<g>
</g>
<g>
</g>
<g>
</g>
<g>
</g>
<g>
</g>
<g>
</g>
</svg>
