<?xml version="1.0" encoding="iso-8859-1"?>
<!-- Generator: Adobe Illustrator 19.0.0, SVG Export Plug-In . SVG Version: 6.00 Build 0)  -->
<svg version="1.1" id="Capa_1" xmlns="http://www.w3.org/2000/svg" xmlns:xlink="http://www.w3.org/1999/xlink" x="0px" y="0px"
	 viewBox="0 0 511.999 511.999" style="enable-background:new 0 0 511.999 511.999;" xml:space="preserve">
<path style="fill:#E0E0E2;" d="M7.549,111.97c0,0,0.721,259.696,0,287.56c0.721,26.66,22.544,48.055,49.378,48.055h247.781
	l164.44-164.44V111.97H7.549z"/>
<path style="fill:#FFCA10;" d="M248.63,503.664h255.854V247.81L248.63,503.664z M450.158,450.39h-82.126l82.126-82.126V450.39z"/>
<polygon style="fill:#FFA304;" points="479.435,272.859 479.435,503.664 504.484,503.664 504.484,247.81 "/>
<path style="fill:#546F7A;" d="M447.26,36.199l-23.354-23.355c-6.014-6.014-15.764-6.014-21.777,0L381.923,33.05l45.131,45.131
	l20.205-20.205C453.273,51.962,453.273,42.213,447.26,36.199z"/>
<path style="fill:#475D63;" d="M447.26,36.199l-15.046-15.042c6.014,6.014,6.014,15.764,0,21.777L412.01,63.138l15.044,15.044
	l20.205-20.205C453.273,51.962,453.273,42.213,447.26,36.199z"/>
<rect x="360.364" y="50.558" transform="matrix(0.7071 0.7071 -0.7071 0.7071 162.8534 -257.5162)" style="fill:#FF6137;" width="63.824" height="34.53"/>
<rect x="396.694" y="65.6" transform="matrix(0.7071 0.7071 -0.7071 0.7071 177.8983 -263.7546)" style="fill:#E04F32;" width="21.271" height="34.53"/>
<polygon style="fill:#FFC89F;" points="166.667,293.437 236.35,268.839 191.265,223.755 "/>
<polygon style="fill:#F7B081;" points="221.357,253.847 174.847,270.264 166.667,293.437 236.35,268.839 "/>
<rect x="179.428" y="131.235" transform="matrix(-0.7071 0.7071 -0.7071 -0.7071 622.2986 68.5312)" style="fill:#FFD039;" width="235.056" height="63.825"/>
<rect x="194.48" y="167.575" transform="matrix(-0.7071 0.7071 -0.7071 -0.7071 658.6376 83.5843)" style="fill:#FFA304;" width="235.056" height="21.251"/>
<path style="fill:#919191;" d="M59.105,349.296V30.111c-28.493,0-51.591,23.098-51.591,51.591v319.185
	C7.515,372.394,30.613,349.296,59.105,349.296z"/>
<g>
	<polygon style="fill:#C6C5CA;" points="138.612,293.437 166.667,293.437 191.291,223.683 303.003,111.97 274.948,111.97 
		163.236,223.683 	"/>
	<polygon style="fill:#C6C5CA;" points="444.1,111.97 444.1,308.194 469.149,283.145 469.149,111.97 	"/>
</g>
<polygon style="fill:#3C5156;" points="166.667,293.437 199.187,281.958 178.147,260.919 "/>
<path d="M453.034,361.322c-2.808-1.164-6.04-0.521-8.19,1.628l-82.126,82.126c-2.149,2.15-2.791,5.382-1.628,8.19
	c1.162,2.808,3.904,4.639,6.943,4.639h82.126c4.151,0,7.515-3.364,7.515-7.515v-82.126
	C457.673,365.225,455.842,362.485,453.034,361.322z M442.644,442.876h-56.47l56.469-56.469L442.644,442.876L442.644,442.876z"/>
<path d="M507.361,240.867c-2.808-1.164-6.04-0.521-8.19,1.628l-22.507,22.507V111.971c0-4.151-3.365-7.515-7.515-7.515h-57.741
	l20.96-20.96c0.003-0.003,0.006-0.007,0.009-0.01l20.196-20.196c4.327-4.327,6.71-10.083,6.71-16.203s-2.383-11.874-6.71-16.203
	L429.219,7.53c-4.327-4.327-10.083-6.71-16.203-6.71c-6.12,0-11.875,2.383-16.203,6.71l-20.206,20.206l-24.416,24.416
	l-52.303,52.303H66.62V30.11c0-4.151-3.365-7.515-7.515-7.515C26.515,22.597,0,49.11,0,81.702v319.186
	c0,0.555,0.064,1.095,0.178,1.615c1.038,13.829,7.021,26.678,17.02,36.432C27.886,449.359,41.995,455.1,56.927,455.1h229.638
	l-43.249,43.249c-2.149,2.15-2.792,5.382-1.629,8.19c1.163,2.809,3.904,4.639,6.943,4.639h255.855c4.15,0,7.515-3.364,7.515-7.515
	V247.81C512,244.771,510.168,242.03,507.361,240.867z M381.922,43.679l34.505,34.504l-13.789,13.789l-34.503-34.504L381.922,43.679z
	 M407.443,18.159c3.072-3.074,8.077-3.074,11.149,0l23.355,23.355c3.074,3.073,3.074,8.076,0,11.15l-14.891,14.892L392.55,33.051
	L407.443,18.159z M266.772,496.149l43.236-43.236c0.005-0.005,0.01-0.009,0.015-0.013l19.219-19.22l13.437-13.437
	c2.935-2.936,2.935-7.693,0-10.628c-0.337-0.337-0.699-0.629-1.078-0.889c-2.926-2.004-6.952-1.709-9.551,0.889l-30.456,30.456
	H56.928c-22.791,0-41.14-17.794-41.862-40.545c0.043-1.428,0.154-2.844,0.332-4.244c0.001-0.008,0.002-0.016,0.003-0.024
	c0.084-0.665,0.185-1.327,0.3-1.985c0.013-0.075,0.027-0.15,0.04-0.225c0.105-0.587,0.223-1.171,0.352-1.753
	c0.036-0.162,0.074-0.324,0.112-0.485c0.114-0.492,0.237-0.981,0.369-1.468c0.072-0.263,0.147-0.525,0.224-0.788
	c0.11-0.382,0.224-0.762,0.345-1.14c0.121-0.377,0.249-0.75,0.381-1.123c0.091-0.26,0.181-0.522,0.279-0.78
	c0.183-0.492,0.377-0.979,0.577-1.462c0.057-0.139,0.113-0.28,0.172-0.419c0.257-0.6,0.524-1.193,0.806-1.779
	c0.012-0.025,0.023-0.05,0.035-0.075c5.877-12.164,17.183-21.233,30.75-24.047c0.038-0.008,0.076-0.017,0.114-0.025
	c0.622-0.127,1.25-0.236,1.882-0.337c0.105-0.017,0.21-0.038,0.317-0.054c0.571-0.087,1.148-0.155,1.725-0.22
	c0.162-0.018,0.323-0.043,0.486-0.059c0.557-0.056,1.119-0.093,1.681-0.128c0.178-0.011,0.356-0.03,0.534-0.039
	c0.736-0.037,1.478-0.056,2.223-0.056c4.15,0,7.515-3.364,7.515-7.515v-54.489c0-4.151-3.365-7.515-7.515-7.515
	s-7.515,3.364-7.515,7.515v47.447c-12.69,1.605-24.469,7.265-33.757,16.335c-0.977,0.954-1.903,1.946-2.804,2.954V81.702
	c0-21.741,15.826-39.858,36.561-43.436v73.705v152.777v0.001c0,4.15,3.365,7.515,7.515,7.515s7.515-3.365,7.515-7.515v-0.001
	V119.486h218.24l-41.544,41.544c-2.935,2.936-2.935,7.693,0,10.628c2.935,2.934,7.693,2.934,10.627,0l54.373-54.373
	c0.002-0.002,0.003-0.004,0.005-0.005l49.185-49.185l34.503,34.505l-4.048,4.048c-0.003,0.003-0.007,0.006-0.01,0.009
	l-151.528,151.53l-34.504-34.504l29.868-29.868c2.935-2.936,2.935-7.693,0-10.628c-2.935-2.934-7.693-2.934-10.627,0l-35.183,35.182
	c-0.188,0.188-0.364,0.387-0.529,0.591c-0.055,0.068-0.104,0.141-0.156,0.212c-0.106,0.141-0.21,0.283-0.307,0.431
	c-0.055,0.086-0.105,0.174-0.157,0.262c-0.083,0.14-0.163,0.282-0.236,0.427c-0.048,0.094-0.091,0.189-0.135,0.287
	c-0.067,0.147-0.129,0.297-0.186,0.447c-0.02,0.053-0.046,0.103-0.065,0.156l-14.641,41.475l-9.982,28.279
	c-0.132,0.376-0.227,0.758-0.298,1.143h-24.992c-4.15,0-7.515,3.364-7.515,7.515c0,4.151,3.365,7.515,7.515,7.515h208.114
	c4.151,0,7.515-3.364,7.515-7.515c0-4.151-3.364-7.515-7.515-7.515H193.093l45.83-16.178c0.038-0.014,0.074-0.033,0.112-0.047
	c0.178-0.066,0.353-0.14,0.526-0.219c0.069-0.032,0.138-0.062,0.205-0.095c0.18-0.09,0.357-0.189,0.531-0.295
	c0.056-0.034,0.114-0.065,0.169-0.1c0.181-0.116,0.357-0.243,0.53-0.377c0.043-0.033,0.088-0.062,0.13-0.096
	c0.209-0.168,0.414-0.349,0.608-0.543l154.644-154.643h65.255v160.546L354.137,387.53c-2.935,2.936-2.935,7.693,0,10.628
	c0.183,0.183,0.374,0.355,0.571,0.516c1.378,1.123,3.061,1.685,4.743,1.685s3.366-0.562,4.743-1.685
	c0.197-0.16,0.388-0.333,0.571-0.516l109.698-109.698c0.003-0.003,0.005-0.006,0.008-0.009l22.499-22.499v66.301h-13.865
	c-4.151,0-7.515,3.364-7.515,7.515s3.364,7.515,7.515,7.515h13.865v22.646h-13.865c-4.151,0-7.515,3.364-7.515,7.515
	c0,4.151,3.364,7.515,7.515,7.515h13.865v22.645h-13.865c-4.151,0-7.515,3.364-7.515,7.515c0,4.151,3.364,7.515,7.515,7.515h13.865
	v22.646h-13.865c-4.151,0-7.515,3.365-7.515,7.515c0,4.151,3.364,7.515,7.515,7.515h13.865v35.842L266.772,496.149L266.772,496.149z
	 M201.151,273.295l-14.342-14.342l7.599-21.526l28.269,28.269L201.151,273.295z"/>
<g>
</g>
<g>
</g>
<g>
</g>
<g>
</g>
<g>
</g>
<g>
</g>
<g>
</g>
<g>
</g>
<g>
</g>
<g>
</g>
<g>
</g>
<g>
</g>
<g>
</g>
<g>
</g>
<g>
</g>
</svg>
