<svg id="Layer_1" enable-background="new 0 0 512 512" height="512" viewBox="0 0 512 512" width="512" xmlns="http://www.w3.org/2000/svg"><g><path d="m226.069 15v73.69c0 8.28-6.71 15-15 15h-60c-8.28 0-15-6.72-15-15v-73.69c0-8.28 6.72-15 15-15h60c8.29 0 15 6.72 15 15z" fill="#454554"/><path d="m211.069 103.69h-29.99v-103.69h29.99c8.29 0 15 6.72 15 15v73.69c0 8.28-6.71 15-15 15z" fill="#2e2e2e"/><path d="m303.779 129.85v17.17h-245.41v-17.17c0-30.97 25.2-56.16 56.16-56.16h133.09c30.96 0 56.16 25.19 56.16 56.16z" fill="#f6f6f6"/><path d="m303.779 147.02h-122.7v-73.33h66.54c30.96 0 56.16 25.19 56.16 56.16z" fill="#efefef"/><path d="m303.779 147.02v330.19c0 8.29-6.72 15-15 15h-215.41c-8.28 0-15-6.71-15-15v-330.19c0-8.28 6.72-15 15-15h215.41c8.28 0 15 6.72 15 15z" fill="#ff7d47"/><path d="m303.779 147.02v330.19c0 8.29-6.72 15-15 15h-107.7v-360.19h107.7c8.28 0 15 6.72 15 15z" fill="#ff405c"/><path d="m326.779 144.23c0 8.28-6.72 15-15 15h-261.41c-8.28 0-15-6.72-15-15s6.72-15 15-15h261.41c8.28 0 15 6.72 15 15z" fill="#454554"/><g fill="#ff405c"><path d="m461.631 88.086h-38.739c-8.284 0-15 6.716-15 15s6.716 15 15 15h38.739c8.284 0 15-6.716 15-15s-6.716-15-15-15z"/><path d="m428.512 159.008-38.739-20c-7.361-3.801-16.409-.913-20.209 6.447-3.801 7.361-.914 16.41 6.447 20.21l38.739 20c2.2 1.136 4.552 1.674 6.868 1.674 5.434 0 10.677-2.961 13.341-8.122 3.801-7.36.914-16.408-6.447-20.209z"/><path d="m382.905 68.838c2.316 0 4.668-.539 6.868-1.674l38.739-20c7.361-3.8 10.248-12.849 6.447-20.21-3.8-7.36-12.848-10.247-20.209-6.447l-38.739 20c-7.361 3.8-10.248 12.849-6.447 20.21 2.664 5.16 7.907 8.121 13.341 8.121z"/></g><path d="m238.999 297.23c0 31.93-25.98 57.91-57.92 57.92h-.01c-31.93 0-57.91-25.99-57.91-57.92 0-31.94 25.98-57.93 57.91-57.93h.01c31.94.01 57.92 25.99 57.92 57.93z" fill="#f6f6f6"/><path d="m326.779 477.21c0 19.18-15.61 34.79-34.79 34.79h-221.83c-19.18 0-34.79-15.61-34.79-34.79s15.61-34.78 34.79-34.78h221.83c19.18 0 34.79 15.6 34.79 34.78z" fill="#454554"/><path d="m181.079 355.15v-115.85c31.94.01 57.92 25.99 57.92 57.93 0 31.93-25.98 57.91-57.92 57.92z" fill="#efefef"/><g fill="#2e2e2e"><path d="m326.779 477.21c0 19.18-15.61 34.79-34.79 34.79h-110.91v-69.57h110.91c19.18 0 34.79 15.6 34.79 34.78z"/><path d="m326.779 144.23c0 8.28-6.72 15-15 15h-130.7v-30h130.7c8.28 0 15 6.72 15 15z"/></g></g></svg>