<svg height="512" viewBox="0 0 128 128" width="512" xmlns="http://www.w3.org/2000/svg"><g><g><g><path d="m64 78.38v28.75l-24.896 14.37-24.897-14.37v-28.75l24.897-14.38z" fill="#fd637b"/><path d="m39.1 92.75v28.75l-24.89-14.37v-28.75z" fill="#62e0da"/><path d="m64 78.38v28.75l-24.9 14.37v-28.75z" fill="#fdd82e"/></g><g><path d="m64 20.88v28.75l-24.896 14.37-24.897-14.37v-28.75l24.897-14.38z" fill="#62e0da"/><path d="m39.1 35.25v28.75l-24.89-14.37v-28.75z" fill="#fdd82e"/><path d="m64 20.88v28.75l-24.9 14.37v-28.75z" fill="#fd637b"/></g><g><path d="m113.793 49.63v28.75l-24.897 14.37-24.896-14.37v-28.75l24.896-14.38z" fill="#fdd82e"/><path d="m113.79 49.63v28.75l-24.89 14.37v-28.75z" fill="#fd637b"/><path d="m88.9 64v28.75l-24.9-14.37v-28.75z" fill="#62e0da"/></g></g><g fill="#0b2e41"><path d="m113.793 63.74a1.75 1.75 0 0 0 -1.75 1.75v2.854a1.75 1.75 0 0 0 3.5 0v-2.854a1.75 1.75 0 0 0 -1.75-1.75z"/><path d="m114.668 48.114-24.9-14.38a1.755 1.755 0 0 0 -1.751 0l-22.267 12.866v-25.72a1.75 1.75 0 0 0 -.875-1.516l-14.52-8.386a1.75 1.75 0 1 0 -1.755 3.031l11.9 6.87-21.4 12.35-21.4-12.35 21.4-12.358 2.973 1.718a1.75 1.75 0 0 0 1.751-3.031l-3.845-2.224a1.755 1.755 0 0 0 -1.751 0l-24.9 14.38a1.752 1.752 0 0 0 -.875 1.516v28.75a1.752 1.752 0 0 0 .875 1.516l22.272 12.854-22.268 12.864a1.752 1.752 0 0 0 -.875 1.516v28.75a1.752 1.752 0 0 0 .875 1.516l24.9 14.37a1.753 1.753 0 0 0 1.75 0l24.9-14.37a1.75 1.75 0 0 0 .875-1.516v-25.719l22.264 12.855a1.753 1.753 0 0 0 1.75 0l24.9-14.37a1.752 1.752 0 0 0 .875-1.516v-4.13a1.75 1.75 0 0 0 -3.5 0v3.119l-21.4 12.35v-24.709l21.4-12.349v7.589a1.75 1.75 0 0 0 3.5 0v-10.62a1.752 1.752 0 0 0 -.878-1.516zm-54.168 30.265-21.4 12.35-21.4-12.35 21.4-12.358zm1.75-29.76-21.4 12.35v-24.709l21.4-12.349zm-19.65 15.381 19.65-11.339v22.687zm-26.643-40.089 21.4 12.349v24.709l-21.4-12.35zm0 57.5 21.4 12.349v24.709l-21.4-12.35zm24.9 37.058v-24.709l21.4-12.349v24.708zm24.9-65.808 21.4 12.349v24.709l-21.4-12.35zm23.143 9.318-21.4-12.35 21.4-12.358 21.4 12.358z"/></g></g></svg>