<?xml version="1.0"?>
<svg xmlns="http://www.w3.org/2000/svg" width="512" height="512" viewBox="0 0 128 128"><path d="M114.668,48.114l-24.9-14.38a1.755,1.755,0,0,0-1.751,0L65.75,46.6V20.88a1.75,1.75,0,0,0-.875-1.516l-24.9-14.38a1.755,1.755,0,0,0-1.751,0l-24.9,14.38a1.752,1.752,0,0,0-.875,1.516V49.63a1.752,1.752,0,0,0,.875,1.516L35.6,64,13.332,76.864a1.752,1.752,0,0,0-.875,1.516v28.75a1.752,1.752,0,0,0,.875,1.516l24.9,14.37c.02.011.043.015.064.026a1.655,1.655,0,0,0,.294.122c.035.011.07.024.106.032a1.587,1.587,0,0,0,.821,0c.036-.008.071-.021.106-.032a1.655,1.655,0,0,0,.294-.122c.021-.011.044-.015.065-.026l24.9-14.37a1.75,1.75,0,0,0,.875-1.516V81.411L88.021,94.266c.021.011.044.015.065.026a1.655,1.655,0,0,0,.294.122c.035.011.07.024.106.032a1.587,1.587,0,0,0,.821,0c.036-.008.071-.021.106-.032a1.655,1.655,0,0,0,.294-.122c.021-.011.044-.015.064-.026l24.9-14.37a1.752,1.752,0,0,0,.875-1.516V49.63A1.752,1.752,0,0,0,114.668,48.114Zm-4.375,1.515L88.9,61.979,67.5,49.629,88.9,37.271ZM60.5,78.379,39.1,90.729l-21.4-12.35L39.1,66.021Zm1.75-29.76-21.4,12.35V36.26l21.4-12.349ZM42.6,64,62.25,52.661V75.348ZM60.5,20.879,39.1,33.229l-21.4-12.35L39.1,8.521ZM15.957,23.911l21.4,12.349V60.969l-21.4-12.35Zm0,57.5,21.4,12.349v24.709l-21.4-12.35Zm24.9,37.058V93.76l21.4-12.349v24.708Zm24.9-65.808,21.4,12.349V89.719l-21.4-12.35Zm24.9,37.058V65.01l21.4-12.349V77.369Z"/></svg>
