<svg height="512" viewBox="0 0 128 128" width="512" xmlns="http://www.w3.org/2000/svg"><g><g><path d="m6.5 6.5h115v115h-115z" fill="#f5ddcd"/><path d="m6.5 6.5h115v17.692h-115z" fill="#d85134"/><g fill="#f5ddcd"><circle cx="106.005" cy="15.346" r="3"/><circle cx="91.262" cy="15.346" r="3"/><circle cx="76.518" cy="15.346" r="3"/></g><g><circle cx="62.175" cy="73.923" fill="#d85134" r="28.25"/><circle cx="62.175" cy="73.923" fill="#f4d844" r="19.25"/><circle cx="62.175" cy="73.923" fill="#d85134" r="10.25"/><path d="m94.168 35.929v6h6l-6.093 6.094h-6v-6z" fill="#b7452c"/></g></g><g fill="#0f1336"><path d="m121.5 84.167a1.751 1.751 0 0 0 -1.75 1.75v4.75a1.75 1.75 0 0 0 3.5 0v-4.75a1.751 1.751 0 0 0 -1.75-1.75z"/><path d="m121.5 4.75h-115a1.751 1.751 0 0 0 -1.75 1.75v115a1.751 1.751 0 0 0 1.75 1.75h115a1.751 1.751 0 0 0 1.75-1.75v-22.667a1.75 1.75 0 0 0 -3.5 0v20.917h-111.5v-93.808h18.763a1.75 1.75 0 0 0 0-3.5h-18.763v-14.192h111.5v14.192h-81.917a1.75 1.75 0 0 0 0 3.5h81.917v52.475a1.75 1.75 0 0 0 3.5 0v-71.917a1.751 1.751 0 0 0 -1.75-1.75z"/><path d="m113.75 33.75v9a1.75 1.75 0 0 0 3.5 0v-9a1.75 1.75 0 0 0 -3.5 0z"/><path d="m110.755 15.346a4.75 4.75 0 1 0 -4.75 4.75 4.755 4.755 0 0 0 4.75-4.75zm-6 0a1.25 1.25 0 1 1 1.25 1.25 1.252 1.252 0 0 1 -1.25-1.25z"/><path d="m96.012 15.346a4.75 4.75 0 1 0 -4.75 4.75 4.756 4.756 0 0 0 4.75-4.75zm-6 0a1.25 1.25 0 1 1 1.25 1.25 1.251 1.251 0 0 1 -1.25-1.25z"/><path d="m81.268 15.346a4.75 4.75 0 1 0 -4.75 4.75 4.756 4.756 0 0 0 4.75-4.75zm-6 0a1.25 1.25 0 1 1 1.25 1.25 1.252 1.252 0 0 1 -1.25-1.25z"/><path d="m94.075 49.773a1.748 1.748 0 0 0 1.237-.513l6.094-6.093a1.75 1.75 0 0 0 -1.238-2.987h-4.25v-4.25a1.75 1.75 0 0 0 -2.987-1.238l-6.093 6.094a1.75 1.75 0 0 0 -.513 1.237v5.277l-4.225 4.223a30.047 30.047 0 1 0 2.476 2.477l4.224-4.227zm-4.25-7.025 2.593-2.593v1.775a1.751 1.751 0 0 0 1.75 1.75h1.775l-2.593 2.593h-3.525zm-1.15 31.175a26.546 26.546 0 1 1 -9.054-19.923l-3.9 3.9a21.043 21.043 0 1 0 2.476 2.475l3.9-3.9a26.385 26.385 0 0 1 6.578 17.448zm-18 0a8.52 8.52 0 1 1 -3.865-7.116l-2.951 2.95a4.456 4.456 0 0 0 -1.684-.334 4.517 4.517 0 1 0 4.163 2.8l2.948-2.947a8.445 8.445 0 0 1 1.389 4.647zm-1.359-9.623a12.049 12.049 0 1 0 2.476 2.475l3.924-3.923a17.539 17.539 0 1 1 -2.476-2.472z"/></g></g></svg>