<?xml version="1.0" encoding="iso-8859-1"?>
<!-- Generator: Adobe Illustrator 19.0.0, SVG Export Plug-In . SVG Version: 6.00 Build 0)  -->
<svg version="1.1" id="Layer_1" xmlns="http://www.w3.org/2000/svg" xmlns:xlink="http://www.w3.org/1999/xlink" x="0px" y="0px"
	 viewBox="0 0 512 512" style="enable-background:new 0 0 512 512;" xml:space="preserve">
<path style="fill:#E4EAF8;" d="M359.643,334.978l-58.223-21.172l-82.581,16.516l-82.581-16.516l-58.223,21.172
	c-19.581,7.12-32.616,25.73-32.616,46.566v64.392c0,4.561,3.697,8.258,8.258,8.258H384c4.561,0,8.258-3.697,8.258-8.258v-64.392
	C392.258,360.708,379.224,342.099,359.643,334.978z"/>
<path style="fill:#D5DCED;" d="M359.643,334.978l-29.704-10.801c-36.348,17.2-61.552,54.102-61.552,96.984
	c0,11.533,1.866,22.619,5.232,33.032H384c4.561,0,8.258-3.698,8.258-8.258v-64.393C392.258,360.708,379.223,342.098,359.643,334.978
	z"/>
<circle style="fill:#B4E66E;" cx="375.74" cy="421.16" r="90.84"/>
<path style="fill:#A0D755;" d="M421.161,487.543c-50.169,0-90.839-40.67-90.839-90.839c0-25.213,10.278-48.022,26.865-64.48
	c-41.269,8.566-72.285,45.127-72.285,88.936c0,50.169,40.67,90.839,90.839,90.839c24.956,0,47.555-10.069,63.974-26.359
	C433.725,486.884,427.52,487.543,421.161,487.543z"/>
<rect x="161.03" y="247.74" style="fill:#E6AF78;" width="115.61" height="82.58"/>
<path style="fill:#D29B6E;" d="M161.032,273.439c17.019,9.858,36.723,15.593,57.806,15.593s40.787-5.735,57.806-15.593v-25.697
	H161.032V273.439z"/>
<path style="fill:#694B4B;" d="M301.419,0H194.063c-14.755,0-27.964,6.485-37.041,16.719c-25.484,2.047-45.538,23.335-45.538,49.346
	V97.19c0,6.752,0.828,13.479,2.466,20.029l3.326,13.305c1.638,6.551,2.466,13.277,2.466,20.029v14.608h198.194v-14.608
	c0-6.752,0.828-13.479,2.466-20.029l3.326-13.305c1.638-6.551,2.466-13.277,2.466-20.029V24.774C326.194,11.092,315.102,0,301.419,0
	z"/>
<path style="fill:#5A4146;" d="M194.065,165.161v-82.58h-16.516c-18.243,0-33.032-14.789-33.032-33.032
	c0-12.619,4.757-24.101,12.525-32.849c-0.006,0.007-0.013,0.013-0.019,0.02c-25.484,2.047-45.538,23.335-45.538,49.346V97.19
	c0,6.752,0.828,13.478,2.466,20.029l3.327,13.305c1.638,6.55,2.466,13.277,2.466,20.029v14.608L194.065,165.161L194.065,165.161z"/>
<path style="fill:#D5DCED;" d="M55.842,351.338c-6.547,8.483-10.422,18.985-10.422,30.206v64.392c0,4.561,3.697,8.258,8.258,8.258
	h49.548v-30.71c0-12.135-4.453-23.848-12.516-32.918L55.842,351.338z"/>
<polygon style="fill:#B4E66E;" points="230.497,355.097 207.18,355.104 202.323,454.194 235.355,454.194 "/>
<path style="fill:#FFFFFF;" d="M412.081,410.839h-26.016v-26.016c0-5.702-4.621-10.323-10.323-10.323s-10.323,4.621-10.323,10.323
	v26.016h-26.016c-5.702,0-10.323,4.621-10.323,10.323s4.621,10.323,10.323,10.323h26.016V457.5c0,5.702,4.621,10.323,10.323,10.323
	s10.323-4.621,10.323-10.323v-26.016h26.016c5.702,0,10.323-4.621,10.323-10.323C422.404,415.46,417.783,410.839,412.081,410.839z"
	/>
<path style="fill:#A0D755;" d="M202.323,330.323v24.774c0,4.56,3.697,8.258,8.258,8.258h16.516c4.561,0,8.258-3.698,8.258-8.258
	v-24.774H202.323z"/>
<g>
	<path style="fill:#D5DCED;" d="M159.574,293.282l59.265,37.04l-34.397,34.397c-3.608,3.608-9.593,3.113-12.559-1.039
		l-35.624-49.874l12.068-18.102C150.804,291.988,155.787,290.915,159.574,293.282z"/>
	<path style="fill:#D5DCED;" d="M278.103,293.282l-59.265,37.04l34.397,34.397c3.608,3.608,9.593,3.113,12.559-1.039l35.624-49.874
		l-12.068-18.102C286.874,291.988,281.891,290.915,278.103,293.282z"/>
</g>
<path style="fill:#F0C087;" d="M285.033,101.362c-38.535-25.154-98.117-23.069-125.643-20.431
	c-8.464,0.811-14.874,7.936-14.874,16.439v19.078c0,4.753-1.888,9.311-5.249,12.671l-14.277,14.277
	c-3.361,3.361-5.249,7.919-5.249,12.671v14.065c0,54.563,42.687,101.368,97.241,102.366c55.579,1.017,100.953-43.733,100.953-99.08
	v-17.351c0-4.753-1.888-9.311-5.249-12.671L298.41,129.12c-3.361-3.361-5.249-7.919-5.249-12.671v-0.001
	C293.161,110.376,290.117,104.681,285.033,101.362z"/>
<path style="fill:#E6AF78;" d="M177.548,198.194v-75.516c0-8.972,7.108-16.319,16.077-16.517
	c25.774-0.571,67.199,0.55,99.616,11.098c-0.013-0.273-0.08-0.536-0.08-0.81v-0.001c0-6.059-3.026-11.752-8.099-15.066
	c-31.437-20.537-76.885-22.93-107.514-21.682c-6.915,0.282-13.087,0.746-18.158,1.232c-8.464,0.811-14.874,7.936-14.874,16.439
	v19.078c0,4.752-1.888,9.31-5.248,12.671l-14.277,14.276c-3.361,3.361-5.249,7.919-5.249,12.672v14.065
	c0,52.454,39.485,97.614,91.003,101.924C190.419,253.909,177.548,227.586,177.548,198.194z"/>
<g>
</g>
<g>
</g>
<g>
</g>
<g>
</g>
<g>
</g>
<g>
</g>
<g>
</g>
<g>
</g>
<g>
</g>
<g>
</g>
<g>
</g>
<g>
</g>
<g>
</g>
<g>
</g>
<g>
</g>
</svg>
