<svg height="496pt" viewBox="-40 0 496 496.00963" width="496pt" xmlns="http://www.w3.org/2000/svg"><path d="m392.003906 408.007812h-368l184-400zm0 0" fill="#91cc04"/><g fill="#231f20"><path d="m376.003906 480.007812h-160v-64h176c2.726563.003907 5.269532-1.382812 6.742188-3.679687 1.46875-2.296875 1.671875-5.183594.53125-7.664063l-184-400c-1.304688-2.839843-4.144532-4.664062-7.273438-4.664062-3.125 0-5.96875 1.824219-7.269531 4.664062l-184 400c-1.140625 2.480469-.941406 5.367188.53125 7.664063s4.011719 3.683594 6.738281 3.679687h176v64h-192c-4.417968 0-7.99999975 3.582032-7.99999975 8 0 4.421876 3.58203175 8 7.99999975 8h368c4.417969 0 8-3.578124 8-8 0-4.417968-3.582031-8-8-8zm-339.511718-80 171.511718-372.855468 171.511719 372.855468h-163.511719v-52.6875l45.65625-45.65625c3.03125-3.136718 2.988282-8.128906-.097656-11.214843-3.085938-3.085938-8.074219-3.128907-11.214844-.09375l-34.34375 34.34375v-76.691407c0-4.417968-3.582031-8-8-8-4.417968 0-8 3.582032-8 8v100.691407l-50.34375-50.34375c-3.136718-3.035157-8.128906-2.992188-11.214844.09375-3.085937 3.085937-3.128906 8.078125-.097656 11.214843l61.65625 61.65625v28.6875zm0 0"/><path d="m272.003906 288.007812c2.121094 0 4.15625-.839843 5.65625-2.34375l8-8c3.03125-3.136718 2.988282-8.128906-.097656-11.214843-3.085938-3.085938-8.074219-3.128907-11.214844-.09375l-8 8c-2.285156 2.285156-2.96875 5.726562-1.730468 8.714843 1.234374 2.988282 4.152343 4.9375 7.386718 4.9375zm0 0"/><path d="m408.003906 480.007812h-8c-4.417968 0-8 3.582032-8 8 0 4.421876 3.582032 8 8 8h8c4.417969 0 8-3.578124 8-8 0-4.417968-3.582031-8-8-8zm0 0"/></g></svg>