<svg height="512" viewBox="0 0 128 128" width="512" xmlns="http://www.w3.org/2000/svg"><g><g><path d="m76.25 91h6v30.5h-6z" fill="#eaeaf0"/><path d="m92.167 79.054c0 20.136-5.783 21.613-12.917 21.613s-12.917-1.477-12.917-21.613 5.783-51.3 12.917-51.3 12.917 31.165 12.917 51.3z" fill="#94c600"/><path d="m91.583 91h6v30.5h-6z" fill="#eaeaf0"/><path d="m107.5 83.426c0 16.063-5.783 17.241-12.917 17.241s-12.916-1.178-12.916-17.241 5.783-40.926 12.916-40.926 12.917 24.864 12.917 40.926z" fill="#9adb07"/><g fill="#3ba9fd"><path d="m37.38 13.953h-.027a6.675 6.675 0 0 0 -8.761-5.818 6.335 6.335 0 0 0 -10.456 3.418 7.16 7.16 0 0 0 4.333 12.866h14.911a5.235 5.235 0 0 0 0-10.469z"/><path d="m98 18.953h.019a4.765 4.765 0 0 1 6.256-4.154 4.524 4.524 0 0 1 7.467 2.441 5.113 5.113 0 0 1 -3.094 9.187h-10.648a3.738 3.738 0 1 1 0-7.475z"/><path d="m47.762 40.107h-.019a4.765 4.765 0 0 0 -6.256-4.154 4.524 4.524 0 0 0 -7.467 2.447 5.113 5.113 0 0 0 3.094 9.187h10.648a3.738 3.738 0 0 0 0-7.476z"/></g></g><g fill="#0b2e41"><path d="m67.328 62.617a1.779 1.779 0 0 0 .217.013 1.749 1.749 0 0 0 1.734-1.53c.147-1.183.305-2.365.475-3.538a1.75 1.75 0 1 0 -3.465-.5c-.172 1.2-.334 2.4-.482 3.608a1.748 1.748 0 0 0 1.521 1.947z"/><path d="m87.673 84.25a1.751 1.751 0 0 0 1.75-1.728c.033-2.569.207-5.289.516-8.085a1.75 1.75 0 1 0 -3.478-.385c-.322 2.908-.5 5.743-.538 8.426a1.75 1.75 0 0 0 1.727 1.772z"/><path d="m121.5 119.75h-22.17v-4.25a1.75 1.75 0 0 0 -3.5 0v4.25h-2.5v-17.35q.623.015 1.253.016t1.247-.016v4.429a1.75 1.75 0 0 0 3.5 0v-4.75c5.61-1 9.92-4.831 9.92-18.653 0-14.485-5.177-42.677-14.667-42.677-1.809 0-3.46 1.03-4.95 2.789-2.842-11.629-6.327-17.538-10.383-17.538-6.183 0-9.975 13.882-12.066 25.527a1.75 1.75 0 1 0 3.445.619c2.984-16.615 6.791-22.646 8.621-22.646 1.562 0 4.888 4.875 7.745 18.2-4.625 9.294-7.078 25.759-7.078 35.73 0 7.762 1.361 12.369 3.545 15.1a17.414 17.414 0 0 1 -4.212.395c-5.491 0-11.17 0-11.17-19.87 0-3.53.178-7.405.528-11.517a1.75 1.75 0 0 0 -3.488-.3c-.358 4.21-.54 8.185-.54 11.814 0 15.925 3.572 21.413 9.92 22.9v17.8h-19.75v-7.167h2.75a1.75 1.75 0 0 0 0-3.5h-2.75v-12.585a1.75 1.75 0 0 0 -3.5 0v2.417h-32v-2.417a1.75 1.75 0 0 0 -3.5 0v12.583h-2.75a1.75 1.75 0 0 0 0 3.5h2.75v7.167h-9.25a1.75 1.75 0 0 0 0 3.5h115a1.75 1.75 0 0 0 0-3.5zm-31.67 0h-5.83v-17.764a10.94 10.94 0 0 0 2.614-.922 12.067 12.067 0 0 0 3.216 1.015zm.411-70.773a1.742 1.742 0 0 0 .259-.508c1.361-2.635 2.77-4.219 4.083-4.219 4.905 0 11.167 21.969 11.167 39.177 0 15.49-5.424 15.49-11.167 15.49-2.475 0-4.89 0-6.838-1.244a1.718 1.718 0 0 0 -.263-.179c-2.427-1.729-4.065-5.559-4.065-14.067 0-12.31 3.205-27.052 6.824-34.45zm-70.991 53.44h32v6.666h-32zm0 10.166h32v7.167h-32zm58.75 7.167v-17.359c.409.018.824.029 1.25.029s.832-.008 1.25-.022v17.352z"/><path d="m22.469 26.172h14.911a6.985 6.985 0 0 0 1.472-13.813 8.484 8.484 0 0 0 -8.16-6.312 8.321 8.321 0 0 0 -1.7.175 8.086 8.086 0 0 0 -12.413 4.347 8.911 8.911 0 0 0 5.89 15.6zm-3.269-13.224a1.747 1.747 0 0 0 .654-1.038 4.586 4.586 0 0 1 7.571-2.472 1.752 1.752 0 0 0 1.722.362 4.923 4.923 0 0 1 6.466 4.293 1.759 1.759 0 0 0 1.831 1.607 3.484 3.484 0 0 1 -.064 6.968h-14.911a5.411 5.411 0 0 1 -3.269-9.72z"/><path d="m98 28.178h10.648a6.876 6.876 0 0 0 6.869-6.867 6.8 6.8 0 0 0 -2.226-5.054 6.273 6.273 0 0 0 -9.41-3.356 6.514 6.514 0 0 0 -7.332 4.5 5.488 5.488 0 0 0 1.451 10.777zm-.047-7.478a1.719 1.719 0 0 0 1.813-1.612 3.015 3.015 0 0 1 3.96-2.63 1.747 1.747 0 0 0 1.723-.362 2.774 2.774 0 0 1 4.58 1.5 1.75 1.75 0 0 0 .654 1.039 3.363 3.363 0 0 1 -2.034 6.045h-10.649a1.988 1.988 0 0 1 -.048-3.975z"/><path d="m41.882 34.057a6.273 6.273 0 0 0 -9.411 3.354 6.863 6.863 0 0 0 4.643 11.922h10.648a5.488 5.488 0 0 0 1.452-10.781 6.564 6.564 0 0 0 -6.228-4.591 6.389 6.389 0 0 0 -1.104.096zm4.118 6.19a1.737 1.737 0 0 0 1.811 1.611 1.988 1.988 0 0 1 -.048 3.975h-10.649a3.363 3.363 0 0 1 -2.034-6.045 1.753 1.753 0 0 0 .653-1.038 2.775 2.775 0 0 1 4.582-1.5 1.75 1.75 0 0 0 1.723.362 3.015 3.015 0 0 1 3.962 2.635z"/></g></g></svg>