<?xml version="1.0" encoding="iso-8859-1"?>
<!-- Generator: Adobe Illustrator 19.0.0, SVG Export Plug-In . SVG Version: 6.00 Build 0)  -->
<svg version="1.1" id="Capa_1" xmlns="http://www.w3.org/2000/svg" xmlns:xlink="http://www.w3.org/1999/xlink" x="0px" y="0px"
	 viewBox="0 0 512.002 512.002" style="enable-background:new 0 0 512.002 512.002;" xml:space="preserve">
<path style="fill:#AF6E5A;" d="M269.763,191.382l-26.288-10.197c-48.799,116.89-35.571,323.317-35.571,323.317H256
	C256,504.502,228.159,313.052,269.763,191.382z"/>
<path style="fill:#965A50;" d="M234.278,133.255c-3.096,5.623-5.014,11.987-5.014,18.861c0,11.986,5.471,22.588,13.921,29.808
	c-48.444,117.017-35.282,322.578-35.282,322.578h22.48c-2.468-37.636-10.814-201.481,21.357-308.572
	c1.189-3.958,5.296-6.021,9.347-5.205c2.438,0.491,4.956,0.755,7.54,0.755c21.258,0,38.464-16.884,39.221-37.956
	C283.477,146.253,259.012,139.294,234.278,133.255z"/>
<g>
	<path style="fill:#AFD755;" d="M272.033,151.863c-6.884-53.018-31.701-112.71-41.688-135.167c-1.74-3.912,1.831-8.072,5.95-6.902
		c16.142,4.588,47.467,17.526,63.559,51.181C307.103,76.14,310.777,103.696,272.033,151.863"/>
	<path style="fill:#AFD755;" d="M272.033,151.863c-81.026-11.39-149.858,10.536-174.586,19.964
		c-3.431,1.308-6.502-2.448-4.633-5.608c10.216-17.27,35.787-52.499,78.123-60.756C200.724,99.653,247.984,103.696,272.033,151.863"
		/>
	<path style="fill:#AFD755;" d="M272.033,151.815c61.801,23.386,101.114,68.379,117.048,89.643c2.911,3.885,9.069,1.855,9.18-2.999
		c0.471-20.681-1.4-62.573-28.364-84.662C310.777,105.366,272.033,151.815,272.033,151.815z"/>
</g>
<path style="fill:#96BE4B;" d="M408.428,80.504c-18.077-10.057-52.982-24.967-85.856-13.378
	c-27.496,9.692-40.445,27.689-46.423,44.619c-2.254-21.496-12.451-47.767-43.695-68.671c-34.419-23.03-72.759-19.272-96.066-13.274
	c-5.47,1.408-5.949,8.994-0.683,11.301c28.823,12.629,99.163,62.23,136.328,110.762c37.743-26.791,108.531-57.654,134.771-61.839
	C411.597,89.259,412.671,82.865,408.428,80.504z"/>
<path d="M429.043,81.821c-1.925-1.55-47.758-37.805-101.023-24.194c-6.56,1.677-12.771,4.181-18.584,7.426
	c-0.74-2.343-1.636-4.779-2.786-7.246c-23.284-49.962-77.269-57.45-79.556-57.744c-2.949-0.383-5.834,1.017-7.371,3.557
	c-1.538,2.54-1.431,5.75,0.27,8.183c0.089,0.127,5.755,8.314,13.005,22.679c-49.911-32.332-111.259-8.678-113.856-7.651
	c-2.831,1.119-4.702,3.838-4.74,6.882c-0.038,3.043,1.769,5.808,4.57,6.998c0.608,0.258,43.068,18.583,88.76,55.943
	c-12.002-1.606-24.913-1.151-38.231,1.446c-59.772,11.658-87.529,72.102-88.682,74.669c-1.282,2.856-0.655,6.208,1.572,8.407
	c1.435,1.417,3.339,2.165,5.272,2.164c1.067,0,2.144-0.228,3.153-0.696c0.652-0.303,53.826-24.507,126.329-26.351
	c1.974,11.926,8.011,22.418,16.62,30.063c-19.573,48.838-31.156,116.706-34.432,201.845c-1.922,49.952-0.265,91.875,0.619,108.801
	h-8.081c-4.142,0-7.5,3.358-7.5,7.5s3.358,7.5,7.5,7.5h80.161c4.142,0,7.5-3.358,7.5-7.5s-3.358-7.5-7.5-7.5h-9.461
	c-4.25-33.688-21.611-192.421,13.049-298.205c13.397-2.018,25.61-9.292,33.761-20.184c53.2,32.846,81.06,77.861,81.394,78.41
	c1.377,2.271,3.826,3.613,6.413,3.613c0.488,0,0.981-0.048,1.472-0.146c3.096-0.619,5.473-3.111,5.945-6.233
	c0.104-0.682,2.5-16.944,0.22-37.658c-3.077-27.958-13.332-50.725-29.653-65.838c-17.397-16.109-35.148-21.852-50.578-22.728
	c54.932-26.226,100.201-32.86,100.779-32.942c2.963-0.413,5.397-2.546,6.195-5.429C432.365,86.779,431.373,83.697,429.043,81.821z
	 M225.372,47.408c12.019,7.913,23.573,19.804,30.909,31.808c2.16,3.534,6.776,4.65,10.31,2.489c3.535-2.16,4.649-6.776,2.489-10.31
	c-2.615-4.279-5.695-8.543-9.11-12.662c-6.194-16.485-12.719-29.801-17.881-39.254c15.783,5.761,38.688,18.321,50.965,44.665
	c1.555,3.336,2.541,6.749,3.366,10.024c-5.915,5.1-11.22,11.144-15.792,18.084c-7.546,11.454-12.777,25.012-15.325,39.342
	C221.88,81.053,169.947,49.77,142.983,35.673C163.348,31.448,197.092,28.791,225.372,47.408z M105.003,161.128
	c11.98-17.289,34.294-41.854,67.369-48.304c24.53-4.785,47.142-1.361,63.667,9.639c0.233,0.155,0.473,0.293,0.716,0.419
	c6.136,6.152,12.182,12.657,18.042,19.516c-46.324-3.885-87.337,2.369-114.833,8.784
	C125.901,154.462,114.076,158.04,105.003,161.128z M239.783,394.232c1.32,47.113,5.604,86.168,7.666,102.77h-32.47
	c-1.871-35.705-7.946-200.214,31.613-302.28c4.171,1.906,8.639,3.266,13.309,4.004C244.321,248.851,237.551,314.551,239.783,394.232
	z M268.025,184.373c-17.231,0-31.775-11.92-35.599-28.123c12.234,0.239,24.918,1.155,37.915,2.954
	c9.135,3.505,17.767,7.508,25.893,11.848C289.339,179.372,278.975,184.373,268.025,184.373z M390.725,231.214
	c-17.09-21.61-51.12-57.675-102.091-80.638c4.452-2.148,9.971-4.331,16.247-5.826c22.02-5.245,42.24,0.48,60.1,17.017
	C385.711,180.963,390.258,211.111,390.725,231.214z M279.768,135.342c5.583-35.772,28.992-57.312,51.965-63.182
	c6.961-1.779,13.823-2.534,20.458-2.534c21.109,0,39.921,7.642,52.278,14.28C378.84,89.809,330.462,104.064,279.768,135.342z"/>
<g>
</g>
<g>
</g>
<g>
</g>
<g>
</g>
<g>
</g>
<g>
</g>
<g>
</g>
<g>
</g>
<g>
</g>
<g>
</g>
<g>
</g>
<g>
</g>
<g>
</g>
<g>
</g>
<g>
</g>
</svg>
