<svg id="Layer_1" enable-background="new 0 0 128 128" height="512" viewBox="0 0 128 128" width="512" xmlns="http://www.w3.org/2000/svg"><g><path d="m119.338 22.381h-57.978c-1.769 0-3.426-.868-4.433-2.322l-2.578-3.725c-1.38-1.993-3.651-3.184-6.077-3.184h-35.61c-2.757 0-5 2.243-5 5v95.698c0 2.757 2.243 5 5 5h106.676c2.757 0 5-2.243 5-5v-86.467c0-2.756-2.243-5-5-5z" fill="#e6e7e8"/><g><path d="m119.337 34.163h-114.675v75.687c0 2.209 1.791 4 4 4h106.675c2.209 0 4-1.791 4-4z" fill="#d4fbff"/><g><g><path d="m91.04 67.041c-2.509 2.449-5.935 3.964-9.719 3.964-2.048 0-3.985-.456-5.735-1.252-.595 2.691-1.964 5.09-3.868 6.949 5.755 2.097 9.873 7.601 9.873 14.082v3.31h17.321c1.105 0 2-.896 2-2v-10.97c.001-6.482-4.117-11.986-9.872-14.083z" fill="#ffd7e5"/><path d="m81.321 43.162c-6.653 0-12.207 4.67-13.585 10.908 4.823 2.187 8.185 7.033 8.185 12.674 0 1.036-.121 2.043-.336 3.014 1.751.794 3.689 1.247 5.736 1.247 7.688 0 13.921-6.233 13.921-13.921s-6.232-13.922-13.921-13.922z" fill="#fff"/></g><g><path d="m42.408 90.783c0-6.481 4.117-11.985 9.873-14.082-1.904-1.858-3.273-4.258-3.868-6.949-1.75.796-3.686 1.252-5.735 1.252-3.784 0-7.21-1.515-9.719-3.964-5.755 2.097-9.873 7.601-9.873 14.082v10.97c0 1.104.895 2 2 2h17.321v-3.309z" fill="#ffd7e5"/><path d="m48.415 69.758c-.215-.971-.336-1.978-.336-3.014 0-5.641 3.361-10.487 8.185-12.674-1.378-6.238-6.932-10.908-13.585-10.908-7.688 0-13.921 6.233-13.921 13.921s6.233 13.921 13.921 13.921c2.047.001 3.985-.452 5.736-1.246z" fill="#fff"/></g><g><path d="m71.719 76.701c-2.509 2.449-5.935 3.964-9.719 3.964s-7.21-1.515-9.719-3.964c-5.755 2.097-9.873 7.601-9.873 14.082v10.97c0 1.104.895 2 2 2h35.183c1.105 0 2-.896 2-2v-10.97c0-6.481-4.117-11.985-9.872-14.082z" fill="#fa759e"/><circle cx="62" cy="66.744" fill="#fff" r="13.921"/></g></g><path d="m115.337 110.849h-106.675c-2.209 0-4-1.791-4-4v3c0 2.209 1.791 4 4 4h106.675c2.209 0 4-1.791 4-4v-3c0 2.209-1.791 4-4 4z" fill="#fff"/><path d="m52.106 16.629-2.579-3.725c-1.194-1.724-3.157-2.753-5.254-2.753h-35.611c-2.209 0-4 1.791-4 4v20.012h114.675v-10.781c0-2.209-1.791-4-4-4h-57.977c-2.097 0-4.061-1.029-5.254-2.753z" fill="#0089ef"/><g fill="#3a2c60"><path d="m44.408 104.753h35.183c1.654 0 3-1.346 3-3v-6.661h16.321c1.654 0 3-1.346 3-3v-10.97c0-6.38-3.761-11.884-9.176-14.45 2.184-2.596 3.505-5.939 3.505-9.589 0-8.228-6.694-14.921-14.921-14.921-6.71 0-12.38 4.46-14.249 10.567-1.586-.576-3.289-.907-5.072-.907s-3.486.331-5.073.907c-1.869-6.106-7.538-10.567-14.249-10.567-8.228 0-14.921 6.693-14.921 14.921 0 3.65 1.322 6.994 3.506 9.589-5.415 2.566-9.176 8.07-9.176 14.45v10.97c0 1.654 1.346 3 3 3h16.321v6.661c.001 1.655 1.347 3 3.001 3zm36.183-3c0 .551-.449 1-1 1h-35.183c-.551 0-1-.449-1-1v-10.97c0-5.829 3.583-10.831 8.66-12.935 2.641 2.365 6.116 3.817 9.932 3.817s7.29-1.452 9.931-3.817c5.077 2.103 8.66 7.106 8.66 12.934zm19.322-20.63v10.97c0 .551-.449 1-1 1h-16.322v-2.31c0-6.38-3.761-11.884-9.176-14.45 1.278-1.519 2.259-3.292 2.854-5.235 1.581.574 3.275.907 5.052.907 3.816 0 7.29-1.452 9.932-3.817 5.077 2.103 8.66 7.106 8.66 12.935zm-18.592-36.96c7.125 0 12.921 5.796 12.921 12.921s-5.796 12.921-12.921 12.921c-1.628 0-3.174-.325-4.608-.88.125-.777.208-1.569.208-2.381 0-5.737-3.259-10.719-8.018-13.216 1.549-5.4 6.527-9.365 12.418-9.365zm-6.4 22.581c0 7.125-5.796 12.921-12.921 12.921s-12.921-5.796-12.921-12.921 5.796-12.921 12.921-12.921 12.921 5.796 12.921 12.921zm-32.242-22.581c5.891 0 10.869 3.966 12.418 9.366-4.759 2.496-8.018 7.479-8.018 13.216 0 .812.083 1.604.208 2.381-1.434.555-2.981.88-4.608.88-7.125 0-12.921-5.796-12.921-12.921-.001-7.126 5.796-12.922 12.921-12.922zm-17.592 48.93c-.551 0-1-.449-1-1v-10.97c0-5.829 3.583-10.831 8.66-12.935 2.641 2.365 6.116 3.817 9.932 3.817 1.777 0 3.471-.333 5.052-.907.594 1.943 1.576 3.717 2.854 5.235-5.415 2.566-9.176 8.07-9.176 14.45v2.31z"/><path d="m119.338 52.25c-.552 0-1 .448-1 1v9.438c0 .552.448 1 1 1s1-.448 1-1v-9.438c0-.552-.448-1-1-1z"/><path d="m115.338 18.382h-57.978c-1.769 0-3.425-.868-4.432-2.322l-2.579-3.725c-1.38-1.993-3.651-3.184-6.077-3.184h-35.609c-2.757 0-5 2.243-5 5v95.699c0 2.757 2.243 5 5 5h106.675c2.757 0 5-2.243 5-5v-43.183c0-.552-.448-1-1-1s-1 .448-1 1v43.183c0 1.654-1.346 3-3 3h-106.676c-1.654 0-3-1.346-3-3v-74.687h112.675v14.087c0 .552.448 1 1 1s1-.448 1-1v-25.868c.001-2.757-2.243-5-4.999-5zm-109.675-4.231c0-1.654 1.346-3 3-3h35.61c1.769 0 3.426.868 4.432 2.322l2.579 3.725c1.38 1.994 3.652 3.184 6.077 3.184h57.978c1.654 0 3 1.346 3 3v9.781h-112.676z"/></g><g><circle cx="36.972" cy="18.791" fill="#fff" r="2.727"/><circle cx="27.065" cy="18.791" fill="#d4fbff" r="2.727"/><circle cx="17.158" cy="18.791" fill="#fa759e" r="2.727"/><path d="m109.569 29.29h-93.75c-.829 0-1.5-.671-1.5-1.5s.671-1.5 1.5-1.5h93.75c.829 0 1.5.671 1.5 1.5s-.671 1.5-1.5 1.5z" fill="#6dc9f7"/></g></g></g></svg>