<?xml version="1.0" encoding="iso-8859-1"?>
<!-- Generator: Adobe Illustrator 19.0.0, SVG Export Plug-In . SVG Version: 6.00 Build 0)  -->
<svg version="1.1" id="Layer_1" xmlns="http://www.w3.org/2000/svg" xmlns:xlink="http://www.w3.org/1999/xlink" x="0px" y="0px"
	 viewBox="0 0 512.001 512.001" style="enable-background:new 0 0 512.001 512.001;" xml:space="preserve">
<g>
	<path style="fill:#EF5959;" d="M227.929,434.471c-15.478-15.478-15.477-40.665,0.001-56.143c15.478-15.478,40.664-15.478,56.142,0
		c15.478,15.478,15.478,40.664,0,56.142C268.594,449.948,243.408,449.949,227.929,434.471z"/>
	<path style="fill:#EF5959;" d="M343.122,345.119c-6.613,0-13.228-2.523-18.273-7.569c-37.96-37.962-99.733-37.963-137.695,0
		c-10.092,10.092-26.456,10.092-36.548,0c-10.091-10.092-10.091-26.454,0-36.547c58.116-58.116,152.676-58.113,210.79,0
		c10.091,10.092,10.091,26.454,0,36.547C356.35,342.596,349.736,345.119,343.122,345.119z"/>
	<path style="fill:#EF5959;" d="M410.852,277.389c-6.613,0-13.228-2.523-18.273-7.569c-75.31-75.31-197.848-75.307-273.154,0
		c-10.092,10.093-26.453,10.093-36.548,0c-10.092-10.092-10.091-26.454,0.001-36.547c95.458-95.461,250.786-95.463,346.249,0
		c10.091,10.092,10.091,26.454,0,36.547C424.08,274.866,417.466,277.389,410.852,277.389z"/>
	<path style="fill:#EF5959;" d="M33.42,209.66c-6.613,0-13.228-2.523-18.272-7.569c-10.092-10.092-10.092-26.454-0.001-36.547
		c64.236-64.236,149.783-99.618,240.855-99.618c0.005,0-0.005,0,0,0c91.077,0,176.614,35.379,240.854,99.618
		c10.092,10.092,10.091,26.454,0,36.547c-10.092,10.092-26.453,10.094-36.548,0c-54.477-54.478-127.035-84.48-204.306-84.48
		c-77.273,0-149.831,30.002-204.308,84.48C46.648,207.136,40.034,209.66,33.42,209.66z"/>
</g>
<path d="M222.561,372.958c-18.439,18.439-18.439,48.443-0.001,66.881h0.001c9.219,9.219,21.329,13.828,33.439,13.828
	c12.111,0,24.223-4.61,33.442-13.829c18.438-18.438,18.438-48.441,0-66.88C271.002,354.52,241,354.521,222.561,372.958z
	 M278.704,429.101c-12.516,12.517-32.886,12.52-45.407,0h0.001c-12.518-12.518-12.518-32.887,0-45.407
	c12.519-12.519,32.888-12.519,45.407,0C291.223,396.214,291.223,416.582,278.704,429.101z"/>
<path d="M256.002,249.825C256,249.825,256.003,249.825,256.002,249.825c-41.885,0-81.225,16.271-110.765,45.811
	c-13.034,13.036-13.034,34.247,0.001,47.283c13.036,13.037,34.248,13.036,47.285,0c8.554-8.555,18.538-15.178,29.672-19.685
	c3.886-1.573,5.761-6,4.189-9.886c-1.572-3.886-5.998-5.763-9.887-4.189c-13.031,5.275-24.71,13.021-34.71,23.023
	c-7.117,7.116-18.697,7.116-25.811,0c-7.115-7.116-7.115-18.695,0-25.81c26.674-26.674,62.196-41.362,100.027-41.362
	c37.829,0,73.353,14.69,100.025,41.362c7.116,7.116,7.116,18.694,0,25.809c-3.446,3.447-8.03,5.345-12.904,5.345
	s-9.459-1.898-12.905-5.345c-21.666-21.667-51.672-32.743-82.334-30.384c-4.181,0.322-7.31,3.971-6.987,8.152
	c0.322,4.18,3.969,7.32,8.152,6.988c26.236-2.018,51.905,7.452,70.431,25.981c6.315,6.315,14.712,9.793,23.643,9.793
	s17.327-3.478,23.642-9.793c13.036-13.036,13.036-34.248,0-47.283C337.223,266.095,297.888,249.825,256.002,249.825z"/>
<path d="M256,154.085c-67.5,0-130.89,26.217-178.491,73.82c-13.036,13.037-13.037,34.249,0,47.283
	c13.037,13.035,34.248,13.036,47.284,0C159.781,240.2,206.378,220.931,256,220.93c49.624,0,96.222,19.27,131.21,54.258
	c6.315,6.315,14.711,9.793,23.642,9.793c8.931,0,17.328-3.478,23.643-9.793c13.034-13.036,13.034-34.247,0-47.283
	C386.892,180.301,323.5,154.085,256,154.085z M423.757,264.451c-3.446,3.447-8.031,5.345-12.905,5.345s-9.458-1.898-12.904-5.345
	C360.092,226.594,309.68,205.745,256,205.745c-53.678,0-104.089,20.849-141.945,58.705c-7.113,7.116-18.691,7.116-25.81,0
	c-7.115-7.115-7.114-18.692,0.002-25.809C132.98,193.906,192.556,169.27,256,169.27c63.445,0,123.022,24.637,167.758,69.372
	C430.872,245.757,430.872,257.336,423.757,264.451z"/>
<path d="M502.224,160.176c-38.708-38.708-84.373-66.995-135.726-84.077c-3.979-1.322-8.277,0.829-9.6,4.809s0.828,8.277,4.807,9.601
	c49.093,16.329,92.758,43.382,129.781,80.406c7.115,7.116,7.115,18.694-0.001,25.809c-7.114,7.117-18.693,7.116-25.809,0
	c-55.91-55.911-130.376-86.704-209.676-86.704c-79.301,0-153.766,30.792-209.676,86.703c-3.448,3.447-8.032,5.346-12.906,5.346
	s-9.457-1.898-12.904-5.345c-7.115-7.116-7.116-18.693-0.002-25.809c62.807-62.805,146.438-97.394,235.488-97.394
	c24.866,0,49.624,2.719,73.589,8.081c4.095,0.914,8.151-1.66,9.067-5.751c0.915-4.092-1.66-8.151-5.752-9.067
	c-25.052-5.606-50.927-8.449-76.905-8.449c-93.106,0-180.55,36.168-246.226,101.842c-13.035,13.037-13.034,34.248,0.002,47.282
	c6.313,6.316,14.709,9.793,23.642,9.793c8.931,0,17.327-3.478,23.643-9.793c53.043-53.044,123.693-82.256,198.939-82.256
	c75.244,0,145.895,29.213,198.939,82.257c13.036,13.036,34.249,13.035,47.284,0C515.26,194.423,515.26,173.212,502.224,160.176z"/>
<g>
</g>
<g>
</g>
<g>
</g>
<g>
</g>
<g>
</g>
<g>
</g>
<g>
</g>
<g>
</g>
<g>
</g>
<g>
</g>
<g>
</g>
<g>
</g>
<g>
</g>
<g>
</g>
<g>
</g>
</svg>
